STARTFONT 2.1
FONT -FontForge-Good Times Rg-Book-R-Normal--80-770-75-75-P-593-ISO10646-1
SIZE 77 75 75
FONTBOUNDINGBOX 159 95 -22 -17
COMMENT "Generated by fontforge, http://fontforge.sourceforge.net"
COMMENT "(c) 1998-2012 Typodermic Fonts Inc. See attached license agreement. If agreement is missing visit typodermicfonts.com for more info. Languages by Chikako Larabie"
STARTPROPERTIES 39
FOUNDRY "FontForge"
FAMILY_NAME "Good Times Rg"
WEIGHT_NAME "Book"
SLANT "R"
SETWIDTH_NAME "Normal"
ADD_STYLE_NAME ""
PIXEL_SIZE 80
POINT_SIZE 770
RESOLUTION_X 75
RESOLUTION_Y 75
SPACING "P"
AVERAGE_WIDTH 593
CHARSET_REGISTRY "ISO10646"
CHARSET_ENCODING "1"
FONTNAME_REGISTRY ""
CHARSET_COLLECTIONS "ISO8859-2 ISO8859-9 ISO8859-4 ISO10646-1"
FONT_NAME "GoodTimesRg-Regular"
FACE_NAME "GoodTimesRg-Regular"
COPYRIGHT "(c) 1998-2012 Typodermic Fonts Inc. See attached license agreement. If agreement is missing visit typodermicfonts.com for more info. Languages by Chikako Larabie"
FONT_VERSION "4.001"
FONT_ASCENT 64
FONT_DESCENT 16
UNDERLINE_POSITION -11
UNDERLINE_THICKNESS 2
X_HEIGHT 57
CAP_HEIGHT 57
RAW_ASCENT 799
RAW_DESCENT 201
NORM_SPACE 24
RELATIVE_WEIGHT 40
RELATIVE_SETWIDTH 50
SUPERSCRIPT_X 0
SUPERSCRIPT_Y 24
SUPERSCRIPT_SIZE 24
SUBSCRIPT_X 0
SUBSCRIPT_Y 0
SUBSCRIPT_SIZE 24
AVG_LOWERCASE_WIDTH 680
AVG_UPPERCASE_WIDTH 678
ENDPROPERTIES
CHARS 372
STARTCHAR space
ENCODING 32
SWIDTH 294 0
DWIDTH 24 0
BBX 1 1 0 0
BITMAP
00
ENDCHAR
STARTCHAR exclam
ENCODING 33
SWIDTH 298 0
DWIDTH 24 0
BBX 11 58 7 0
BITMAP
FFC0
FFC0
FFC0
FFC0
FFC0
FFC0
FFC0
FFC0
FFC0
FFC0
FFC0
FFC0
FFC0
FFC0
FFC0
FFC0
FFC0
FFC0
FFC0
FFC0
FFC0
FFC0
FFC0
FFC0
FFC0
FFC0
FFC0
FFC0
FFC0
FFC0
FFC0
FFC0
FFC0
FFC0
FFC0
FFC0
FFC0
FFC0
FFC0
0000
0000
0000
0000
0000
0000
0000
0000
1E00
7F80
FFC0
FFC0
FFC0
FFE0
FFC0
FFC0
FFC0
7F80
1E00
ENDCHAR
STARTCHAR quotedbl
ENCODING 34
SWIDTH 452 0
DWIDTH 36 0
BBX 26 21 5 37
BITMAP
FFE1FFC0
7FE0FFC0
7FE0FFC0
7FC0FF80
7FC0FF80
7FC0FF80
7FC0FF80
7FC0FF80
7FC0FF80
7FC0FF80
7FC0FF80
7FC0FF80
3FC07F80
3FC07F80
3FC07F00
3F807F00
3F807F00
3F807F00
3F807F00
3F807F00
3F807F00
ENDCHAR
STARTCHAR numbersign
ENCODING 35
SWIDTH 697 0
DWIDTH 56 0
BBX 49 58 4 0
BITMAP
00001FE003FC00
00001FC003F800
00001FC003F800
00003FC003F800
00003F8007F800
00003F8007F000
00003F8007F000
00007F800FF000
00007F000FE000
00007F000FE000
0000FF001FE000
0000FE001FC000
0000FE001FC000
0001FE001FC000
0001FC003FC000
03FFFFFFFFFF80
03FFFFFFFFFF80
03FFFFFFFFFF80
03FFFFFFFFFF80
03FFFFFFFFFF80
03FFFFFFFFFF80
03FFFFFFFFFF80
0007F000FE0000
000FF000FE0000
000FE001FE0000
000FE001FC0000
001FE001FC0000
001FC003FC0000
001FC003F80000
001FC003F80000
003F8007F80000
003F8007F00000
003F8007F00000
007F000FF00000
007F000FE00000
FFFFFFFFFFC000
FFFFFFFFFFC000
FFFFFFFFFFC000
FFFFFFFFFFC000
FFFFFFFFFFC000
FFFFFFFFFFC000
FFFFFFFFFFC000
01FC003F800000
03FC007F800000
03F8007F000000
03F8007F000000
07F800FF000000
07F000FE000000
07F000FE000000
07F000FE000000
0FE001FE000000
0FE001FC000000
0FE001FC000000
1FE003FC000000
1FC003F8000000
1FC003F8000000
3FC003F8000000
3F8007F0000000
ENDCHAR
STARTCHAR dollar
ENCODING 36
SWIDTH 744 0
DWIDTH 60 0
BBX 50 58 5 0
BITMAP
000001E0000000
000001E0000000
000001E0000000
000001E0000000
000001E0000000
000001E0000000
007FFFFFFFFF00
03FFFFFFFFFF00
07FFFFFFFFFF00
1FFFFFFFFFFF00
3FFFFFFFFFFF00
3FFFFFFFFFFF00
7FFFFFFFFFFF00
7FFFFFFFFFFF00
FFE001E0000000
FFC001E0000000
FF8001E0000000
FF0001E0000000
FF0001E0000000
FF0001E0000000
FF0001E0000000
FF0001E0000000
FF8001E0000000
FFC001E0000000
7FE001E0000000
7FFFFFFFFF0000
3FFFFFFFFFE000
1FFFFFFFFFF800
0FFFFFFFFFFC00
07FFFFFFFFFE00
01FFFFFFFFFF00
007FFFFFFFFF00
000001E001FF80
000001E000FF80
000001E0007F80
000001E0003FC0
000001E0003FC0
000001E0003FC0
000001E0003FC0
000001E0003FC0
000001E0003FC0
000001E0007FC0
000001E000FF80
000001E003FF80
FFFFFFFFFFFF80
FFFFFFFFFFFF00
FFFFFFFFFFFF00
FFFFFFFFFFFE00
FFFFFFFFFFFC00
FFFFFFFFFFF800
FFFFFFFFFFE000
FFFFFFFFFF0000
000001E0000000
000001E0000000
000001E0000000
000001E0000000
000001E0000000
000001E0000000
ENDCHAR
STARTCHAR percent
ENCODING 37
SWIDTH 965 0
DWIDTH 77 0
BBX 71 67 3 -5
BITMAP
000000000000007F00
00000000000000FE00
001FF000000001FC00
007FFC00000001F800
01FFFF00000003F800
07FFFF80000007F000
0FFFFFE000000FE000
1FF01FE000001FC000
1FC007F000001F8000
3F0003F800003F8000
3E0001F800007F0000
7E0000FC0000FE0000
7C00007C0001FC0000
7C00007C0001FC0000
FC00007C0003F80000
F800007C0007F00000
F800007E000FE00000
F800007E000FC00000
F800007C001FC00000
7C00007C003F800000
7C00007C007F000000
7C0000FC00FE000000
7E0000F800FE000000
3E0001F801FC000000
3F0003F003F8000000
1FC007F007F0000000
0FF01FE007E0000000
07FFFFC00FE0000000
03FFFF801FC0000000
01FFFF003F80000000
007FFC007F00000000
000FE0007F00000000
00000000FE00000000
00000001FC000FF000
00000003F8007FFE00
00000007F001FFFF00
00000007F003FFFFC0
0000000FE007FFFFE0
0000001FC00FF01FF0
0000003F801FC003F0
0000003F003F8001F8
0000007F003F0000FC
000000FE003E0000FC
000001FC007E00007C
000003F8007C00007E
000003F8007C00007E
000007F0007C00003E
00000FE0007C00003E
00001FC0007C00003E
00003F80007C00003E
00003F80007C00007E
00007F00007C00007C
0000FE00007E00007C
0001FC00003E0000FC
0001FC00003F0000F8
0003F800001F8001F8
0007F000001FC003F0
000FE000000FF01FE0
001FC0000007FFFFE0
001FC0000003FFFF80
003F80000001FFFF00
007F000000007FFC00
00FE000000000FF000
01FC00000000000000
01FC00000000000000
03F800000000000000
07F000000000000000
ENDCHAR
STARTCHAR ampersand
ENCODING 38
SWIDTH 759 0
DWIDTH 61 0
BBX 54 58 4 0
BITMAP
0003FFFE000000
003FFFFE000000
00FFFFFE000000
03FFFFFE000000
07FFFFFE000000
0FFFFFFE000000
1FFFFFFE000000
1FFFFFFE000000
3FFFFFFE000000
3FFFFFFE000000
3FFF8000000000
7FFC0000000000
7FF80000000000
7FF00000000000
7FF00000000000
7FE00000000000
7FE00000000000
7FE00000000000
7FE00000000000
3FF00000000000
3FF00000000000
3FF80000000000
1FFC0000000000
0FFF0000000000
07FFFFFFFFFFE0
03FFFFFFFFFFE0
00FFFFFFFFFFE0
00FFFFFFFFFFE0
03FFFFFFFFFFE0
07FFFFFFFFFFE0
0FFFFFFFFFFFE0
1FFFFFFFFFFFE0
3FFF00003FF000
7FF800003FF000
7FF000003FF000
7FE000003FF000
FFE000003FF000
FFC000003FF000
FFC000003FF000
FFC000003FF000
FFC000003FF000
FFC000003FF000
FFE000003FF000
FFE000003FF000
FFF000003FF000
7FF000003FF000
7FFC00003FF000
7FFF80003FF000
3FFFFFFFFFFFFC
3FFFFFFFFFFFFC
1FFFFFFFFFFFFC
1FFFFFFFFFFFFC
0FFFFFFFFFFFFC
07FFFFFFFFFFFC
01FFFFFFFFFFFC
00FFFFFFFFFFFC
003FFFFFFFFFFC
0007FFFFFFFFFC
ENDCHAR
STARTCHAR quotesingle
ENCODING 39
SWIDTH 255 0
DWIDTH 20 0
BBX 10 21 5 37
BITMAP
FFC0
FFC0
FFC0
FFC0
FFC0
7FC0
7FC0
7FC0
7FC0
7FC0
7F80
7F80
7F80
7F80
7F80
7F80
3F80
3F80
3F80
3F80
3F00
ENDCHAR
STARTCHAR parenleft
ENCODING 40
SWIDTH 356 0
DWIDTH 28 0
BBX 15 73 8 -7
BITMAP
00FE
01FE
01FC
01FC
03F8
03F8
07F8
07F0
07F0
0FF0
0FE0
0FE0
1FC0
1FC0
1FC0
3F80
3F80
3F80
3F80
7F00
7F00
7F00
7F00
7E00
FE00
FE00
FE00
FE00
FE00
FC00
FC00
FC00
FC00
FC00
FC00
FC00
FC00
FC00
FC00
FC00
FC00
FC00
FC00
FC00
FC00
FE00
FE00
FE00
FE00
7E00
7E00
7F00
7F00
7F00
3F00
3F80
3F80
3F80
1FC0
1FC0
1FC0
0FE0
0FE0
0FE0
07F0
07F0
07F8
03F8
03F8
01FC
01FC
00FE
00FE
ENDCHAR
STARTCHAR parenright
ENCODING 41
SWIDTH 355 0
DWIDTH 28 0
BBX 16 73 5 -7
BITMAP
FF00
7F00
7F00
3F80
3F80
3FC0
1FC0
1FC0
0FE0
0FE0
0FE0
07F0
07F0
07F0
03F8
03F8
03F8
01FC
01FC
01FC
01FC
00FC
00FE
00FE
00FE
00FE
007E
007E
007F
007F
007F
007F
007F
007F
007F
007F
007F
007F
007F
007F
007F
007F
007F
007F
007F
007E
007E
00FE
00FE
00FE
00FE
00FC
01FC
01FC
01FC
01FC
03F8
03F8
03F8
07F0
07F0
07F0
0FF0
0FE0
0FE0
1FC0
1FC0
3FC0
3F80
3F80
7F00
7F00
FE00
ENDCHAR
STARTCHAR asterisk
ENCODING 42
SWIDTH 469 0
DWIDTH 38 0
BBX 27 26 5 32
BITMAP
001F0000
001F0000
001F0000
001F0000
001F0000
001F0000
001F0000
601F0040
7C1F03C0
7F9F3FE0
FFFFFFE0
FFFFFFE0
1FFFFF80
03FFF800
007FC000
007FC000
007FE000
00FFF000
01FBF000
03F1F800
03F0FC00
07E07C00
0FC07E00
0F803F00
07801C00
01001800
ENDCHAR
STARTCHAR plus
ENCODING 43
SWIDTH 690 0
DWIDTH 55 0
BBX 45 45 5 7
BITMAP
00001FC00000
00001FC00000
00001FC00000
00001FC00000
00001FC00000
00001FC00000
00001FC00000
00001FC00000
00001FC00000
00001FC00000
00001FC00000
00001FC00000
00001FC00000
00001FC00000
00001FC00000
00001FC00000
00001FC00000
00001FC00000
00001FC00000
FFFFFFFFFFF8
FFFFFFFFFFF8
FFFFFFFFFFF8
FFFFFFFFFFF8
FFFFFFFFFFF8
FFFFFFFFFFF8
FFFFFFFFFFF8
00001FC00000
00001FC00000
00001FC00000
00001FC00000
00001FC00000
00001FC00000
00001FC00000
00001FC00000
00001FC00000
00001FC00000
00001FC00000
00001FC00000
00001FC00000
00001FC00000
00001FC00000
00001FC00000
00001FC00000
00001FC00000
00001FC00000
ENDCHAR
STARTCHAR comma
ENCODING 44
SWIDTH 259 0
DWIDTH 21 0
BBX 11 21 5 -9
BITMAP
FFE0
FFC0
FFC0
FFC0
FFC0
FFC0
FF80
FF80
FF80
FF80
FF80
FF80
FF00
FF00
FF00
FF00
FF00
FE00
FE00
FE00
FE00
ENDCHAR
STARTCHAR hyphen
ENCODING 45
SWIDTH 296 0
DWIDTH 24 0
BBX 20 7 2 26
BITMAP
FFFFF0
FFFFF0
FFFFF0
FFFFF0
FFFFF0
FFFFF0
FFFFF0
ENDCHAR
STARTCHAR period
ENCODING 46
SWIDTH 262 0
DWIDTH 21 0
BBX 11 11 5 0
BITMAP
1F00
3F80
7FC0
FFE0
FFE0
FFE0
FFE0
FFE0
7FC0
3F80
1F00
ENDCHAR
STARTCHAR slash
ENCODING 47
SWIDTH 444 0
DWIDTH 36 0
BBX 34 58 1 0
BITMAP
0000001FC0
0000003F80
0000003F80
0000007F00
0000007F00
000000FE00
000000FE00
000000FC00
000001FC00
000001F800
000003F800
000003F000
000007F000
000007E000
00000FE000
00000FE000
00001FC000
00001FC000
00003F8000
00003F8000
00007F0000
00007F0000
0000FE0000
0000FE0000
0000FC0000
0001FC0000
0001F80000
0003F80000
0003F00000
0007F00000
0007F00000
000FE00000
000FE00000
001FC00000
001FC00000
003F800000
003F800000
007F000000
007F000000
00FE000000
00FE000000
01FC000000
01FC000000
01FC000000
03F8000000
03F8000000
07F0000000
07F0000000
0FE0000000
0FE0000000
1FC0000000
1FC0000000
3F80000000
3F80000000
7F00000000
7F00000000
FE00000000
FE00000000
ENDCHAR
STARTCHAR zero
ENCODING 48
SWIDTH 838 0
DWIDTH 67 0
BBX 61 58 3 0
BITMAP
0000007FF8000000
00000FFFFF800000
00003FFFFFE00000
0001FFFFFFFC0000
0003FFFFFFFE0000
000FFFFFFFFF8000
001FFFFFFFFFC000
003FFFFFFFFFE000
00FFFFFFFFFFF000
00FFFFFFFFFFF800
01FFFFC01FFFFC00
03FFFC0001FFFE00
07FFF000007FFF00
0FFFC000001FFF80
0FFF8000000FFF80
1FFF00000007FFC0
1FFE00000003FFC0
3FFC00000001FFE0
3FF800000000FFE0
3FF800000000FFE0
7FF0000000007FF0
7FF0000000007FF0
7FE0000000007FF0
7FE0000000003FF0
7FE0000000003FF0
FFE0000000003FF8
FFE0000000003FF8
FFE0000000003FF8
FFE0000000003FF8
FFE0000000003FF8
FFE0000000003FF8
7FE0000000003FF8
7FE0000000003FF0
7FE0000000003FF0
7FE0000000003FF0
7FF0000000007FF0
7FF0000000007FF0
3FF0000000007FE0
3FF800000000FFE0
3FF800000000FFE0
1FFC00000001FFC0
1FFE00000003FFC0
0FFF00000007FF80
0FFF8000000FFF80
07FFC000001FFF00
03FFF000007FFE00
03FFFC0001FFFE00
01FFFFC01FFFFC00
00FFFFFFFFFFF800
007FFFFFFFFFF000
003FFFFFFFFFE000
001FFFFFFFFFC000
0007FFFFFFFF0000
0003FFFFFFFE0000
0000FFFFFFF80000
00003FFFFFE00000
000007FFFF000000
0000007FF0000000
ENDCHAR
STARTCHAR one
ENCODING 49
SWIDTH 385 0
DWIDTH 31 0
BBX 24 58 2 0
BITMAP
FFE000
FFFC00
FFFF00
FFFF80
FFFFE0
FFFFF0
FFFFF0
FFFFF8
FFFFFC
FFFFFC
00FFFC
001FFE
000FFE
000FFE
0007FE
0007FF
0007FF
0003FF
0003FF
0003FF
0003FF
0003FF
0003FF
0003FF
0003FF
0003FF
0003FF
0003FF
0003FF
0003FF
0003FF
0003FF
0003FF
0003FF
0003FF
0003FF
0003FF
0003FF
0003FF
0003FF
0003FF
0003FF
0003FF
0003FF
0003FF
0003FF
0003FF
0003FF
0003FF
0003FF
0003FF
0003FF
0003FF
0003FF
0003FF
0003FF
0003FF
0003FF
ENDCHAR
STARTCHAR two
ENCODING 50
SWIDTH 825 0
DWIDTH 66 0
BBX 57 58 5 0
BITMAP
7FFFFFFFFFF00000
7FFFFFFFFFFE0000
7FFFFFFFFFFF8000
7FFFFFFFFFFFE000
7FFFFFFFFFFFF000
7FFFFFFFFFFFF800
7FFFFFFFFFFFFC00
7FFFFFFFFFFFFE00
7FFFFFFFFFFFFE00
7FFFFFFFFFFFFF00
00000000007FFF00
00000000000FFF00
000000000007FF00
000000000003FF80
000000000003FF80
000000000003FF80
000000000003FF80
000000000003FF80
000000000003FF80
000000000003FF80
000000000003FF00
000000000007FF00
00000000000FFF00
00000000003FFE00
000FFFFFFFFFFE00
007FFFFFFFFFFC00
01FFFFFFFFFFFC00
07FFFFFFFFFFF800
0FFFFFFFFFFFF000
1FFFFFFFFFFFE000
1FFFFFFFFFFF8000
3FFFFFFFFFFE0000
3FFFFFFFFFF00000
7FFC000000000000
7FF0000000000000
7FE0000000000000
FFC0000000000000
FFC0000000000000
FFC0000000000000
FFC0000000000000
FFC0000000000000
FFC0000000000000
FFC0000000000000
FFC0000000000000
FFC0000000000000
FFC0000000000000
FFC0000000000000
FFC0000000000000
FFFFFFFFFFFFFF00
FFFFFFFFFFFFFF00
FFFFFFFFFFFFFF00
FFFFFFFFFFFFFF00
FFFFFFFFFFFFFF00
FFFFFFFFFFFFFF00
FFFFFFFFFFFFFF00
FFFFFFFFFFFFFF00
FFFFFFFFFFFFFF00
FFFFFFFFFFFFFF00
ENDCHAR
STARTCHAR three
ENCODING 51
SWIDTH 827 0
DWIDTH 66 0
BBX 58 58 4 0
BITMAP
FFFFFFFFFFF00000
FFFFFFFFFFFF0000
FFFFFFFFFFFFC000
FFFFFFFFFFFFF000
FFFFFFFFFFFFF800
FFFFFFFFFFFFFC00
FFFFFFFFFFFFFE00
FFFFFFFFFFFFFE00
FFFFFFFFFFFFFF00
FFFFFFFFFFFFFF00
00000000007FFF80
00000000000FFF80
000000000007FF80
000000000003FF80
000000000003FF80
000000000001FF80
000000000001FF80
000000000001FF80
000000000001FF80
000000000001FF80
000000000003FF00
000000000003FF00
000000000007FE00
00000000001FFE00
0007FFFFFFFFFC00
0007FFFFFFFFF800
0007FFFFFFFFE000
0007FFFFFFFFC000
0007FFFFFFFFF000
0007FFFFFFFFF800
0007FFFFFFFFFC00
0007FFFFFFFFFE00
0007FFFFFFFFFF00
00000000001FFF80
000000000007FF80
000000000003FFC0
000000000001FFC0
000000000001FFC0
000000000000FFC0
000000000000FFC0
000000000000FFC0
000000000000FFC0
000000000000FFC0
000000000001FFC0
000000000001FFC0
000000000003FFC0
00000000000FFF80
0000000000FFFF80
FFFFFFFFFFFFFF80
FFFFFFFFFFFFFF00
FFFFFFFFFFFFFE00
FFFFFFFFFFFFFE00
FFFFFFFFFFFFFC00
FFFFFFFFFFFFF800
FFFFFFFFFFFFE000
FFFFFFFFFFFFC000
FFFFFFFFFFFF0000
FFFFFFFFFFF00000
ENDCHAR
STARTCHAR four
ENCODING 52
SWIDTH 845 0
DWIDTH 68 0
BBX 62 58 4 0
BITMAP
FFC00000001FF800
FFC00000001FF800
FFC00000001FF800
FFC00000001FF800
FFC00000001FF800
FFC00000001FF800
FFC00000001FF800
FFC00000001FF800
FFC00000001FF800
FFC00000001FF800
FFC00000001FF800
FFC00000001FF800
FFC00000001FF800
FFC00000001FF800
FFC00000001FF800
FFC00000001FF800
FFC00000001FF800
FFC00000001FF800
FFC00000001FF800
FFC00000001FF800
FFC00000001FF800
FFC00000001FF800
FFC00000001FF800
FFC00000001FF800
FFC00000001FF800
FFC00000001FF800
FFC00000001FF800
FFC00000001FF800
FFE00000001FF800
FFE00000001FF800
FFF00000001FF800
7FF80000001FF800
7FFF0000001FF800
7FFFFFFFFFFFFFFC
3FFFFFFFFFFFFFFC
3FFFFFFFFFFFFFFC
1FFFFFFFFFFFFFFC
0FFFFFFFFFFFFFFC
07FFFFFFFFFFFFFC
03FFFFFFFFFFFFFC
00FFFFFFFFFFFFFC
003FFFFFFFFFFFFC
0007FFFFFFFFFFFC
00000000001FF800
00000000001FF800
00000000001FF800
00000000001FF800
00000000001FF800
00000000001FF800
00000000001FF800
00000000001FF800
00000000001FF800
00000000001FF800
00000000001FF800
00000000001FF800
00000000001FF800
00000000001FF800
00000000001FF800
ENDCHAR
STARTCHAR five
ENCODING 53
SWIDTH 885 0
DWIDTH 71 0
BBX 62 58 5 0
BITMAP
FFFFFFFFFFFFFFE0
FFFFFFFFFFFFFFE0
FFFFFFFFFFFFFFE0
FFFFFFFFFFFFFFE0
FFFFFFFFFFFFFFE0
FFFFFFFFFFFFFFE0
FFFFFFFFFFFFFFE0
FFFFFFFFFFFFFFE0
FFFFFFFFFFFFFFE0
FFFFFFFFFFFFFFE0
FFE0000000000000
FFE0000000000000
FFE0000000000000
FFE0000000000000
FFE0000000000000
FFE0000000000000
FFE0000000000000
FFE0000000000000
FFE0000000000000
FFE0000000000000
FFE0000000000000
FFE0000000000000
FFE0000000000000
FFE0000000000000
FFFFFFFFFFFF8000
FFFFFFFFFFFFF800
FFFFFFFFFFFFFE00
FFFFFFFFFFFFFF00
FFFFFFFFFFFFFF80
FFFFFFFFFFFFFFC0
FFFFFFFFFFFFFFE0
FFFFFFFFFFFFFFF0
FFFFFFFFFFFFFFF0
000000000001FFF8
0000000000007FF8
0000000000003FF8
0000000000001FF8
0000000000000FF8
0000000000000FFC
0000000000000FFC
0000000000000FFC
0000000000000FFC
0000000000000FFC
0000000000001FF8
0000000000001FF8
0000000000003FF8
0000000000007FF8
000000000001FFF8
FFFFFFFFFFFFFFF0
FFFFFFFFFFFFFFF0
FFFFFFFFFFFFFFE0
FFFFFFFFFFFFFFE0
FFFFFFFFFFFFFFC0
FFFFFFFFFFFFFF80
FFFFFFFFFFFFFF00
FFFFFFFFFFFFFC00
FFFFFFFFFFFFF000
FFFFFFFFFFFF8000
ENDCHAR
STARTCHAR six
ENCODING 54
SWIDTH 872 0
DWIDTH 70 0
BBX 63 58 3 0
BITMAP
00000FFFFFFFFFF0
0000FFFFFFFFFFF0
0003FFFFFFFFFFF0
000FFFFFFFFFFFF0
003FFFFFFFFFFFF0
007FFFFFFFFFFFF0
00FFFFFFFFFFFFF0
01FFFFFFFFFFFFF0
03FFFFFFFFFFFFF0
07FFFFFFFFFFFFF0
07FFFE0000000000
0FFFE00000000000
1FFF800000000000
1FFF000000000000
1FFE000000000000
3FFC000000000000
3FF8000000000000
3FF8000000000000
7FF0000000000000
7FF0000000000000
7FE0000000000000
7FE0000000000000
7FE0000000000000
7FE0000000000000
FFFFFFFFFFFFC000
FFFFFFFFFFFFFC00
FFFFFFFFFFFFFF00
FFFFFFFFFFFFFF80
FFFFFFFFFFFFFFC0
FFFFFFFFFFFFFFE0
FFFFFFFFFFFFFFF0
FFFFFFFFFFFFFFF8
FFFFFFFFFFFFFFF8
7FE000000000FFFC
7FE0000000003FFC
7FE0000000001FFC
7FE0000000000FFC
7FF0000000000FFC
7FF00000000007FC
3FF00000000007FC
3FF80000000007FE
3FF80000000007FC
1FFC000000000FFC
1FFE000000000FFC
1FFF000000000FFC
0FFF800000001FFC
0FFFE00000003FFC
07FFFE000001FFF8
03FFFFFFFFFFFFF8
03FFFFFFFFFFFFF8
01FFFFFFFFFFFFF0
00FFFFFFFFFFFFE0
007FFFFFFFFFFFE0
001FFFFFFFFFFFC0
000FFFFFFFFFFF00
0003FFFFFFFFFE00
00007FFFFFFFF800
000007FFFFFFC000
ENDCHAR
STARTCHAR seven
ENCODING 55
SWIDTH 756 0
DWIDTH 60 0
BBX 55 58 4 0
BITMAP
FFFFFFFFFFFFF0
FFFFFFFFFFFFF8
FFFFFFFFFFFFFC
FFFFFFFFFFFFFE
FFFFFFFFFFFFFE
FFFFFFFFFFFFFE
FFFFFFFFFFFFFE
FFFFFFFFFFFFFC
FFFFFFFFFFFFFC
FFFFFFFFFFFFF8
0000000001FFF0
0000000001FFE0
0000000003FFE0
0000000007FFC0
000000000FFF80
000000001FFF00
000000003FFE00
000000003FFC00
000000007FFC00
00000000FFF800
00000001FFF000
00000003FFE000
00000007FFC000
00000007FF8000
0000000FFF8000
0000001FFF0000
0000003FFE0000
0000007FFC0000
0000007FF80000
000000FFF80000
000001FFF00000
000003FFE00000
000007FFC00000
00000FFF800000
00000FFF000000
00001FFF000000
00003FFE000000
00007FFC000000
0000FFF8000000
0001FFF0000000
0001FFF0000000
0003FFE0000000
0007FFC0000000
000FFF80000000
001FFF00000000
003FFE00000000
003FFE00000000
007FFC00000000
00FFF800000000
01FFF000000000
03FFE000000000
07FFE000000000
07FFC000000000
0FFF8000000000
1FFF0000000000
3FFE0000000000
7FFC0000000000
FFFC0000000000
ENDCHAR
STARTCHAR eight
ENCODING 56
SWIDTH 898 0
DWIDTH 72 0
BBX 64 58 4 0
BITMAP
0003FFFFFFFFC000
001FFFFFFFFFF800
00FFFFFFFFFFFF00
01FFFFFFFFFFFF80
07FFFFFFFFFFFFC0
0FFFFFFFFFFFFFE0
0FFFFFFFFFFFFFF0
1FFFFFFFFFFFFFF8
3FFFFFFFFFFFFFF8
3FFFFFFFFFFFFFFC
3FFFC0000003FFFC
3FFC000000007FFC
7FF8000000001FFE
7FF0000000000FFE
7FF0000000000FFE
7FF0000000000FFE
7FE0000000000FFE
7FE0000000000FFE
7FF0000000000FFC
3FF0000000000FFC
3FF0000000000FFC
3FF8000000001FF8
1FFC000000003FF8
0FFF00000000FFF0
07FFFFFFFFFFFFE0
03FFFFFFFFFFFFC0
01FFFFFFFFFFFF80
007FFFFFFFFFFE00
01FFFFFFFFFFFF80
07FFFFFFFFFFFFE0
0FFFFFFFFFFFFFF0
1FFFFFFFFFFFFFF8
3FFFFFFFFFFFFFFC
3FFE00000000FFFC
7FF8000000001FFE
7FF0000000000FFE
FFE00000000007FE
FFE00000000007FF
FFE00000000007FF
FFC00000000007FF
FFC00000000007FF
FFC00000000007FF
FFE00000000007FF
FFE00000000007FF
FFF0000000000FFE
7FF8000000001FFE
7FFC000000003FFE
7FFFC0000003FFFE
3FFFFFFFFFFFFFFC
3FFFFFFFFFFFFFFC
1FFFFFFFFFFFFFF8
0FFFFFFFFFFFFFF0
0FFFFFFFFFFFFFE0
07FFFFFFFFFFFFC0
01FFFFFFFFFFFF80
00FFFFFFFFFFFF00
003FFFFFFFFFF800
0003FFFFFFFFC000
ENDCHAR
STARTCHAR nine
ENCODING 57
SWIDTH 861 0
DWIDTH 69 0
BBX 63 58 3 0
BITMAP
0007FFFFFFC00000
003FFFFFFFFC0000
00FFFFFFFFFF8000
01FFFFFFFFFFE000
03FFFFFFFFFFF000
07FFFFFFFFFFFC00
0FFFFFFFFFFFFE00
1FFFFFFFFFFFFF00
1FFFFFFFFFFFFF00
3FFFFFFFFFFFFF80
3FFF000000FFFFC0
7FFC0000000FFFC0
7FF800000007FFE0
7FF000000001FFE0
7FE000000000FFF0
FFE0000000007FF0
FFE0000000007FF8
FFE0000000003FF8
FFE0000000003FF8
FFE0000000001FF8
FFE0000000001FFC
7FE0000000001FFC
7FE0000000000FFC
7FF0000000000FFC
7FF0000000000FFC
7FF8000000000FFC
3FFE000000000FFC
3FFFFFFFFFFFFFFC
1FFFFFFFFFFFFFFC
1FFFFFFFFFFFFFFE
0FFFFFFFFFFFFFFE
07FFFFFFFFFFFFFC
01FFFFFFFFFFFFFC
007FFFFFFFFFFFFC
000FFFFFFFFFFFFC
0000000000000FFC
0000000000000FFC
0000000000001FFC
0000000000001FFC
0000000000001FF8
0000000000003FF8
0000000000003FF8
0000000000007FF8
000000000000FFF0
000000000001FFF0
000000000003FFE0
00000000000FFFE0
0000000000FFFFC0
01FFFFFFFFFFFFC0
01FFFFFFFFFFFF80
01FFFFFFFFFFFF00
01FFFFFFFFFFFE00
01FFFFFFFFFFFC00
01FFFFFFFFFFF800
01FFFFFFFFFFE000
01FFFFFFFFFF8000
01FFFFFFFFFE0000
01FFFFFFFFE00000
ENDCHAR
STARTCHAR colon
ENCODING 58
SWIDTH 262 0
DWIDTH 21 0
BBX 11 37 5 0
BITMAP
1F00
3F80
7FC0
FFE0
FFE0
FFE0
FFE0
FFE0
7FC0
3F80
1F00
0000
0000
0000
0000
0000
0000
0000
0000
0000
0000
0000
0000
0000
0000
0000
1F00
3F80
7FC0
FFE0
FFE0
FFE0
FFE0
FFE0
7FC0
3F80
1F00
ENDCHAR
STARTCHAR semicolon
ENCODING 59
SWIDTH 262 0
DWIDTH 21 0
BBX 11 46 5 -9
BITMAP
1F00
3F80
7FC0
FFE0
FFE0
FFE0
FFE0
FFE0
7FC0
3F80
1F00
0000
0000
0000
0000
0000
0000
0000
0000
0000
0000
0000
0000
0000
0000
FFE0
FFC0
FFC0
FFC0
FFC0
FFC0
FF80
FF80
FF80
FF80
FF80
FF80
FF00
FF00
FF00
FF00
FF00
FE00
FE00
FE00
FE00
ENDCHAR
STARTCHAR less
ENCODING 60
SWIDTH 690 0
DWIDTH 55 0
BBX 45 43 5 8
BITMAP
000000000008
000000000038
0000000001F8
0000000007F8
000000003FF8
00000000FFF8
00000003FFF8
0000001FFFF8
0000007FFFC0
000003FFFE00
00000FFFF800
00003FFFC000
0001FFFF0000
0007FFF80000
003FFFE00000
00FFFF000000
03FFF8000000
1FFFE0000000
3FFF00000000
7FFC00000000
FFE000000000
FF8000000000
FFE000000000
7FFC00000000
3FFF00000000
1FFFE0000000
03FFFC000000
00FFFF000000
001FFFE00000
0007FFF80000
0001FFFF0000
00003FFFC000
00000FFFF800
000003FFFE00
0000007FFFC0
0000001FFFF0
00000003FFF8
00000000FFF8
000000003FF8
0000000007F8
0000000001F8
000000000038
000000000008
ENDCHAR
STARTCHAR equal
ENCODING 61
SWIDTH 690 0
DWIDTH 55 0
BBX 45 28 5 15
BITMAP
FFFFFFFFFFF8
FFFFFFFFFFF8
FFFFFFFFFFF8
FFFFFFFFFFF8
FFFFFFFFFFF8
FFFFFFFFFFF8
FFFFFFFFFFF8
000000000000
000000000000
000000000000
000000000000
000000000000
000000000000
000000000000
000000000000
000000000000
000000000000
000000000000
000000000000
000000000000
000000000000
FFFFFFFFFFF8
FFFFFFFFFFF8
FFFFFFFFFFF8
FFFFFFFFFFF8
FFFFFFFFFFF8
FFFFFFFFFFF8
FFFFFFFFFFF8
ENDCHAR
STARTCHAR greater
ENCODING 62
SWIDTH 690 0
DWIDTH 55 0
BBX 45 43 5 8
BITMAP
800000000000
F00000000000
FC0000000000
FF0000000000
FFE000000000
FFF800000000
FFFF00000000
7FFFC0000000
1FFFF0000000
03FFFE000000
00FFFF800000
001FFFF00000
0007FFFC0000
0000FFFF0000
00001FFFE000
000007FFF800
000000FFFF00
0000003FFFC0
00000007FFF0
00000001FFF8
000000003FF8
000000000FF8
000000003FF8
00000001FFF8
00000007FFF0
0000003FFFC0
000000FFFE00
000007FFF800
00001FFFE000
0000FFFF0000
0003FFFC0000
001FFFE00000
00FFFF800000
03FFFE000000
1FFFF0000000
7FFFC0000000
FFFF00000000
FFF800000000
FFE000000000
FF0000000000
FC0000000000
F00000000000
800000000000
ENDCHAR
STARTCHAR question
ENCODING 63
SWIDTH 776 0
DWIDTH 62 0
BBX 56 58 4 0
BITMAP
FFFFFFFFFFE000
FFFFFFFFFFFC00
FFFFFFFFFFFF00
FFFFFFFFFFFFC0
FFFFFFFFFFFFE0
FFFFFFFFFFFFF0
FFFFFFFFFFFFF8
FFFFFFFFFFFFFC
FFFFFFFFFFFFFC
FFFFFFFFFFFFFE
0000000000FFFE
00000000001FFE
00000000000FFE
000000000007FF
000000000007FF
000000000007FF
000000000007FF
000000000007FF
000000000007FF
000000000007FE
00000000000FFE
00000000001FFE
00000000007FFC
0003FFFFFFFFFC
001FFFFFFFFFF8
007FFFFFFFFFF8
00FFFFFFFFFFF0
01FFFFFFFFFFE0
03FFFFFFFFFFC0
03FFFFFFFFFF00
03FFFFFFFFFC00
07FFFFFFFFE000
07FF0000000000
07FE0000000000
07FE0000000000
07FE0000000000
07FE0000000000
07FE0000000000
07FE0000000000
00000000000000
00000000000000
00000000000000
00000000000000
00000000000000
00000000000000
00000000000000
00000000000000
00F00000000000
03FC0000000000
07FE0000000000
07FE0000000000
07FE0000000000
0FFE0000000000
07FE0000000000
07FE0000000000
07FE0000000000
03FC0000000000
01F00000000000
ENDCHAR
STARTCHAR at
ENCODING 64
SWIDTH 833 0
DWIDTH 67 0
BBX 59 58 3 0
BITMAP
000000FFFFFFFFE0
00000FFFFFFFFFE0
00007FFFFFFFFFE0
0001FFFFFFFFFFE0
0003FFFFFFFFFFE0
000FFFFFFFFFFFE0
001FFFFFFFFFFFE0
003FFF0000001FE0
007FF80000001FE0
00FFE00000001FE0
01FF800000001FE0
03FF000000001FE0
07FC000000001FE0
07F8000000001FE0
0FF8000000001FE0
0FF0000000001FE0
1FE0007FFFF01FE0
1FE001FFFFF01FE0
3FC007FFFFF01FE0
3FC00FFFFFF01FE0
3F801FFFFFF01FE0
7F801FFFFFF01FE0
7F803FE007F01FE0
7F803FC007F01FE0
7F007F8007F01FE0
7F007F0007F01FE0
FF007F0007F01FE0
FF007F0007F01FE0
FF007F0007F01FE0
FF007F0007F01FE0
FF007F0007F01FE0
FF007F0007F01FE0
FF007F0007F01FE0
7F003F8007F01FE0
7F803FC007F01FE0
7F803FF007F01FE0
7F801FFFFFFFFFE0
7F800FFFFFFFFFE0
3FC00FFFFFFFFFE0
3FC007FFFFFFFFE0
3FE001FFFFFFFFE0
1FE0007FFFFFFFE0
1FF0000000000000
0FF8000000000000
0FF8000000000000
07FC000000000000
07FF000000000000
03FF800000000000
01FFE00000000000
00FFF80000000000
007FFF0000000000
003FFFFFFFFFFFE0
001FFFFFFFFFFFE0
0007FFFFFFFFFFE0
0001FFFFFFFFFFE0
00007FFFFFFFFFE0
00001FFFFFFFFFE0
000001FFFFFFFFE0
ENDCHAR
STARTCHAR A
ENCODING 65
SWIDTH 989 0
DWIDTH 79 0
BBX 77 59 1 0
BITMAP
000000000F8000000000
000000001FC000000000
000000003FE000000000
000000007FF000000000
000000007FF000000000
00000000FFF800000000
00000000FFF800000000
00000001FFFC00000000
00000003FFFE00000000
00000003FFFE00000000
00000007FFFF00000000
00000007FFFF00000000
0000000FFFFF80000000
0000001FFFFFC0000000
0000001FFFFFC0000000
0000003FF9FFE0000000
0000003FF9FFE0000000
0000007FF0FFF0000000
000000FFF07FF8000000
000000FFE07FF8000000
000001FFC03FFC000000
000001FFC03FFC000000
000003FF801FFE000000
000007FF800FFF000000
000007FF000FFF000000
00000FFF0007FF800000
00000FFE0007FF800000
00001FFC0003FFC00000
00003FFC0001FFE00000
00003FF80001FFE00000
00007FF80000FFF00000
00007FF00000FFF00000
0000FFE000007FF80000
0001FFE000003FFC0000
0001FFC000003FFC0000
0003FFC000001FFE0000
0003FF807FFFFFFE0000
0007FF00FFFFFFFF0000
000FFF00FFFFFFFF8000
000FFE01FFFFFFFF8000
001FFE01FFFFFFFFC000
001FFC03FFFFFFFFC000
003FF807FFFFFFFFE000
007FF80FFFFFFFFFF000
007FF000000000FFF000
00FFF0000000007FF800
00FFE0000000007FF800
01FFE0000000003FFC00
03FFC0000000001FFE00
03FF80000000001FFE00
07FF80000000000FFF00
07FF00000000000FFF00
0FFF000000000007FF80
1FFE000000000007FFC0
1FFC000000000003FFC0
3FFC000000000001FFE0
3FF8000000000001FFE0
7FF8000000000000FFF0
FFF0000000000000FFF8
ENDCHAR
STARTCHAR B
ENCODING 66
SWIDTH 891 0
DWIDTH 71 0
BBX 62 58 5 0
BITMAP
FFFFFFFFFFFF0000
FFFFFFFFFFFFF000
FFFFFFFFFFFFFC00
FFFFFFFFFFFFFF00
FFFFFFFFFFFFFF80
FFFFFFFFFFFFFFC0
FFFFFFFFFFFFFFE0
FFFFFFFFFFFFFFF0
FFFFFFFFFFFFFFF0
FFFFFFFFFFFFFFF0
FFC00000000FFFF8
FFC000000000FFF8
FFC0000000007FF8
FFC0000000003FF8
FFC0000000001FF8
FFC0000000001FF8
FFC0000000001FF8
FFC0000000001FF8
FFC0000000001FF8
FFC0000000001FF8
FFC0000000003FF8
FFC0000000003FF0
FFC0000000007FF0
FFC000000001FFE0
FFC07FFFFFFFFFC0
FFC07FFFFFFFFF80
FFC07FFFFFFFFE00
FFC07FFFFFFFFC00
FFC07FFFFFFFFF00
FFC07FFFFFFFFF80
FFC07FFFFFFFFFE0
FFC07FFFFFFFFFE0
FFC07FFFFFFFFFF0
FFC000000001FFF8
FFC0000000007FF8
FFC0000000003FFC
FFC0000000001FFC
FFC0000000000FFC
FFC0000000000FFC
FFC0000000000FFC
FFC0000000000FFC
FFC0000000000FFC
FFC0000000000FFC
FFC0000000001FFC
FFC0000000001FFC
FFC0000000003FFC
FFC000000000FFFC
FFC00000000FFFF8
FFFFFFFFFFFFFFF8
FFFFFFFFFFFFFFF0
FFFFFFFFFFFFFFF0
FFFFFFFFFFFFFFE0
FFFFFFFFFFFFFFC0
FFFFFFFFFFFFFF80
FFFFFFFFFFFFFF00
FFFFFFFFFFFFFC00
FFFFFFFFFFFFF000
FFFFFFFFFFFF8000
ENDCHAR
STARTCHAR C
ENCODING 67
SWIDTH 829 0
DWIDTH 66 0
BBX 60 58 3 0
BITMAP
000001FFFFFFFFF0
00001FFFFFFFFFF0
0000FFFFFFFFFFF0
0003FFFFFFFFFFF0
000FFFFFFFFFFFF0
001FFFFFFFFFFFF0
003FFFFFFFFFFFF0
007FFFFFFFFFFFF0
00FFFFFFFFFFFFF0
01FFFFFFFFFFFFF0
03FFFF8000000000
07FFF80000000000
07FFE00000000000
0FFFC00000000000
1FFF800000000000
1FFF000000000000
1FFE000000000000
3FFC000000000000
3FF8000000000000
3FF8000000000000
7FF0000000000000
7FF0000000000000
7FE0000000000000
7FE0000000000000
7FE0000000000000
FFE0000000000000
FFE0000000000000
FFE0000000000000
FFE0000000000000
FFE0000000000000
FFE0000000000000
FFE0000000000000
7FE0000000000000
7FE0000000000000
7FE0000000000000
7FF0000000000000
7FF0000000000000
3FF0000000000000
3FF8000000000000
3FF8000000000000
1FFC000000000000
1FFE000000000000
1FFF000000000000
0FFF800000000000
07FFC00000000000
07FFF00000000000
03FFFC0000000000
01FFFF8000000000
01FFFFFFFFFFFFF0
00FFFFFFFFFFFFF0
007FFFFFFFFFFFF0
001FFFFFFFFFFFF0
000FFFFFFFFFFFF0
0007FFFFFFFFFFF0
0001FFFFFFFFFFF0
00007FFFFFFFFFF0
00001FFFFFFFFFF0
000001FFFFFFFFF0
ENDCHAR
STARTCHAR D
ENCODING 68
SWIDTH 879 0
DWIDTH 70 0
BBX 62 58 5 0
BITMAP
FFFFFFFFFF000000
FFFFFFFFFFF00000
FFFFFFFFFFFC0000
FFFFFFFFFFFF0000
FFFFFFFFFFFFC000
FFFFFFFFFFFFE000
FFFFFFFFFFFFF800
FFFFFFFFFFFFFC00
FFFFFFFFFFFFFE00
FFFFFFFFFFFFFE00
FFC0000007FFFF00
FFC00000007FFF80
FFC00000001FFFC0
FFC00000000FFFC0
FFC000000003FFE0
FFC000000001FFE0
FFC000000000FFF0
FFC000000000FFF0
FFC0000000007FF8
FFC0000000003FF8
FFC0000000003FF8
FFC0000000001FF8
FFC0000000001FFC
FFC0000000001FFC
FFC0000000001FFC
FFC0000000000FFC
FFC0000000000FFC
FFC0000000000FFC
FFC0000000000FFC
FFC0000000000FFC
FFC0000000000FFC
FFC0000000000FFC
FFC0000000000FFC
FFC0000000001FFC
FFC0000000001FFC
FFC0000000001FF8
FFC0000000003FF8
FFC0000000003FF8
FFC0000000003FF0
FFC0000000007FF0
FFC000000000FFF0
FFC000000000FFE0
FFC000000001FFE0
FFC000000003FFC0
FFC00000000FFFC0
FFC00000001FFF80
FFC00000007FFF00
FFC0000007FFFF00
FFFFFFFFFFFFFE00
FFFFFFFFFFFFFC00
FFFFFFFFFFFFF800
FFFFFFFFFFFFF000
FFFFFFFFFFFFE000
FFFFFFFFFFFF8000
FFFFFFFFFFFF0000
FFFFFFFFFFFC0000
FFFFFFFFFFE00000
FFFFFFFFFE000000
ENDCHAR
STARTCHAR E
ENCODING 69
SWIDTH 759 0
DWIDTH 61 0
BBX 52 58 5 0
BITMAP
FFFFFFFFFFFFF0
FFFFFFFFFFFFF0
FFFFFFFFFFFFF0
FFFFFFFFFFFFF0
FFFFFFFFFFFFF0
FFFFFFFFFFFFF0
FFFFFFFFFFFFF0
FFFFFFFFFFFFF0
FFFFFFFFFFFFF0
FFFFFFFFFFFFF0
FFC00000000000
FFC00000000000
FFC00000000000
FFC00000000000
FFC00000000000
FFC00000000000
FFC00000000000
FFC00000000000
FFC00000000000
FFC00000000000
FFC00000000000
FFC00000000000
FFC00000000000
FFC00000000000
FFC03FFFFFFFC0
FFC03FFFFFFFC0
FFC03FFFFFFFC0
FFC03FFFFFFFC0
FFC03FFFFFFFC0
FFC03FFFFFFFC0
FFC03FFFFFFFC0
FFC03FFFFFFFC0
FFC03FFFFFFFC0
FFC00000000000
FFC00000000000
FFC00000000000
FFC00000000000
FFC00000000000
FFC00000000000
FFC00000000000
FFC00000000000
FFC00000000000
FFC00000000000
FFC00000000000
FFC00000000000
FFC00000000000
FFC00000000000
FFC00000000000
FFFFFFFFFFFFF0
FFFFFFFFFFFFF0
FFFFFFFFFFFFF0
FFFFFFFFFFFFF0
FFFFFFFFFFFFF0
FFFFFFFFFFFFF0
FFFFFFFFFFFFF0
FFFFFFFFFFFFF0
FFFFFFFFFFFFF0
FFFFFFFFFFFFF0
ENDCHAR
STARTCHAR F
ENCODING 70
SWIDTH 705 0
DWIDTH 56 0
BBX 49 58 5 0
BITMAP
FFFFFFFFFFFF80
FFFFFFFFFFFF80
FFFFFFFFFFFF80
FFFFFFFFFFFF80
FFFFFFFFFFFF80
FFFFFFFFFFFF80
FFFFFFFFFFFF80
FFFFFFFFFFFF80
FFFFFFFFFFFF80
FFFFFFFFFFFF80
FFC00000000000
FFC00000000000
FFC00000000000
FFC00000000000
FFC00000000000
FFC00000000000
FFC00000000000
FFC00000000000
FFC00000000000
FFC00000000000
FFC00000000000
FFC00000000000
FFC00000000000
FFC00000000000
FFC00000000000
FFC03FFFFFFE00
FFC03FFFFFFE00
FFC03FFFFFFE00
FFC03FFFFFFE00
FFC03FFFFFFE00
FFC03FFFFFFE00
FFC03FFFFFFE00
FFC03FFFFFFE00
FFC03FFFFFFE00
FFC00000000000
FFC00000000000
FFC00000000000
FFC00000000000
FFC00000000000
FFC00000000000
FFC00000000000
FFC00000000000
FFC00000000000
FFC00000000000
FFC00000000000
FFC00000000000
FFC00000000000
FFC00000000000
FFC00000000000
FFC00000000000
FFC00000000000
FFC00000000000
FFC00000000000
FFC00000000000
FFC00000000000
FFC00000000000
FFC00000000000
FFC00000000000
ENDCHAR
STARTCHAR G
ENCODING 71
SWIDTH 888 0
DWIDTH 71 0
BBX 64 58 3 0
BITMAP
000001FFFFFFFFF0
00001FFFFFFFFFF0
0000FFFFFFFFFFF0
0003FFFFFFFFFFF0
000FFFFFFFFFFFF0
001FFFFFFFFFFFF0
003FFFFFFFFFFFF0
007FFFFFFFFFFFF0
00FFFFFFFFFFFFF0
01FFFFFFFFFFFFF0
03FFFF8000000000
07FFF80000000000
07FFE00000000000
0FFFC00000000000
1FFF800000000000
1FFF000000000000
1FFE000000000000
3FFC000000000000
3FF8000000000000
3FF8000000000000
7FF0000000000000
7FF0000000000000
7FE0000000000000
7FE0000000000000
7FE0001FFFFFFFFF
FFE0001FFFFFFFFF
FFE0001FFFFFFFFF
FFE0001FFFFFFFFF
FFE0001FFFFFFFFF
FFE0001FFFFFFFFF
FFE0001FFFFFFFFF
FFE0001FFFFFFFFF
7FE0001FFFFFFFFF
7FE00000000007FF
7FE00000000007FF
7FF00000000007FF
7FF00000000007FF
3FF00000000007FF
3FF80000000007FF
3FF80000000007FF
1FFC0000000007FF
1FFE0000000007FF
1FFF0000000007FF
0FFF8000000007FF
07FFC000000007FF
07FFF000000007FF
03FFFC00000007FF
01FFFF80000007FF
01FFFFFFFFFFFFFF
00FFFFFFFFFFFFFF
007FFFFFFFFFFFFF
001FFFFFFFFFFFFF
000FFFFFFFFFFFFF
0007FFFFFFFFFFFF
0001FFFFFFFFFFFF
00007FFFFFFFFFFF
00001FFFFFFFFFFF
000001FFFFFFFFFF
ENDCHAR
STARTCHAR H
ENCODING 72
SWIDTH 838 0
DWIDTH 67 0
BBX 57 58 5 0
BITMAP
FFC000000001FF80
FFC000000001FF80
FFC000000001FF80
FFC000000001FF80
FFC000000001FF80
FFC000000001FF80
FFC000000001FF80
FFC000000001FF80
FFC000000001FF80
FFC000000001FF80
FFC000000001FF80
FFC000000001FF80
FFC000000001FF80
FFC000000001FF80
FFC000000001FF80
FFC000000001FF80
FFC000000001FF80
FFC000000001FF80
FFC000000001FF80
FFC000000001FF80
FFC000000001FF80
FFC000000001FF80
FFC000000001FF80
FFC000000001FF80
FFC03FFFFFFFFF80
FFC03FFFFFFFFF80
FFC03FFFFFFFFF80
FFC03FFFFFFFFF80
FFC03FFFFFFFFF80
FFC03FFFFFFFFF80
FFC03FFFFFFFFF80
FFC03FFFFFFFFF80
FFC03FFFFFFFFF80
FFC000000001FF80
FFC000000001FF80
FFC000000001FF80
FFC000000001FF80
FFC000000001FF80
FFC000000001FF80
FFC000000001FF80
FFC000000001FF80
FFC000000001FF80
FFC000000001FF80
FFC000000001FF80
FFC000000001FF80
FFC000000001FF80
FFC000000001FF80
FFC000000001FF80
FFC000000001FF80
FFC000000001FF80
FFC000000001FF80
FFC000000001FF80
FFC000000001FF80
FFC000000001FF80
FFC000000001FF80
FFC000000001FF80
FFC000000001FF80
FFC000000001FF80
ENDCHAR
STARTCHAR I
ENCODING 73
SWIDTH 267 0
DWIDTH 21 0
BBX 10 58 6 0
BITMAP
FFC0
FFC0
FFC0
FFC0
FFC0
FFC0
FFC0
FFC0
FFC0
FFC0
FFC0
FFC0
FFC0
FFC0
FFC0
FFC0
FFC0
FFC0
FFC0
FFC0
FFC0
FFC0
FFC0
FFC0
FFC0
FFC0
FFC0
FFC0
FFC0
FFC0
FFC0
FFC0
FFC0
FFC0
FFC0
FFC0
FFC0
FFC0
FFC0
FFC0
FFC0
FFC0
FFC0
FFC0
FFC0
FFC0
FFC0
FFC0
FFC0
FFC0
FFC0
FFC0
FFC0
FFC0
FFC0
FFC0
FFC0
FFC0
ENDCHAR
STARTCHAR J
ENCODING 74
SWIDTH 708 0
DWIDTH 57 0
BBX 50 58 2 0
BITMAP
0000000000FFC0
0000000000FFC0
0000000000FFC0
0000000000FFC0
0000000000FFC0
0000000000FFC0
0000000000FFC0
0000000000FFC0
0000000000FFC0
0000000000FFC0
0000000000FFC0
0000000000FFC0
0000000000FFC0
0000000000FFC0
0000000000FFC0
0000000000FFC0
0000000000FFC0
0000000000FFC0
0000000000FFC0
0000000000FFC0
0000000000FFC0
0000000000FFC0
0000000000FFC0
0000000000FFC0
0000000000FFC0
0000000000FFC0
0000000000FFC0
0000000000FFC0
0000000000FFC0
0000000000FFC0
0000000000FFC0
0000000000FFC0
0000000000FFC0
0000000000FFC0
0000000000FFC0
0000000000FFC0
0000000000FFC0
0000000000FFC0
0000000001FFC0
0000000001FFC0
0000000003FFC0
0000000003FF80
0000000007FF80
000000000FFF80
000000001FFF00
000000003FFF00
00000001FFFE00
0000001FFFFE00
FFFFFFFFFFFC00
FFFFFFFFFFF800
FFFFFFFFFFF000
FFFFFFFFFFE000
FFFFFFFFFFC000
FFFFFFFFFF8000
FFFFFFFFFE0000
FFFFFFFFF80000
FFFFFFFFC00000
FFFFFFF8000000
ENDCHAR
STARTCHAR K
ENCODING 75
SWIDTH 875 0
DWIDTH 70 0
BBX 63 58 5 0
BITMAP
FFC000000003FFFC
FFC000000007FFF0
FFC00000001FFFE0
FFC00000003FFFC0
FFC00000007FFF00
FFC0000001FFFE00
FFC0000003FFFC00
FFC0000007FFF000
FFC000000FFFE000
FFC000003FFFC000
FFC000007FFF0000
FFC00000FFFE0000
FFC00003FFFC0000
FFC00007FFF00000
FFC0000FFFE00000
FFC0003FFFC00000
FFC0007FFF000000
FFC000FFFE000000
FFC001FFFC000000
FFC007FFF8000000
FFC00FFFE0000000
FFC01FFFC0000000
FFC07FFF80000000
FFC0FFFE00000000
FFC1FFFC00000000
FFC3FFF800000000
FFC3FFE000000000
FFC7FFC000000000
FFC7FF8000000000
FFC7FF8000000000
FFC3FFE000000000
FFC3FFF000000000
FFC1FFF800000000
FFC07FFE00000000
FFC03FFF00000000
FFC01FFF80000000
FFC007FFE0000000
FFC003FFF0000000
FFC001FFF8000000
FFC000FFFE000000
FFC0003FFF000000
FFC0001FFF800000
FFC0000FFFE00000
FFC00007FFF00000
FFC00001FFF80000
FFC00000FFFE0000
FFC000007FFF0000
FFC000001FFF8000
FFC000000FFFE000
FFC0000007FFF000
FFC0000003FFF800
FFC0000000FFFE00
FFC00000007FFF00
FFC00000003FFF80
FFC00000001FFFE0
FFC000000007FFF0
FFC000000003FFF8
FFC000000001FFFE
ENDCHAR
STARTCHAR L
ENCODING 76
SWIDTH 707 0
DWIDTH 57 0
BBX 49 58 5 0
BITMAP
FFC00000000000
FFC00000000000
FFC00000000000
FFC00000000000
FFC00000000000
FFC00000000000
FFC00000000000
FFC00000000000
FFC00000000000
FFC00000000000
FFC00000000000
FFC00000000000
FFC00000000000
FFC00000000000
FFC00000000000
FFC00000000000
FFC00000000000
FFC00000000000
FFC00000000000
FFC00000000000
FFC00000000000
FFC00000000000
FFC00000000000
FFC00000000000
FFC00000000000
FFC00000000000
FFC00000000000
FFC00000000000
FFC00000000000
FFC00000000000
FFC00000000000
FFC00000000000
FFC00000000000
FFC00000000000
FFC00000000000
FFC00000000000
FFC00000000000
FFC00000000000
FFC00000000000
FFC00000000000
FFC00000000000
FFC00000000000
FFC00000000000
FFC00000000000
FFC00000000000
FFC00000000000
FFC00000000000
FFC00000000000
FFFFFFFFFFFF80
FFFFFFFFFFFF80
FFFFFFFFFFFF80
FFFFFFFFFFFF80
FFFFFFFFFFFF80
FFFFFFFFFFFF80
FFFFFFFFFFFF80
FFFFFFFFFFFF80
FFFFFFFFFFFF80
FFFFFFFFFFFF80
ENDCHAR
STARTCHAR M
ENCODING 77
SWIDTH 1115 0
DWIDTH 89 0
BBX 86 59 2 -1
BITMAP
00003C0000000001F00000
0000FF0000000003F80000
0001FF8000000007FC0000
0001FF8000000007FC0000
0001FFC00000000FFE0000
0003FFC00000000FFE0000
0003FFC00000001FFE0000
0003FFE00000001FFF0000
0003FFE00000001FFF0000
0007FFF00000003FFF0000
0007FFF00000003FFF0000
0007FFF80000007FFF8000
0007FFF80000007FFF8000
000FFFFC000000FFFF8000
000FFFFC000000FFFFC000
000FFFFC000000FFFFC000
001FFFFE000001FFFFC000
001FFFFE000001FFFFC000
001FFFFF000003FFFFE000
001FFBFF000003FF7FE000
003FF3FF800007FE7FE000
003FF1FF800007FE7FE000
003FF1FF80000FFC3FF000
007FF0FFC0000FFC3FF000
007FE0FFC0000FF83FF000
007FE0FFE0001FF83FF800
007FE07FE0001FF81FF800
00FFC07FF0003FF01FF800
00FFC03FF0003FF01FF800
00FFC03FF8007FE00FFC00
00FFC01FF8007FE00FFC00
01FF801FF800FFC00FFC00
01FF801FFC00FFC00FFC00
01FF800FFC00FF8007FE00
03FF000FFE01FF8007FE00
03FF0007FE01FF8007FE00
03FF0007FF03FF0007FF00
03FF0003FF03FF0003FF00
07FE0003FF87FE0003FF00
07FE0001FF87FE0003FF00
07FE0001FF8FFC0001FF80
0FFE0001FFCFFC0001FF80
0FFC0000FFCFF80001FF80
0FFC0000FFFFF80001FFC0
0FFC00007FFFF80000FFC0
1FF800007FFFF00000FFC0
1FF800003FFFF00000FFC0
1FF800003FFFE000007FE0
1FF800003FFFE000007FE0
3FF000001FFFC000007FE0
3FF000001FFFC000007FE0
3FF000000FFF8000003FF0
7FE000000FFF8000003FF0
7FE0000007FF8000003FF0
7FE0000007FF0000003FF8
7FE0000003FF0000001FF8
FFC0000003FE0000001FF8
FFC0000001FC0000001FFC
0000000000F80000000000
ENDCHAR
STARTCHAR N
ENCODING 78
SWIDTH 873 0
DWIDTH 70 0
BBX 60 58 5 0
BITMAP
1E00000000003FF0
7F80000000003FF0
7FC0000000003FF0
FFE0000000003FF0
FFF0000000003FF0
FFF8000000003FF0
FFFC000000003FF0
FFFE000000003FF0
FFFF000000003FF0
FFFF800000003FF0
FFFFC00000003FF0
FFFFE00000003FF0
FFFFF00000003FF0
FFFFF80000003FF0
FFFFFC0000003FF0
FFFFFE0000003FF0
FFBFFF0000003FF0
FF9FFF8000003FF0
FF8FFFC000003FF0
FF87FFE000003FF0
FF83FFF000003FF0
FF81FFF800003FF0
FF80FFFC00003FF0
FF807FFE00003FF0
FF803FFF00003FF0
FF801FFF80003FF0
FF800FFFC0003FF0
FF8007FFE0003FF0
FF8003FFF0003FF0
FF8001FFF8003FF0
FF8000FFFC003FF0
FF80007FFE003FF0
FF80003FFF003FF0
FF80001FFF803FF0
FF80000FFFC03FF0
FF800007FFF03FF0
FF800003FFF83FF0
FF800001FFFC3FF0
FF800000FFFE3FF0
FF8000007FFF3FF0
FF8000003FFFBFF0
FF8000000FFFFFF0
FF80000007FFFFF0
FF80000003FFFFF0
FF80000001FFFFF0
FF80000000FFFFF0
FF800000007FFFF0
FF800000003FFFF0
FF800000001FFFF0
FF800000000FFFF0
FF8000000007FFF0
FF8000000003FFF0
FF8000000001FFF0
FF8000000000FFF0
FF80000000007FF0
FF80000000003FE0
FF80000000001FE0
FF80000000000780
ENDCHAR
STARTCHAR O
ENCODING 79
SWIDTH 968 0
DWIDTH 77 0
BBX 71 58 3 0
BITMAP
000001FFFFFF800000
00001FFFFFFFF80000
0000FFFFFFFFFE0000
0003FFFFFFFFFF8000
000FFFFFFFFFFFE000
001FFFFFFFFFFFF800
003FFFFFFFFFFFFC00
007FFFFFFFFFFFFE00
00FFFFFFFFFFFFFF00
01FFFFFFFFFFFFFF80
03FFFF800003FFFFC0
07FFF80000003FFFC0
07FFE00000000FFFE0
0FFFC000000003FFF0
1FFF8000000001FFF0
1FFF0000000000FFF8
1FFE00000000007FF8
3FFC00000000003FF8
3FF800000000003FFC
3FF800000000001FFC
7FF000000000001FFC
7FF000000000000FFE
7FE000000000000FFE
7FE000000000000FFE
7FE0000000000007FE
FFE0000000000007FE
FFE0000000000007FE
FFE0000000000007FE
FFE0000000000007FE
FFE0000000000007FE
FFE0000000000007FE
FFE0000000000007FE
7FE0000000000007FE
7FE0000000000007FE
7FE000000000000FFE
7FF000000000000FFC
7FF000000000000FFC
3FF000000000001FFC
3FF800000000001FFC
3FF800000000003FF8
1FFC00000000003FF8
1FFE00000000007FF8
1FFF0000000000FFF0
0FFF8000000001FFF0
07FFC000000003FFE0
07FFF00000000FFFC0
03FFFC0000003FFFC0
01FFFF800001FFFF80
01FFFFFFFFFFFFFF00
00FFFFFFFFFFFFFE00
007FFFFFFFFFFFFC00
001FFFFFFFFFFFF800
000FFFFFFFFFFFF000
0007FFFFFFFFFFC000
0001FFFFFFFFFF8000
00007FFFFFFFFE0000
00001FFFFFFFF00000
000001FFFFFF000000
ENDCHAR
STARTCHAR P
ENCODING 80
SWIDTH 867 0
DWIDTH 69 0
BBX 62 58 5 0
BITMAP
FFFFFFFFFFFC0000
FFFFFFFFFFFFC000
FFFFFFFFFFFFF000
FFFFFFFFFFFFFC00
FFFFFFFFFFFFFE00
FFFFFFFFFFFFFF00
FFFFFFFFFFFFFF80
FFFFFFFFFFFFFFC0
FFFFFFFFFFFFFFE0
FFFFFFFFFFFFFFF0
FFC00000000FFFF0
FFC000000001FFF0
FFC0000000007FF8
FFC0000000003FF8
FFC0000000003FF8
FFC0000000001FFC
FFC0000000000FFC
FFC0000000000FFC
FFC0000000000FFC
FFC0000000000FFC
FFC0000000000FFC
FFC0000000000FFC
FFC0000000000FFC
FFC0000000000FFC
FFC0000000000FFC
FFC0000000001FFC
FFC0000000001FFC
FFC0000000003FF8
FFC0000000003FF8
FFC0000000007FF8
FFC000000001FFF0
FFC00000000FFFF0
FFC03FFFFFFFFFE0
FFC03FFFFFFFFFE0
FFC03FFFFFFFFFC0
FFC03FFFFFFFFF80
FFC03FFFFFFFFF00
FFC03FFFFFFFFE00
FFC03FFFFFFFFC00
FFC03FFFFFFFF000
FFC03FFFFFFFC000
FFC03FFFFFFC0000
FFC0000000000000
FFC0000000000000
FFC0000000000000
FFC0000000000000
FFC0000000000000
FFC0000000000000
FFC0000000000000
FFC0000000000000
FFC0000000000000
FFC0000000000000
FFC0000000000000
FFC0000000000000
FFC0000000000000
FFC0000000000000
FFC0000000000000
FFC0000000000000
ENDCHAR
STARTCHAR Q
ENCODING 81
SWIDTH 968 0
DWIDTH 77 0
BBX 74 58 3 0
BITMAP
000001FFFFFF80000000
00001FFFFFFFF8000000
0000FFFFFFFFFE000000
0003FFFFFFFFFF800000
000FFFFFFFFFFFE00000
001FFFFFFFFFFFF80000
003FFFFFFFFFFFFC0000
007FFFFFFFFFFFFE0000
00FFFFFFFFFFFFFF0000
01FFFFFFFFFFFFFF8000
03FFFF800003FFFFC000
07FFF80000003FFFC000
07FFE00000000FFFE000
0FFFC000000003FFF000
1FFF8000000001FFF000
1FFF0000000000FFF800
1FFE00000000007FF800
3FFC00000000003FF800
3FF800000000003FFC00
3FF800000000001FFC00
7FF000000000001FFC00
7FF000000000000FFE00
7FE000000000000FFE00
7FE000000000000FFE00
7FE0000000000007FE00
FFE0000000000007FE00
FFE0000000000007FE00
FFE0000000000007FE00
FFE0000000000007FE00
FFE0000000000007FE00
FFE0000000000007FE00
FFE0000000000007FE00
7FE0000000000007FE00
7FE0000000000007FE00
7FE00001FFF8000FFE00
7FF000007FFC000FFE00
7FF000003FFE000FFC00
3FF000001FFF801FFC00
3FF8000007FFC01FFC00
3FF8000003FFE03FF800
1FFC000001FFF03FF800
1FFE000000FFF87FF800
1FFF0000003FFCFFF000
0FFF8000001FFFFFF000
07FFC000000FFFFFE000
07FFF0000003FFFFC000
03FFFC000001FFFFC000
01FFFF800003FFFF8000
01FFFFFFFFFFFFFF0000
00FFFFFFFFFFFFFE0000
007FFFFFFFFFFFFF0000
001FFFFFFFFFFFFFC000
000FFFFFFFFFFFFFE000
0007FFFFFFFFFFFFF000
0001FFFFFFFFFFFFFC00
00007FFFFFFFFE3FFE00
00001FFFFFFFF01FFF00
000001FFFFFF000FFFC0
ENDCHAR
STARTCHAR R
ENCODING 82
SWIDTH 921 0
DWIDTH 74 0
BBX 68 58 5 0
BITMAP
FFFFFFFFFFFE000000
FFFFFFFFFFFFE00000
FFFFFFFFFFFFF80000
FFFFFFFFFFFFFE0000
FFFFFFFFFFFFFF0000
FFFFFFFFFFFFFF8000
FFFFFFFFFFFFFFC000
FFFFFFFFFFFFFFE000
FFFFFFFFFFFFFFF000
FFFFFFFFFFFFFFF000
FFC000000007FFF800
FFC000000000FFF800
FFC0000000003FFC00
FFC0000000001FFC00
FFC0000000001FFC00
FFC0000000000FFC00
FFC0000000000FFE00
FFC0000000000FFE00
FFC00000000007FE00
FFC00000000007FE00
FFC00000000007FE00
FFC00000000007FE00
FFC00000000007FE00
FFC00000000007FE00
FFC00000000007FE00
FFC0000000000FFE00
FFC0000000000FFC00
FFC0000000000FFC00
FFC0000000001FFC00
FFC0000000001FFC00
FFC0000000003FF800
FFC000000000FFF800
FFC000000003FFF000
FFC03FFFFFFFFFF000
FFC03FFFFFFFFFE000
FFC03FFFFFFFFFC000
FFC03FFFFFFFFF8000
FFC03FFFFFFFFF0000
FFC03FFFFFFFFE0000
FFC03FFFFFFFF80000
FFC03FFFFFFFE00000
FFC03FFFFFFFF00000
FFC0000000FFF80000
FFC00000007FFC0000
FFC00000003FFE0000
FFC00000001FFF0000
FFC00000001FFF8000
FFC00000000FFFC000
FFC000000007FFE000
FFC000000003FFF000
FFC000000001FFF800
FFC000000000FFFC00
FFC0000000007FFE00
FFC0000000003FFF00
FFC0000000001FFF80
FFC0000000000FFFC0
FFC00000000007FFE0
FFC00000000003FFF0
ENDCHAR
STARTCHAR S
ENCODING 83
SWIDTH 880 0
DWIDTH 70 0
BBX 63 58 4 0
BITMAP
0007FFFFFFFFFFF0
003FFFFFFFFFFFF0
00FFFFFFFFFFFFF0
03FFFFFFFFFFFFF0
07FFFFFFFFFFFFF0
0FFFFFFFFFFFFFF0
1FFFFFFFFFFFFFF0
3FFFFFFFFFFFFFF0
3FFFFFFFFFFFFFF0
7FFFFFFFFFFFFFF0
7FFF000000000000
7FF8000000000000
7FF0000000000000
FFE0000000000000
FFE0000000000000
FFE0000000000000
FFE0000000000000
FFE0000000000000
FFE0000000000000
FFE0000000000000
7FE0000000000000
7FF0000000000000
7FF8000000000000
3FFE000000000000
3FFFFFFFFFFFC000
1FFFFFFFFFFFFC00
1FFFFFFFFFFFFF00
0FFFFFFFFFFFFF80
07FFFFFFFFFFFFC0
03FFFFFFFFFFFFE0
00FFFFFFFFFFFFF0
003FFFFFFFFFFFF8
0007FFFFFFFFFFF8
000000000000FFFC
0000000000003FFC
0000000000000FFC
0000000000000FFC
00000000000007FE
00000000000007FE
00000000000007FE
00000000000007FE
00000000000007FE
00000000000007FE
00000000000007FE
0000000000000FFC
0000000000001FFC
0000000000003FFC
000000000000FFFC
7FFFFFFFFFFFFFF8
7FFFFFFFFFFFFFF8
7FFFFFFFFFFFFFF0
7FFFFFFFFFFFFFF0
7FFFFFFFFFFFFFE0
7FFFFFFFFFFFFFC0
7FFFFFFFFFFFFF80
7FFFFFFFFFFFFE00
7FFFFFFFFFFFF800
7FFFFFFFFFFFC000
ENDCHAR
STARTCHAR T
ENCODING 84
SWIDTH 720 0
DWIDTH 58 0
BBX 54 58 2 0
BITMAP
FFFFFFFFFFFFFC
FFFFFFFFFFFFFC
FFFFFFFFFFFFFC
FFFFFFFFFFFFFC
FFFFFFFFFFFFFC
FFFFFFFFFFFFFC
FFFFFFFFFFFFFC
FFFFFFFFFFFFFC
FFFFFFFFFFFFFC
FFFFFFFFFFFFFC
000003FF000000
000003FF000000
000003FF000000
000003FF000000
000003FF000000
000003FF000000
000003FF000000
000003FF000000
000003FF000000
000003FF000000
000003FF000000
000003FF000000
000003FF000000
000003FF000000
000003FF000000
000003FF000000
000003FF000000
000003FF000000
000003FF000000
000003FF000000
000003FF000000
000003FF000000
000003FF000000
000003FF000000
000003FF000000
000003FF000000
000003FF000000
000003FF000000
000003FF000000
000003FF000000
000003FF000000
000003FF000000
000003FF000000
000003FF000000
000003FF000000
000003FF000000
000003FF000000
000003FF000000
000003FF000000
000003FF000000
000003FF000000
000003FF000000
000003FF000000
000003FF000000
000003FF000000
000003FF000000
000003FF000000
000003FF000000
ENDCHAR
STARTCHAR U
ENCODING 85
SWIDTH 889 0
DWIDTH 71 0
BBX 63 59 4 -1
BITMAP
FFE00000000007FE
FFE00000000007FE
FFE00000000007FE
FFE00000000007FE
FFE00000000007FE
FFE00000000007FE
FFE00000000007FE
FFE00000000007FE
FFE00000000007FE
FFE00000000007FE
FFE00000000007FE
FFE00000000007FE
FFE00000000007FE
FFE00000000007FE
FFE00000000007FE
FFE00000000007FE
FFE00000000007FE
FFE00000000007FE
FFE00000000007FE
FFE00000000007FE
FFE00000000007FE
FFE00000000007FE
FFE00000000007FE
FFE00000000007FE
FFE00000000007FE
FFE00000000007FE
FFE00000000007FE
FFE00000000007FE
FFE00000000007FE
FFE00000000007FE
FFE00000000007FE
FFE00000000007FE
FFE00000000007FE
FFE00000000007FE
FFE00000000007FE
FFE00000000007FE
FFE00000000007FE
FFE00000000007FE
7FE0000000000FFE
7FF0000000000FFC
7FF0000000000FFC
7FF0000000001FFC
7FF8000000001FFC
3FFC000000003FF8
3FFE000000007FF8
3FFF00000000FFF8
1FFFC0000003FFF0
1FFFF000000FFFF0
0FFFFF8001FFFFE0
07FFFFFFFFFFFFC0
07FFFFFFFFFFFFC0
03FFFFFFFFFFFF80
01FFFFFFFFFFFF00
007FFFFFFFFFFC00
003FFFFFFFFFF800
000FFFFFFFFFE000
0003FFFFFFFF8000
00003FFFFFFC0000
000001FFFF000000
ENDCHAR
STARTCHAR V
ENCODING 86
SWIDTH 989 0
DWIDTH 79 0
BBX 77 59 1 -1
BITMAP
FFF80000000000007FF8
7FF8000000000000FFF0
3FFC000000000000FFE0
3FFE000000000001FFE0
1FFE000000000001FFC0
1FFF000000000003FFC0
0FFF000000000007FF80
07FF800000000007FF00
07FFC0000000000FFF00
03FFC0000000000FFE00
03FFE0000000001FFE00
01FFE0000000003FFC00
00FFF0000000003FF800
00FFF0000000007FF800
007FF8000000007FF000
007FFC00000000FFF000
003FFC00000000FFE000
001FFE00000001FFC000
001FFE00000003FFC000
000FFF00000003FF8000
000FFF80000007FF8000
0007FF80000007FF0000
0003FFC000000FFE0000
0003FFC000001FFE0000
0001FFE000001FFC0000
0001FFF000003FFC0000
0000FFF000003FF80000
00007FF800007FF00000
00007FF800007FF00000
00003FFC0000FFE00000
00003FFC0001FFE00000
00001FFE0001FFC00000
00000FFF0003FF800000
00000FFF0003FF800000
000007FF8007FF000000
000007FF800FFF000000
000003FFC00FFE000000
000001FFE01FFC000000
000001FFE01FFC000000
000000FFF03FF8000000
000000FFF07FF8000000
0000007FF87FF0000000
0000003FFCFFE0000000
0000003FFCFFE0000000
0000001FFFFFC0000000
0000001FFFFFC0000000
0000000FFFFF80000000
00000007FFFF00000000
00000007FFFF00000000
00000003FFFE00000000
00000003FFFE00000000
00000001FFFC00000000
00000000FFF800000000
00000000FFF800000000
000000007FF000000000
000000007FF000000000
000000003FE000000000
000000001FC000000000
000000000F8000000000
ENDCHAR
STARTCHAR W
ENCODING 87
SWIDTH 1268 0
DWIDTH 101 0
BBX 99 59 1 -1
BITMAP
FFF80007FFC00000000000FFE0
7FF80003FFC00000000001FFC0
7FFC0001FFE00000000001FFC0
3FFC0001FFE00000000003FF80
1FFE0000FFF00000000007FF80
1FFE0000FFF00000000007FF00
0FFF00007FF8000000000FFF00
0FFF00007FF8000000000FFE00
07FF80003FFC000000001FFE00
07FF80003FFC000000001FFC00
03FFC0001FFE000000003FFC00
03FFC0001FFE000000003FF800
01FFE0000FFF000000007FF800
01FFE00007FF000000007FF000
00FFF00007FF80000000FFE000
00FFF00003FFC0000000FFE000
007FF80003FFC0000001FFC000
003FF80001FFE0000001FFC000
003FFC0001FFE0000003FF8000
001FFE0000FFF0000003FF8000
001FFE0000FFF0000007FF0000
000FFF00007FF800000FFF0000
000FFF00007FF800000FFE0000
0007FF80003FFC00001FFE0000
0007FF80003FFC00001FFC0000
0003FFC0001FFE00003FFC0000
0003FFC0001FFE00003FF80000
0001FFE0000FFF00007FF00000
0001FFE0000FFF00007FF00000
0000FFF0000FFF8000FFE00000
00007FF0000FFF8000FFE00000
00007FF8001FFFC001FFC00000
00003FF8001FFFC001FFC00000
00003FFC003FFFE003FF800000
00001FFC003FFFE003FF800000
00001FFE007FFFF007FF000000
00000FFE00FFFFF007FF000000
00000FFF00FFFFF80FFE000000
000007FF01FFFFF80FFC000000
000007FF81FFBFFC1FFC000000
000003FFC3FF9FFC3FF8000000
000003FFC3FF1FFE3FF8000000
000001FFE7FF0FFE7FF0000000
000000FFE7FE0FFF7FF0000000
000000FFFFFE07FFFFE0000000
0000007FFFFC07FFFFE0000000
0000007FFFFC03FFFFC0000000
0000003FFFF803FFFFC0000000
0000003FFFF801FFFF80000000
0000001FFFF001FFFF80000000
0000001FFFF000FFFF00000000
0000000FFFE000FFFE00000000
0000000FFFC0007FFE00000000
00000007FFC0007FFC00000000
00000007FF80003FFC00000000
00000003FF80001FF800000000
00000001FF00001FF800000000
00000001FE00000FF000000000
000000007C000007C000000000
ENDCHAR
STARTCHAR X
ENCODING 88
SWIDTH 1000 0
DWIDTH 80 0
BBX 76 58 2 0
BITMAP
3FFF80000000001FFF80
0FFFC0000000001FFF00
07FFE0000000003FFE00
03FFF0000000007FFC00
01FFF800000000FFF800
00FFFC00000001FFF000
007FFE00000003FFE000
003FFF00000007FFC000
001FFF8000000FFF8000
000FFFC000001FFE0000
0007FFE000003FFC0000
0003FFF000007FF80000
0001FFF80000FFF00000
0000FFFC0001FFE00000
00007FFE0003FFC00000
00003FFF0007FF800000
00001FFF800FFF000000
00000FFFC01FFE000000
000007FFE03FFC000000
000003FFF07FF8000000
000001FFF8FFF0000000
000000FFFDFFE0000000
0000007FFFFFC0000000
0000003FFFFF80000000
0000001FFFFF00000000
0000000FFFFE00000000
00000007FFFC00000000
00000003FFF800000000
00000001FFF000000000
00000003FFFC00000000
00000007FFFE00000000
0000000FFFFF00000000
0000001FFFFF80000000
0000007FFFFFC0000000
000000FFFFFFE0000000
000001FFF3FFF0000000
000003FFE1FFF8000000
000007FFC0FFFC000000
00000FFF807FFE000000
00001FFF003FFF000000
00003FFE001FFF800000
00007FFC000FFFC00000
0000FFF80007FFE00000
0001FFF00003FFF00000
0003FFE00001FFF80000
0007FFC00000FFFE0000
000FFF8000007FFF0000
001FFF0000001FFF8000
003FFE0000000FFFC000
007FFC00000007FFE000
00FFF800000003FFF000
01FFF000000001FFF800
03FFE000000000FFFC00
0FFFC0000000007FFE00
1FFF80000000003FFF00
3FFF00000000001FFF80
7FFE00000000000FFFC0
FFF8000000000007FFF0
ENDCHAR
STARTCHAR Y
ENCODING 89
SWIDTH 926 0
DWIDTH 74 0
BBX 72 58 1 0
BITMAP
FFFC00000000001FFF
7FFE00000000003FFE
3FFF00000000007FFC
1FFF8000000000FFF8
0FFF8000000001FFF0
07FFC000000003FFE0
03FFE000000003FFE0
03FFF000000007FFC0
01FFF80000000FFF80
00FFFC0000001FFF00
007FFC0000003FFE00
003FFE0000007FFC00
001FFF0000007FF800
000FFF800000FFF800
000FFFC00001FFF000
0007FFE00003FFE000
0003FFE00007FFC000
0001FFF0000FFF8000
0000FFF8000FFF0000
00007FFC001FFE0000
00007FFE003FFE0000
00003FFF007FFC0000
00001FFF00FFF80000
00000FFF81FFF00000
000007FFC1FFE00000
000003FFE3FFC00000
000001FFF7FF800000
000001FFFFFF800000
000000FFFFFF000000
0000007FFFFE000000
0000003FFFFC000000
0000001FFFF8000000
0000000FFFF0000000
00000007FFE0000000
00000007FFE0000000
00000003FFC0000000
00000001FF80000000
00000001FF80000000
00000001FF80000000
00000001FF80000000
00000001FF80000000
00000001FF80000000
00000001FF80000000
00000001FF80000000
00000001FF80000000
00000001FF80000000
00000001FF80000000
00000001FF80000000
00000001FF80000000
00000001FF80000000
00000001FF80000000
00000001FF80000000
00000001FF80000000
00000001FF80000000
00000001FF80000000
00000001FF80000000
00000001FF80000000
00000001FF80000000
ENDCHAR
STARTCHAR Z
ENCODING 90
SWIDTH 802 0
DWIDTH 64 0
BBX 58 58 3 0
BITMAP
7FFFFFFFFFFFFC00
7FFFFFFFFFFFFF00
7FFFFFFFFFFFFF80
7FFFFFFFFFFFFF80
7FFFFFFFFFFFFFC0
7FFFFFFFFFFFFFC0
7FFFFFFFFFFFFF80
7FFFFFFFFFFFFF80
7FFFFFFFFFFFFF00
7FFFFFFFFFFFFE00
00000000007FFC00
0000000000FFF800
0000000001FFF000
0000000003FFE000
0000000007FFC000
000000000FFF8000
000000001FFF0000
000000003FFE0000
000000007FFC0000
00000000FFF80000
00000001FFF00000
00000007FFE00000
0000000FFFC00000
0000001FFF800000
0000003FFF000000
0000007FFE000000
000000FFFC000000
000001FFF8000000
000003FFF0000000
000007FFE0000000
00000FFFC0000000
00001FFF80000000
00003FFF00000000
00007FFE00000000
0000FFFC00000000
0001FFF800000000
0003FFF000000000
0007FFE000000000
000FFFC000000000
001FFF8000000000
003FFF0000000000
007FFE0000000000
00FFFC0000000000
01FFF80000000000
03FFF00000000000
07FFE00000000000
0FFFC00000000000
1FFF800000000000
3FFFFFFFFFFFFF80
7FFFFFFFFFFFFF80
7FFFFFFFFFFFFF80
FFFFFFFFFFFFFF80
FFFFFFFFFFFFFF80
FFFFFFFFFFFFFF80
FFFFFFFFFFFFFF80
7FFFFFFFFFFFFF80
3FFFFFFFFFFFFF80
1FFFFFFFFFFFFF80
ENDCHAR
STARTCHAR bracketleft
ENCODING 91
SWIDTH 333 0
DWIDTH 27 0
BBX 14 73 8 -7
BITMAP
FFFC
FFFC
FFFC
FFFC
FFFC
FFFC
FFFC
FE00
FE00
FE00
FE00
FE00
FE00
FE00
FE00
FE00
FE00
FE00
FE00
FE00
FE00
FE00
FE00
FE00
FE00
FE00
FE00
FE00
FE00
FE00
FE00
FE00
FE00
FE00
FE00
FE00
FE00
FE00
FE00
FE00
FE00
FE00
FE00
FE00
FE00
FE00
FE00
FE00
FE00
FE00
FE00
FE00
FE00
FE00
FE00
FE00
FE00
FE00
FE00
FE00
FE00
FE00
FE00
FE00
FE00
FE00
FE00
FFFC
FFFC
FFFC
FFFC
FFFC
FFFC
ENDCHAR
STARTCHAR backslash
ENCODING 92
SWIDTH 445 0
DWIDTH 36 0
BBX 34 58 1 0
BITMAP
FE00000000
FE00000000
7F00000000
7F00000000
3F80000000
3F80000000
1FC0000000
1FC0000000
0FE0000000
0FE0000000
07E0000000
07F0000000
03F0000000
03F8000000
01F8000000
01FC000000
01FC000000
00FE000000
00FE000000
007F000000
007F000000
003F800000
003F800000
001FC00000
001FC00000
000FE00000
000FE00000
0007E00000
0007F00000
0003F00000
0003F80000
0003F80000
0001FC0000
0001FC0000
0000FE0000
0000FE0000
00007F0000
00007F0000
00003F8000
00003F8000
00001FC000
00001FC000
00000FE000
00000FE000
00000FE000
000007F000
000007F000
000003F800
000003F800
000001FC00
000001FC00
000000FE00
000000FE00
0000007F00
0000007F00
0000003F80
0000003F80
0000001FC0
ENDCHAR
STARTCHAR bracketright
ENCODING 93
SWIDTH 333 0
DWIDTH 27 0
BBX 14 73 5 -7
BITMAP
FFFC
FFFC
FFFC
FFFC
FFFC
FFFC
FFFC
01FC
01FC
01FC
01FC
01FC
01FC
01FC
01FC
01FC
01FC
01FC
01FC
01FC
01FC
01FC
01FC
01FC
01FC
01FC
01FC
01FC
01FC
01FC
01FC
01FC
01FC
01FC
01FC
01FC
01FC
01FC
01FC
01FC
01FC
01FC
01FC
01FC
01FC
01FC
01FC
01FC
01FC
01FC
01FC
01FC
01FC
01FC
01FC
01FC
01FC
01FC
01FC
01FC
01FC
01FC
01FC
01FC
01FC
01FC
01FC
FFFC
FFFC
FFFC
FFFC
FFFC
FFFC
ENDCHAR
STARTCHAR asciicircum
ENCODING 94
SWIDTH 559 0
DWIDTH 45 0
BBX 35 35 5 23
BITMAP
0001E00000
0003F00000
0003F80000
0007FC0000
0007FC0000
0007FC0000
000FFE0000
000FFE0000
001FFF0000
001FBF0000
003FBF0000
003F3F8000
003F1F8000
007F1FC000
007E0FC000
00FE0FE000
00FC0FE000
01FC07E000
01FC07F000
01F803F000
03F803F800
03F003F800
07F001F800
07E001FC00
0FE000FC00
0FE000FE00
0FC000FE00
1FC0007F00
1F80007F00
3F80003F00
3F80003F80
3F00003F80
7F00001FC0
7E00001FC0
FE00000FE0
ENDCHAR
STARTCHAR underscore
ENCODING 95
SWIDTH 668 0
DWIDTH 53 0
BBX 54 5 0 -13
BITMAP
FFFFFFFFFFFFFC
FFFFFFFFFFFFFC
FFFFFFFFFFFFFC
FFFFFFFFFFFFFC
FFFFFFFFFFFFFC
ENDCHAR
STARTCHAR grave
ENCODING 96
SWIDTH 362 0
DWIDTH 29 0
BBX 21 10 4 62
BITMAP
E00000
FC0000
FFC000
FFF800
FFFF00
FFFFF0
3FFFF8
01FFF8
000FF8
0000F8
ENDCHAR
STARTCHAR a
ENCODING 97
SWIDTH 989 0
DWIDTH 79 0
BBX 77 59 1 0
BITMAP
000000000F8000000000
000000001FC000000000
000000003FE000000000
000000007FF000000000
000000007FF000000000
00000000FFF800000000
00000000FFF800000000
00000001FFFC00000000
00000003FFFE00000000
00000003FFFE00000000
00000007FFFF00000000
00000007FFFF00000000
0000000FFFFF80000000
0000001FFFFFC0000000
0000001FFFFFC0000000
0000003FF9FFE0000000
0000003FF9FFE0000000
0000007FF0FFF0000000
000000FFF07FF8000000
000000FFE07FF8000000
000001FFC03FFC000000
000001FFC03FFC000000
000003FF801FFE000000
000007FF800FFF000000
000007FF000FFF000000
00000FFF0007FF800000
00000FFE0007FF800000
00001FFC0003FFC00000
00003FFC0001FFE00000
00003FF80001FFE00000
00007FF80000FFF00000
00007FF00000FFF00000
0000FFE000007FF80000
0001FFE000003FFC0000
0001FFC000003FFC0000
0003FFC000001FFE0000
0003FF807FFFFFFE0000
0007FF00FFFFFFFF0000
000FFF00FFFFFFFF8000
000FFE01FFFFFFFF8000
001FFE01FFFFFFFFC000
001FFC03FFFFFFFFC000
003FF807FFFFFFFFE000
007FF80FFFFFFFFFF000
007FF000000000FFF000
00FFF0000000007FF800
00FFE0000000007FF800
01FFE0000000003FFC00
03FFC0000000001FFE00
03FF80000000001FFE00
07FF80000000000FFF00
07FF00000000000FFF00
0FFF000000000007FF80
1FFE000000000007FFC0
1FFC000000000003FFC0
3FFC000000000001FFE0
3FF8000000000001FFE0
7FF8000000000000FFF0
FFF0000000000000FFF8
ENDCHAR
STARTCHAR b
ENCODING 98
SWIDTH 891 0
DWIDTH 71 0
BBX 62 58 5 0
BITMAP
FFFFFFFFFFFF0000
FFFFFFFFFFFFF000
FFFFFFFFFFFFFC00
FFFFFFFFFFFFFF00
FFFFFFFFFFFFFF80
FFFFFFFFFFFFFFC0
FFFFFFFFFFFFFFE0
FFFFFFFFFFFFFFF0
FFFFFFFFFFFFFFF0
FFFFFFFFFFFFFFF0
FFC00000000FFFF8
FFC000000000FFF8
FFC0000000007FF8
FFC0000000003FF8
FFC0000000001FF8
FFC0000000001FF8
FFC0000000001FF8
FFC0000000001FF8
FFC0000000001FF8
FFC0000000001FF8
FFC0000000003FF8
FFC0000000003FF0
FFC0000000007FF0
FFC000000001FFE0
FFC07FFFFFFFFFC0
FFC07FFFFFFFFF80
FFC07FFFFFFFFE00
FFC07FFFFFFFFC00
FFC07FFFFFFFFF00
FFC07FFFFFFFFF80
FFC07FFFFFFFFFE0
FFC07FFFFFFFFFE0
FFC07FFFFFFFFFF0
FFC000000001FFF8
FFC0000000007FF8
FFC0000000003FFC
FFC0000000001FFC
FFC0000000000FFC
FFC0000000000FFC
FFC0000000000FFC
FFC0000000000FFC
FFC0000000000FFC
FFC0000000000FFC
FFC0000000001FFC
FFC0000000001FFC
FFC0000000003FFC
FFC000000000FFFC
FFC00000000FFFF8
FFFFFFFFFFFFFFF8
FFFFFFFFFFFFFFF0
FFFFFFFFFFFFFFF0
FFFFFFFFFFFFFFE0
FFFFFFFFFFFFFFC0
FFFFFFFFFFFFFF80
FFFFFFFFFFFFFF00
FFFFFFFFFFFFFC00
FFFFFFFFFFFFF000
FFFFFFFFFFFF8000
ENDCHAR
STARTCHAR c
ENCODING 99
SWIDTH 829 0
DWIDTH 66 0
BBX 60 58 3 0
BITMAP
000001FFFFFFFFF0
00001FFFFFFFFFF0
0000FFFFFFFFFFF0
0003FFFFFFFFFFF0
000FFFFFFFFFFFF0
001FFFFFFFFFFFF0
003FFFFFFFFFFFF0
007FFFFFFFFFFFF0
00FFFFFFFFFFFFF0
01FFFFFFFFFFFFF0
03FFFF8000000000
07FFF80000000000
07FFE00000000000
0FFFC00000000000
1FFF800000000000
1FFF000000000000
1FFE000000000000
3FFC000000000000
3FF8000000000000
3FF8000000000000
7FF0000000000000
7FF0000000000000
7FE0000000000000
7FE0000000000000
7FE0000000000000
FFE0000000000000
FFE0000000000000
FFE0000000000000
FFE0000000000000
FFE0000000000000
FFE0000000000000
FFE0000000000000
7FE0000000000000
7FE0000000000000
7FE0000000000000
7FF0000000000000
7FF0000000000000
3FF0000000000000
3FF8000000000000
3FF8000000000000
1FFC000000000000
1FFE000000000000
1FFF000000000000
0FFF800000000000
07FFC00000000000
07FFF00000000000
03FFFC0000000000
01FFFF8000000000
01FFFFFFFFFFFFF0
00FFFFFFFFFFFFF0
007FFFFFFFFFFFF0
001FFFFFFFFFFFF0
000FFFFFFFFFFFF0
0007FFFFFFFFFFF0
0001FFFFFFFFFFF0
00007FFFFFFFFFF0
00001FFFFFFFFFF0
000001FFFFFFFFF0
ENDCHAR
STARTCHAR d
ENCODING 100
SWIDTH 879 0
DWIDTH 70 0
BBX 62 58 5 0
BITMAP
FFFFFFFFFF000000
FFFFFFFFFFF00000
FFFFFFFFFFFC0000
FFFFFFFFFFFF0000
FFFFFFFFFFFFC000
FFFFFFFFFFFFE000
FFFFFFFFFFFFF800
FFFFFFFFFFFFFC00
FFFFFFFFFFFFFE00
FFFFFFFFFFFFFE00
FFC0000007FFFF00
FFC00000007FFF80
FFC00000001FFFC0
FFC00000000FFFC0
FFC000000003FFE0
FFC000000001FFE0
FFC000000000FFF0
FFC000000000FFF0
FFC0000000007FF8
FFC0000000003FF8
FFC0000000003FF8
FFC0000000001FF8
FFC0000000001FFC
FFC0000000001FFC
FFC0000000001FFC
FFC0000000000FFC
FFC0000000000FFC
FFC0000000000FFC
FFC0000000000FFC
FFC0000000000FFC
FFC0000000000FFC
FFC0000000000FFC
FFC0000000000FFC
FFC0000000001FFC
FFC0000000001FFC
FFC0000000001FF8
FFC0000000003FF8
FFC0000000003FF8
FFC0000000003FF0
FFC0000000007FF0
FFC000000000FFF0
FFC000000000FFE0
FFC000000001FFE0
FFC000000003FFC0
FFC00000000FFFC0
FFC00000001FFF80
FFC00000007FFF00
FFC0000007FFFF00
FFFFFFFFFFFFFE00
FFFFFFFFFFFFFC00
FFFFFFFFFFFFF800
FFFFFFFFFFFFF000
FFFFFFFFFFFFE000
FFFFFFFFFFFF8000
FFFFFFFFFFFF0000
FFFFFFFFFFFC0000
FFFFFFFFFFE00000
FFFFFFFFFE000000
ENDCHAR
STARTCHAR e
ENCODING 101
SWIDTH 759 0
DWIDTH 61 0
BBX 52 58 5 0
BITMAP
FFFFFFFFFFFFF0
FFFFFFFFFFFFF0
FFFFFFFFFFFFF0
FFFFFFFFFFFFF0
FFFFFFFFFFFFF0
FFFFFFFFFFFFF0
FFFFFFFFFFFFF0
FFFFFFFFFFFFF0
FFFFFFFFFFFFF0
FFFFFFFFFFFFF0
FFC00000000000
FFC00000000000
FFC00000000000
FFC00000000000
FFC00000000000
FFC00000000000
FFC00000000000
FFC00000000000
FFC00000000000
FFC00000000000
FFC00000000000
FFC00000000000
FFC00000000000
FFC00000000000
FFC03FFFFFFFC0
FFC03FFFFFFFC0
FFC03FFFFFFFC0
FFC03FFFFFFFC0
FFC03FFFFFFFC0
FFC03FFFFFFFC0
FFC03FFFFFFFC0
FFC03FFFFFFFC0
FFC03FFFFFFFC0
FFC00000000000
FFC00000000000
FFC00000000000
FFC00000000000
FFC00000000000
FFC00000000000
FFC00000000000
FFC00000000000
FFC00000000000
FFC00000000000
FFC00000000000
FFC00000000000
FFC00000000000
FFC00000000000
FFC00000000000
FFFFFFFFFFFFF0
FFFFFFFFFFFFF0
FFFFFFFFFFFFF0
FFFFFFFFFFFFF0
FFFFFFFFFFFFF0
FFFFFFFFFFFFF0
FFFFFFFFFFFFF0
FFFFFFFFFFFFF0
FFFFFFFFFFFFF0
FFFFFFFFFFFFF0
ENDCHAR
STARTCHAR f
ENCODING 102
SWIDTH 705 0
DWIDTH 56 0
BBX 49 58 5 0
BITMAP
FFFFFFFFFFFF80
FFFFFFFFFFFF80
FFFFFFFFFFFF80
FFFFFFFFFFFF80
FFFFFFFFFFFF80
FFFFFFFFFFFF80
FFFFFFFFFFFF80
FFFFFFFFFFFF80
FFFFFFFFFFFF80
FFFFFFFFFFFF80
FFC00000000000
FFC00000000000
FFC00000000000
FFC00000000000
FFC00000000000
FFC00000000000
FFC00000000000
FFC00000000000
FFC00000000000
FFC00000000000
FFC00000000000
FFC00000000000
FFC00000000000
FFC00000000000
FFC00000000000
FFC03FFFFFFE00
FFC03FFFFFFE00
FFC03FFFFFFE00
FFC03FFFFFFE00
FFC03FFFFFFE00
FFC03FFFFFFE00
FFC03FFFFFFE00
FFC03FFFFFFE00
FFC03FFFFFFE00
FFC00000000000
FFC00000000000
FFC00000000000
FFC00000000000
FFC00000000000
FFC00000000000
FFC00000000000
FFC00000000000
FFC00000000000
FFC00000000000
FFC00000000000
FFC00000000000
FFC00000000000
FFC00000000000
FFC00000000000
FFC00000000000
FFC00000000000
FFC00000000000
FFC00000000000
FFC00000000000
FFC00000000000
FFC00000000000
FFC00000000000
FFC00000000000
ENDCHAR
STARTCHAR g
ENCODING 103
SWIDTH 888 0
DWIDTH 71 0
BBX 64 58 3 0
BITMAP
000001FFFFFFFFF0
00001FFFFFFFFFF0
0000FFFFFFFFFFF0
0003FFFFFFFFFFF0
000FFFFFFFFFFFF0
001FFFFFFFFFFFF0
003FFFFFFFFFFFF0
007FFFFFFFFFFFF0
00FFFFFFFFFFFFF0
01FFFFFFFFFFFFF0
03FFFF8000000000
07FFF80000000000
07FFE00000000000
0FFFC00000000000
1FFF800000000000
1FFF000000000000
1FFE000000000000
3FFC000000000000
3FF8000000000000
3FF8000000000000
7FF0000000000000
7FF0000000000000
7FE0000000000000
7FE0000000000000
7FE0001FFFFFFFFF
FFE0001FFFFFFFFF
FFE0001FFFFFFFFF
FFE0001FFFFFFFFF
FFE0001FFFFFFFFF
FFE0001FFFFFFFFF
FFE0001FFFFFFFFF
FFE0001FFFFFFFFF
7FE0001FFFFFFFFF
7FE00000000007FF
7FE00000000007FF
7FF00000000007FF
7FF00000000007FF
3FF00000000007FF
3FF80000000007FF
3FF80000000007FF
1FFC0000000007FF
1FFE0000000007FF
1FFF0000000007FF
0FFF8000000007FF
07FFC000000007FF
07FFF000000007FF
03FFFC00000007FF
01FFFF80000007FF
01FFFFFFFFFFFFFF
00FFFFFFFFFFFFFF
007FFFFFFFFFFFFF
001FFFFFFFFFFFFF
000FFFFFFFFFFFFF
0007FFFFFFFFFFFF
0001FFFFFFFFFFFF
00007FFFFFFFFFFF
00001FFFFFFFFFFF
000001FFFFFFFFFF
ENDCHAR
STARTCHAR h
ENCODING 104
SWIDTH 838 0
DWIDTH 67 0
BBX 57 58 5 0
BITMAP
FFC000000001FF80
FFC000000001FF80
FFC000000001FF80
FFC000000001FF80
FFC000000001FF80
FFC000000001FF80
FFC000000001FF80
FFC000000001FF80
FFC000000001FF80
FFC000000001FF80
FFC000000001FF80
FFC000000001FF80
FFC000000001FF80
FFC000000001FF80
FFC000000001FF80
FFC000000001FF80
FFC000000001FF80
FFC000000001FF80
FFC000000001FF80
FFC000000001FF80
FFC000000001FF80
FFC000000001FF80
FFC000000001FF80
FFC000000001FF80
FFC03FFFFFFFFF80
FFC03FFFFFFFFF80
FFC03FFFFFFFFF80
FFC03FFFFFFFFF80
FFC03FFFFFFFFF80
FFC03FFFFFFFFF80
FFC03FFFFFFFFF80
FFC03FFFFFFFFF80
FFC03FFFFFFFFF80
FFC000000001FF80
FFC000000001FF80
FFC000000001FF80
FFC000000001FF80
FFC000000001FF80
FFC000000001FF80
FFC000000001FF80
FFC000000001FF80
FFC000000001FF80
FFC000000001FF80
FFC000000001FF80
FFC000000001FF80
FFC000000001FF80
FFC000000001FF80
FFC000000001FF80
FFC000000001FF80
FFC000000001FF80
FFC000000001FF80
FFC000000001FF80
FFC000000001FF80
FFC000000001FF80
FFC000000001FF80
FFC000000001FF80
FFC000000001FF80
FFC000000001FF80
ENDCHAR
STARTCHAR i
ENCODING 105
SWIDTH 267 0
DWIDTH 21 0
BBX 10 58 6 0
BITMAP
FFC0
FFC0
FFC0
FFC0
FFC0
FFC0
FFC0
FFC0
FFC0
FFC0
FFC0
FFC0
FFC0
FFC0
FFC0
FFC0
FFC0
FFC0
FFC0
FFC0
FFC0
FFC0
FFC0
FFC0
FFC0
FFC0
FFC0
FFC0
FFC0
FFC0
FFC0
FFC0
FFC0
FFC0
FFC0
FFC0
FFC0
FFC0
FFC0
FFC0
FFC0
FFC0
FFC0
FFC0
FFC0
FFC0
FFC0
FFC0
FFC0
FFC0
FFC0
FFC0
FFC0
FFC0
FFC0
FFC0
FFC0
FFC0
ENDCHAR
STARTCHAR j
ENCODING 106
SWIDTH 708 0
DWIDTH 57 0
BBX 50 58 2 0
BITMAP
0000000000FFC0
0000000000FFC0
0000000000FFC0
0000000000FFC0
0000000000FFC0
0000000000FFC0
0000000000FFC0
0000000000FFC0
0000000000FFC0
0000000000FFC0
0000000000FFC0
0000000000FFC0
0000000000FFC0
0000000000FFC0
0000000000FFC0
0000000000FFC0
0000000000FFC0
0000000000FFC0
0000000000FFC0
0000000000FFC0
0000000000FFC0
0000000000FFC0
0000000000FFC0
0000000000FFC0
0000000000FFC0
0000000000FFC0
0000000000FFC0
0000000000FFC0
0000000000FFC0
0000000000FFC0
0000000000FFC0
0000000000FFC0
0000000000FFC0
0000000000FFC0
0000000000FFC0
0000000000FFC0
0000000000FFC0
0000000000FFC0
0000000001FFC0
0000000001FFC0
0000000003FFC0
0000000003FF80
0000000007FF80
000000000FFF80
000000001FFF00
000000003FFF00
00000001FFFE00
0000001FFFFE00
FFFFFFFFFFFC00
FFFFFFFFFFF800
FFFFFFFFFFF000
FFFFFFFFFFE000
FFFFFFFFFFC000
FFFFFFFFFF8000
FFFFFFFFFE0000
FFFFFFFFF80000
FFFFFFFFC00000
FFFFFFF8000000
ENDCHAR
STARTCHAR k
ENCODING 107
SWIDTH 875 0
DWIDTH 70 0
BBX 63 58 5 0
BITMAP
FFC000000003FFFC
FFC000000007FFF0
FFC00000001FFFE0
FFC00000003FFFC0
FFC00000007FFF00
FFC0000001FFFE00
FFC0000003FFFC00
FFC0000007FFF000
FFC000000FFFE000
FFC000003FFFC000
FFC000007FFF0000
FFC00000FFFE0000
FFC00003FFFC0000
FFC00007FFF00000
FFC0000FFFE00000
FFC0003FFFC00000
FFC0007FFF000000
FFC000FFFE000000
FFC001FFFC000000
FFC007FFF8000000
FFC00FFFE0000000
FFC01FFFC0000000
FFC07FFF80000000
FFC0FFFE00000000
FFC1FFFC00000000
FFC3FFF800000000
FFC3FFE000000000
FFC7FFC000000000
FFC7FF8000000000
FFC7FF8000000000
FFC3FFE000000000
FFC3FFF000000000
FFC1FFF800000000
FFC07FFE00000000
FFC03FFF00000000
FFC01FFF80000000
FFC007FFE0000000
FFC003FFF0000000
FFC001FFF8000000
FFC000FFFE000000
FFC0003FFF000000
FFC0001FFF800000
FFC0000FFFE00000
FFC00007FFF00000
FFC00001FFF80000
FFC00000FFFE0000
FFC000007FFF0000
FFC000001FFF8000
FFC000000FFFE000
FFC0000007FFF000
FFC0000003FFF800
FFC0000000FFFE00
FFC00000007FFF00
FFC00000003FFF80
FFC00000001FFFE0
FFC000000007FFF0
FFC000000003FFF8
FFC000000001FFFE
ENDCHAR
STARTCHAR l
ENCODING 108
SWIDTH 707 0
DWIDTH 57 0
BBX 49 58 5 0
BITMAP
FFC00000000000
FFC00000000000
FFC00000000000
FFC00000000000
FFC00000000000
FFC00000000000
FFC00000000000
FFC00000000000
FFC00000000000
FFC00000000000
FFC00000000000
FFC00000000000
FFC00000000000
FFC00000000000
FFC00000000000
FFC00000000000
FFC00000000000
FFC00000000000
FFC00000000000
FFC00000000000
FFC00000000000
FFC00000000000
FFC00000000000
FFC00000000000
FFC00000000000
FFC00000000000
FFC00000000000
FFC00000000000
FFC00000000000
FFC00000000000
FFC00000000000
FFC00000000000
FFC00000000000
FFC00000000000
FFC00000000000
FFC00000000000
FFC00000000000
FFC00000000000
FFC00000000000
FFC00000000000
FFC00000000000
FFC00000000000
FFC00000000000
FFC00000000000
FFC00000000000
FFC00000000000
FFC00000000000
FFC00000000000
FFFFFFFFFFFF80
FFFFFFFFFFFF80
FFFFFFFFFFFF80
FFFFFFFFFFFF80
FFFFFFFFFFFF80
FFFFFFFFFFFF80
FFFFFFFFFFFF80
FFFFFFFFFFFF80
FFFFFFFFFFFF80
FFFFFFFFFFFF80
ENDCHAR
STARTCHAR m
ENCODING 109
SWIDTH 1115 0
DWIDTH 89 0
BBX 86 59 2 -1
BITMAP
00003C0000000001F00000
0000FF0000000003F80000
0001FF8000000007FC0000
0001FF8000000007FC0000
0001FFC00000000FFE0000
0003FFC00000000FFE0000
0003FFC00000001FFE0000
0003FFE00000001FFF0000
0003FFE00000001FFF0000
0007FFF00000003FFF0000
0007FFF00000003FFF0000
0007FFF80000007FFF8000
0007FFF80000007FFF8000
000FFFFC000000FFFF8000
000FFFFC000000FFFFC000
000FFFFC000000FFFFC000
001FFFFE000001FFFFC000
001FFFFE000001FFFFC000
001FFFFF000003FFFFE000
001FFBFF000003FF7FE000
003FF3FF800007FE7FE000
003FF1FF800007FE7FE000
003FF1FF80000FFC3FF000
007FF0FFC0000FFC3FF000
007FE0FFC0000FF83FF000
007FE0FFE0001FF83FF800
007FE07FE0001FF81FF800
00FFC07FF0003FF01FF800
00FFC03FF0003FF01FF800
00FFC03FF8007FE00FFC00
00FFC01FF8007FE00FFC00
01FF801FF800FFC00FFC00
01FF801FFC00FFC00FFC00
01FF800FFC00FF8007FE00
03FF000FFE01FF8007FE00
03FF0007FE01FF8007FE00
03FF0007FF03FF0007FF00
03FF0003FF03FF0003FF00
07FE0003FF87FE0003FF00
07FE0001FF87FE0003FF00
07FE0001FF8FFC0001FF80
0FFE0001FFCFFC0001FF80
0FFC0000FFCFF80001FF80
0FFC0000FFFFF80001FFC0
0FFC00007FFFF80000FFC0
1FF800007FFFF00000FFC0
1FF800003FFFF00000FFC0
1FF800003FFFE000007FE0
1FF800003FFFE000007FE0
3FF000001FFFC000007FE0
3FF000001FFFC000007FE0
3FF000000FFF8000003FF0
7FE000000FFF8000003FF0
7FE0000007FF8000003FF0
7FE0000007FF0000003FF8
7FE0000003FF0000001FF8
FFC0000003FE0000001FF8
FFC0000001FC0000001FFC
0000000000F80000000000
ENDCHAR
STARTCHAR n
ENCODING 110
SWIDTH 873 0
DWIDTH 70 0
BBX 60 58 5 0
BITMAP
1E00000000003FF0
7F80000000003FF0
7FC0000000003FF0
FFE0000000003FF0
FFF0000000003FF0
FFF8000000003FF0
FFFC000000003FF0
FFFE000000003FF0
FFFF000000003FF0
FFFF800000003FF0
FFFFC00000003FF0
FFFFE00000003FF0
FFFFF00000003FF0
FFFFF80000003FF0
FFFFFC0000003FF0
FFFFFE0000003FF0
FFBFFF0000003FF0
FF9FFF8000003FF0
FF8FFFC000003FF0
FF87FFE000003FF0
FF83FFF000003FF0
FF81FFF800003FF0
FF80FFFC00003FF0
FF807FFE00003FF0
FF803FFF00003FF0
FF801FFF80003FF0
FF800FFFC0003FF0
FF8007FFE0003FF0
FF8003FFF0003FF0
FF8001FFF8003FF0
FF8000FFFC003FF0
FF80007FFE003FF0
FF80003FFF003FF0
FF80001FFF803FF0
FF80000FFFC03FF0
FF800007FFF03FF0
FF800003FFF83FF0
FF800001FFFC3FF0
FF800000FFFE3FF0
FF8000007FFF3FF0
FF8000003FFFBFF0
FF8000000FFFFFF0
FF80000007FFFFF0
FF80000003FFFFF0
FF80000001FFFFF0
FF80000000FFFFF0
FF800000007FFFF0
FF800000003FFFF0
FF800000001FFFF0
FF800000000FFFF0
FF8000000007FFF0
FF8000000003FFF0
FF8000000001FFF0
FF8000000000FFF0
FF80000000007FF0
FF80000000003FE0
FF80000000001FE0
FF80000000000780
ENDCHAR
STARTCHAR o
ENCODING 111
SWIDTH 968 0
DWIDTH 77 0
BBX 71 58 3 0
BITMAP
000001FFFFFF800000
00001FFFFFFFF80000
0000FFFFFFFFFE0000
0003FFFFFFFFFF8000
000FFFFFFFFFFFE000
001FFFFFFFFFFFF800
003FFFFFFFFFFFFC00
007FFFFFFFFFFFFE00
00FFFFFFFFFFFFFF00
01FFFFFFFFFFFFFF80
03FFFF800003FFFFC0
07FFF80000003FFFC0
07FFE00000000FFFE0
0FFFC000000003FFF0
1FFF8000000001FFF0
1FFF0000000000FFF8
1FFE00000000007FF8
3FFC00000000003FF8
3FF800000000003FFC
3FF800000000001FFC
7FF000000000001FFC
7FF000000000000FFE
7FE000000000000FFE
7FE000000000000FFE
7FE0000000000007FE
FFE0000000000007FE
FFE0000000000007FE
FFE0000000000007FE
FFE0000000000007FE
FFE0000000000007FE
FFE0000000000007FE
FFE0000000000007FE
7FE0000000000007FE
7FE0000000000007FE
7FE000000000000FFE
7FF000000000000FFC
7FF000000000000FFC
3FF000000000001FFC
3FF800000000001FFC
3FF800000000003FF8
1FFC00000000003FF8
1FFE00000000007FF8
1FFF0000000000FFF0
0FFF8000000001FFF0
07FFC000000003FFE0
07FFF00000000FFFC0
03FFFC0000003FFFC0
01FFFF800001FFFF80
01FFFFFFFFFFFFFF00
00FFFFFFFFFFFFFE00
007FFFFFFFFFFFFC00
001FFFFFFFFFFFF800
000FFFFFFFFFFFF000
0007FFFFFFFFFFC000
0001FFFFFFFFFF8000
00007FFFFFFFFE0000
00001FFFFFFFF00000
000001FFFFFF000000
ENDCHAR
STARTCHAR p
ENCODING 112
SWIDTH 867 0
DWIDTH 69 0
BBX 62 58 5 0
BITMAP
FFFFFFFFFFFC0000
FFFFFFFFFFFFC000
FFFFFFFFFFFFF000
FFFFFFFFFFFFFC00
FFFFFFFFFFFFFE00
FFFFFFFFFFFFFF00
FFFFFFFFFFFFFF80
FFFFFFFFFFFFFFC0
FFFFFFFFFFFFFFE0
FFFFFFFFFFFFFFF0
FFC00000000FFFF0
FFC000000001FFF0
FFC0000000007FF8
FFC0000000003FF8
FFC0000000003FF8
FFC0000000001FFC
FFC0000000000FFC
FFC0000000000FFC
FFC0000000000FFC
FFC0000000000FFC
FFC0000000000FFC
FFC0000000000FFC
FFC0000000000FFC
FFC0000000000FFC
FFC0000000000FFC
FFC0000000001FFC
FFC0000000001FFC
FFC0000000003FF8
FFC0000000003FF8
FFC0000000007FF8
FFC000000001FFF0
FFC00000000FFFF0
FFC03FFFFFFFFFE0
FFC03FFFFFFFFFE0
FFC03FFFFFFFFFC0
FFC03FFFFFFFFF80
FFC03FFFFFFFFF00
FFC03FFFFFFFFE00
FFC03FFFFFFFFC00
FFC03FFFFFFFF000
FFC03FFFFFFFC000
FFC03FFFFFFC0000
FFC0000000000000
FFC0000000000000
FFC0000000000000
FFC0000000000000
FFC0000000000000
FFC0000000000000
FFC0000000000000
FFC0000000000000
FFC0000000000000
FFC0000000000000
FFC0000000000000
FFC0000000000000
FFC0000000000000
FFC0000000000000
FFC0000000000000
FFC0000000000000
ENDCHAR
STARTCHAR q
ENCODING 113
SWIDTH 968 0
DWIDTH 77 0
BBX 74 58 3 0
BITMAP
000001FFFFFF80000000
00001FFFFFFFF8000000
0000FFFFFFFFFE000000
0003FFFFFFFFFF800000
000FFFFFFFFFFFE00000
001FFFFFFFFFFFF80000
003FFFFFFFFFFFFC0000
007FFFFFFFFFFFFE0000
00FFFFFFFFFFFFFF0000
01FFFFFFFFFFFFFF8000
03FFFF800003FFFFC000
07FFF80000003FFFC000
07FFE00000000FFFE000
0FFFC000000003FFF000
1FFF8000000001FFF000
1FFF0000000000FFF800
1FFE00000000007FF800
3FFC00000000003FF800
3FF800000000003FFC00
3FF800000000001FFC00
7FF000000000001FFC00
7FF000000000000FFE00
7FE000000000000FFE00
7FE000000000000FFE00
7FE0000000000007FE00
FFE0000000000007FE00
FFE0000000000007FE00
FFE0000000000007FE00
FFE0000000000007FE00
FFE0000000000007FE00
FFE0000000000007FE00
FFE0000000000007FE00
7FE0000000000007FE00
7FE0000000000007FE00
7FE00001FFF8000FFE00
7FF000007FFC000FFE00
7FF000003FFE000FFC00
3FF000001FFF801FFC00
3FF8000007FFC01FFC00
3FF8000003FFE03FF800
1FFC000001FFF03FF800
1FFE000000FFF87FF800
1FFF0000003FFCFFF000
0FFF8000001FFFFFF000
07FFC000000FFFFFE000
07FFF0000003FFFFC000
03FFFC000001FFFFC000
01FFFF800003FFFF8000
01FFFFFFFFFFFFFF0000
00FFFFFFFFFFFFFE0000
007FFFFFFFFFFFFF0000
001FFFFFFFFFFFFFC000
000FFFFFFFFFFFFFE000
0007FFFFFFFFFFFFF000
0001FFFFFFFFFFFFFC00
00007FFFFFFFFE3FFE00
00001FFFFFFFF01FFF00
000001FFFFFF000FFFC0
ENDCHAR
STARTCHAR r
ENCODING 114
SWIDTH 921 0
DWIDTH 74 0
BBX 68 58 5 0
BITMAP
FFFFFFFFFFFE000000
FFFFFFFFFFFFE00000
FFFFFFFFFFFFF80000
FFFFFFFFFFFFFE0000
FFFFFFFFFFFFFF0000
FFFFFFFFFFFFFF8000
FFFFFFFFFFFFFFC000
FFFFFFFFFFFFFFE000
FFFFFFFFFFFFFFF000
FFFFFFFFFFFFFFF000
FFC000000007FFF800
FFC000000000FFF800
FFC0000000003FFC00
FFC0000000001FFC00
FFC0000000001FFC00
FFC0000000000FFC00
FFC0000000000FFE00
FFC0000000000FFE00
FFC00000000007FE00
FFC00000000007FE00
FFC00000000007FE00
FFC00000000007FE00
FFC00000000007FE00
FFC00000000007FE00
FFC00000000007FE00
FFC0000000000FFE00
FFC0000000000FFC00
FFC0000000000FFC00
FFC0000000001FFC00
FFC0000000001FFC00
FFC0000000003FF800
FFC000000000FFF800
FFC000000003FFF000
FFC03FFFFFFFFFF000
FFC03FFFFFFFFFE000
FFC03FFFFFFFFFC000
FFC03FFFFFFFFF8000
FFC03FFFFFFFFF0000
FFC03FFFFFFFFE0000
FFC03FFFFFFFF80000
FFC03FFFFFFFE00000
FFC03FFFFFFFF00000
FFC0000000FFF80000
FFC00000007FFC0000
FFC00000003FFE0000
FFC00000001FFF0000
FFC00000001FFF8000
FFC00000000FFFC000
FFC000000007FFE000
FFC000000003FFF000
FFC000000001FFF800
FFC000000000FFFC00
FFC0000000007FFE00
FFC0000000003FFF00
FFC0000000001FFF80
FFC0000000000FFFC0
FFC00000000007FFE0
FFC00000000003FFF0
ENDCHAR
STARTCHAR s
ENCODING 115
SWIDTH 880 0
DWIDTH 70 0
BBX 63 58 4 0
BITMAP
0007FFFFFFFFFFF0
003FFFFFFFFFFFF0
00FFFFFFFFFFFFF0
03FFFFFFFFFFFFF0
07FFFFFFFFFFFFF0
0FFFFFFFFFFFFFF0
1FFFFFFFFFFFFFF0
3FFFFFFFFFFFFFF0
3FFFFFFFFFFFFFF0
7FFFFFFFFFFFFFF0
7FFF000000000000
7FF8000000000000
7FF0000000000000
FFE0000000000000
FFE0000000000000
FFE0000000000000
FFE0000000000000
FFE0000000000000
FFE0000000000000
FFE0000000000000
7FE0000000000000
7FF0000000000000
7FF8000000000000
3FFE000000000000
3FFFFFFFFFFFC000
1FFFFFFFFFFFFC00
1FFFFFFFFFFFFF00
0FFFFFFFFFFFFF80
07FFFFFFFFFFFFC0
03FFFFFFFFFFFFE0
00FFFFFFFFFFFFF0
003FFFFFFFFFFFF8
0007FFFFFFFFFFF8
000000000000FFFC
0000000000003FFC
0000000000000FFC
0000000000000FFC
00000000000007FE
00000000000007FE
00000000000007FE
00000000000007FE
00000000000007FE
00000000000007FE
00000000000007FE
0000000000000FFC
0000000000001FFC
0000000000003FFC
000000000000FFFC
7FFFFFFFFFFFFFF8
7FFFFFFFFFFFFFF8
7FFFFFFFFFFFFFF0
7FFFFFFFFFFFFFF0
7FFFFFFFFFFFFFE0
7FFFFFFFFFFFFFC0
7FFFFFFFFFFFFF80
7FFFFFFFFFFFFE00
7FFFFFFFFFFFF800
7FFFFFFFFFFFC000
ENDCHAR
STARTCHAR t
ENCODING 116
SWIDTH 720 0
DWIDTH 58 0
BBX 54 58 2 0
BITMAP
FFFFFFFFFFFFFC
FFFFFFFFFFFFFC
FFFFFFFFFFFFFC
FFFFFFFFFFFFFC
FFFFFFFFFFFFFC
FFFFFFFFFFFFFC
FFFFFFFFFFFFFC
FFFFFFFFFFFFFC
FFFFFFFFFFFFFC
FFFFFFFFFFFFFC
000003FF000000
000003FF000000
000003FF000000
000003FF000000
000003FF000000
000003FF000000
000003FF000000
000003FF000000
000003FF000000
000003FF000000
000003FF000000
000003FF000000
000003FF000000
000003FF000000
000003FF000000
000003FF000000
000003FF000000
000003FF000000
000003FF000000
000003FF000000
000003FF000000
000003FF000000
000003FF000000
000003FF000000
000003FF000000
000003FF000000
000003FF000000
000003FF000000
000003FF000000
000003FF000000
000003FF000000
000003FF000000
000003FF000000
000003FF000000
000003FF000000
000003FF000000
000003FF000000
000003FF000000
000003FF000000
000003FF000000
000003FF000000
000003FF000000
000003FF000000
000003FF000000
000003FF000000
000003FF000000
000003FF000000
000003FF000000
ENDCHAR
STARTCHAR u
ENCODING 117
SWIDTH 889 0
DWIDTH 71 0
BBX 63 59 4 -1
BITMAP
FFE00000000007FE
FFE00000000007FE
FFE00000000007FE
FFE00000000007FE
FFE00000000007FE
FFE00000000007FE
FFE00000000007FE
FFE00000000007FE
FFE00000000007FE
FFE00000000007FE
FFE00000000007FE
FFE00000000007FE
FFE00000000007FE
FFE00000000007FE
FFE00000000007FE
FFE00000000007FE
FFE00000000007FE
FFE00000000007FE
FFE00000000007FE
FFE00000000007FE
FFE00000000007FE
FFE00000000007FE
FFE00000000007FE
FFE00000000007FE
FFE00000000007FE
FFE00000000007FE
FFE00000000007FE
FFE00000000007FE
FFE00000000007FE
FFE00000000007FE
FFE00000000007FE
FFE00000000007FE
FFE00000000007FE
FFE00000000007FE
FFE00000000007FE
FFE00000000007FE
FFE00000000007FE
FFE00000000007FE
7FE0000000000FFE
7FF0000000000FFC
7FF0000000000FFC
7FF0000000001FFC
7FF8000000001FFC
3FFC000000003FF8
3FFE000000007FF8
3FFF00000000FFF8
1FFFC0000003FFF0
1FFFF000000FFFF0
0FFFFF8001FFFFE0
07FFFFFFFFFFFFC0
07FFFFFFFFFFFFC0
03FFFFFFFFFFFF80
01FFFFFFFFFFFF00
007FFFFFFFFFFC00
003FFFFFFFFFF800
000FFFFFFFFFE000
0003FFFFFFFF8000
00003FFFFFFC0000
000001FFFF000000
ENDCHAR
STARTCHAR v
ENCODING 118
SWIDTH 989 0
DWIDTH 79 0
BBX 77 59 1 -1
BITMAP
FFF80000000000007FF8
7FF8000000000000FFF0
3FFC000000000000FFE0
3FFE000000000001FFE0
1FFE000000000001FFC0
1FFF000000000003FFC0
0FFF000000000007FF80
07FF800000000007FF00
07FFC0000000000FFF00
03FFC0000000000FFE00
03FFE0000000001FFE00
01FFE0000000003FFC00
00FFF0000000003FF800
00FFF0000000007FF800
007FF8000000007FF000
007FFC00000000FFF000
003FFC00000000FFE000
001FFE00000001FFC000
001FFE00000003FFC000
000FFF00000003FF8000
000FFF80000007FF8000
0007FF80000007FF0000
0003FFC000000FFE0000
0003FFC000001FFE0000
0001FFE000001FFC0000
0001FFF000003FFC0000
0000FFF000003FF80000
00007FF800007FF00000
00007FF800007FF00000
00003FFC0000FFE00000
00003FFC0001FFE00000
00001FFE0001FFC00000
00000FFF0003FF800000
00000FFF0003FF800000
000007FF8007FF000000
000007FF800FFF000000
000003FFC00FFE000000
000001FFE01FFC000000
000001FFE01FFC000000
000000FFF03FF8000000
000000FFF07FF8000000
0000007FF87FF0000000
0000003FFCFFE0000000
0000003FFCFFE0000000
0000001FFFFFC0000000
0000001FFFFFC0000000
0000000FFFFF80000000
00000007FFFF00000000
00000007FFFF00000000
00000003FFFE00000000
00000003FFFE00000000
00000001FFFC00000000
00000000FFF800000000
00000000FFF800000000
000000007FF000000000
000000007FF000000000
000000003FE000000000
000000001FC000000000
000000000F8000000000
ENDCHAR
STARTCHAR w
ENCODING 119
SWIDTH 1268 0
DWIDTH 101 0
BBX 99 59 1 -1
BITMAP
FFF80007FFC00000000000FFE0
7FF80003FFC00000000001FFC0
7FFC0001FFE00000000001FFC0
3FFC0001FFE00000000003FF80
1FFE0000FFF00000000007FF80
1FFE0000FFF00000000007FF00
0FFF00007FF8000000000FFF00
0FFF00007FF8000000000FFE00
07FF80003FFC000000001FFE00
07FF80003FFC000000001FFC00
03FFC0001FFE000000003FFC00
03FFC0001FFE000000003FF800
01FFE0000FFF000000007FF800
01FFE00007FF000000007FF000
00FFF00007FF80000000FFE000
00FFF00003FFC0000000FFE000
007FF80003FFC0000001FFC000
003FF80001FFE0000001FFC000
003FFC0001FFE0000003FF8000
001FFE0000FFF0000003FF8000
001FFE0000FFF0000007FF0000
000FFF00007FF800000FFF0000
000FFF00007FF800000FFE0000
0007FF80003FFC00001FFE0000
0007FF80003FFC00001FFC0000
0003FFC0001FFE00003FFC0000
0003FFC0001FFE00003FF80000
0001FFE0000FFF00007FF00000
0001FFE0000FFF00007FF00000
0000FFF0000FFF8000FFE00000
00007FF0000FFF8000FFE00000
00007FF8001FFFC001FFC00000
00003FF8001FFFC001FFC00000
00003FFC003FFFE003FF800000
00001FFC003FFFE003FF800000
00001FFE007FFFF007FF000000
00000FFE00FFFFF007FF000000
00000FFF00FFFFF80FFE000000
000007FF01FFFFF80FFC000000
000007FF81FFBFFC1FFC000000
000003FFC3FF9FFC3FF8000000
000003FFC3FF1FFE3FF8000000
000001FFE7FF0FFE7FF0000000
000000FFE7FE0FFF7FF0000000
000000FFFFFE07FFFFE0000000
0000007FFFFC07FFFFE0000000
0000007FFFFC03FFFFC0000000
0000003FFFF803FFFFC0000000
0000003FFFF801FFFF80000000
0000001FFFF001FFFF80000000
0000001FFFF000FFFF00000000
0000000FFFE000FFFE00000000
0000000FFFC0007FFE00000000
00000007FFC0007FFC00000000
00000007FF80003FFC00000000
00000003FF80001FF800000000
00000001FF00001FF800000000
00000001FE00000FF000000000
000000007C000007C000000000
ENDCHAR
STARTCHAR x
ENCODING 120
SWIDTH 1000 0
DWIDTH 80 0
BBX 76 58 2 0
BITMAP
3FFF80000000001FFF80
0FFFC0000000001FFF00
07FFE0000000003FFE00
03FFF0000000007FFC00
01FFF800000000FFF800
00FFFC00000001FFF000
007FFE00000003FFE000
003FFF00000007FFC000
001FFF8000000FFF8000
000FFFC000001FFE0000
0007FFE000003FFC0000
0003FFF000007FF80000
0001FFF80000FFF00000
0000FFFC0001FFE00000
00007FFE0003FFC00000
00003FFF0007FF800000
00001FFF800FFF000000
00000FFFC01FFE000000
000007FFE03FFC000000
000003FFF07FF8000000
000001FFF8FFF0000000
000000FFFDFFE0000000
0000007FFFFFC0000000
0000003FFFFF80000000
0000001FFFFF00000000
0000000FFFFE00000000
00000007FFFC00000000
00000003FFF800000000
00000001FFF000000000
00000003FFFC00000000
00000007FFFE00000000
0000000FFFFF00000000
0000001FFFFF80000000
0000007FFFFFC0000000
000000FFFFFFE0000000
000001FFF3FFF0000000
000003FFE1FFF8000000
000007FFC0FFFC000000
00000FFF807FFE000000
00001FFF003FFF000000
00003FFE001FFF800000
00007FFC000FFFC00000
0000FFF80007FFE00000
0001FFF00003FFF00000
0003FFE00001FFF80000
0007FFC00000FFFE0000
000FFF8000007FFF0000
001FFF0000001FFF8000
003FFE0000000FFFC000
007FFC00000007FFE000
00FFF800000003FFF000
01FFF000000001FFF800
03FFE000000000FFFC00
0FFFC0000000007FFE00
1FFF80000000003FFF00
3FFF00000000001FFF80
7FFE00000000000FFFC0
FFF8000000000007FFF0
ENDCHAR
STARTCHAR y
ENCODING 121
SWIDTH 926 0
DWIDTH 74 0
BBX 72 58 1 0
BITMAP
FFFC00000000001FFF
7FFE00000000003FFE
3FFF00000000007FFC
1FFF8000000000FFF8
0FFF8000000001FFF0
07FFC000000003FFE0
03FFE000000003FFE0
03FFF000000007FFC0
01FFF80000000FFF80
00FFFC0000001FFF00
007FFC0000003FFE00
003FFE0000007FFC00
001FFF0000007FF800
000FFF800000FFF800
000FFFC00001FFF000
0007FFE00003FFE000
0003FFE00007FFC000
0001FFF0000FFF8000
0000FFF8000FFF0000
00007FFC001FFE0000
00007FFE003FFE0000
00003FFF007FFC0000
00001FFF00FFF80000
00000FFF81FFF00000
000007FFC1FFE00000
000003FFE3FFC00000
000001FFF7FF800000
000001FFFFFF800000
000000FFFFFF000000
0000007FFFFE000000
0000003FFFFC000000
0000001FFFF8000000
0000000FFFF0000000
00000007FFE0000000
00000007FFE0000000
00000003FFC0000000
00000001FF80000000
00000001FF80000000
00000001FF80000000
00000001FF80000000
00000001FF80000000
00000001FF80000000
00000001FF80000000
00000001FF80000000
00000001FF80000000
00000001FF80000000
00000001FF80000000
00000001FF80000000
00000001FF80000000
00000001FF80000000
00000001FF80000000
00000001FF80000000
00000001FF80000000
00000001FF80000000
00000001FF80000000
00000001FF80000000
00000001FF80000000
00000001FF80000000
ENDCHAR
STARTCHAR z
ENCODING 122
SWIDTH 802 0
DWIDTH 64 0
BBX 58 58 3 0
BITMAP
7FFFFFFFFFFFFC00
7FFFFFFFFFFFFF00
7FFFFFFFFFFFFF80
7FFFFFFFFFFFFF80
7FFFFFFFFFFFFFC0
7FFFFFFFFFFFFFC0
7FFFFFFFFFFFFF80
7FFFFFFFFFFFFF80
7FFFFFFFFFFFFF00
7FFFFFFFFFFFFE00
00000000007FFC00
0000000000FFF800
0000000001FFF000
0000000003FFE000
0000000007FFC000
000000000FFF8000
000000001FFF0000
000000003FFE0000
000000007FFC0000
00000000FFF80000
00000001FFF00000
00000007FFE00000
0000000FFFC00000
0000001FFF800000
0000003FFF000000
0000007FFE000000
000000FFFC000000
000001FFF8000000
000003FFF0000000
000007FFE0000000
00000FFFC0000000
00001FFF80000000
00003FFF00000000
00007FFE00000000
0000FFFC00000000
0001FFF800000000
0003FFF000000000
0007FFE000000000
000FFFC000000000
001FFF8000000000
003FFF0000000000
007FFE0000000000
00FFFC0000000000
01FFF80000000000
03FFF00000000000
07FFE00000000000
0FFFC00000000000
1FFF800000000000
3FFFFFFFFFFFFF80
7FFFFFFFFFFFFF80
7FFFFFFFFFFFFF80
FFFFFFFFFFFFFF80
FFFFFFFFFFFFFF80
FFFFFFFFFFFFFF80
FFFFFFFFFFFFFF80
7FFFFFFFFFFFFF80
3FFFFFFFFFFFFF80
1FFFFFFFFFFFFF80
ENDCHAR
STARTCHAR braceleft
ENCODING 123
SWIDTH 337 0
DWIDTH 27 0
BBX 17 73 5 -7
BITMAP
003F80
00FF80
03FF80
03FF80
07FF80
07FF80
0FFC00
0FF000
0FE000
0FE000
0FE000
0FE000
0FE000
0FE000
0FE000
0FE000
0FE000
0FE000
0FE000
0FE000
0FE000
0FE000
0FE000
0FE000
0FE000
0FE000
0FE000
0FE000
0FE000
0FE000
0FE000
0FE000
0FE000
1FC000
FFC000
FFC000
FF8000
FF0000
FFC000
FFC000
1FC000
0FE000
0FE000
0FE000
0FE000
0FE000
0FE000
0FE000
0FE000
0FE000
0FE000
0FE000
0FE000
0FE000
0FE000
0FE000
0FE000
0FE000
0FE000
0FE000
0FE000
0FE000
0FE000
0FE000
0FE000
0FF000
0FF800
07FF80
07FF80
03FF80
03FF80
00FF80
003F80
ENDCHAR
STARTCHAR bar
ENCODING 124
SWIDTH 297 0
DWIDTH 24 0
BBX 6 73 9 -7
BITMAP
FC
FC
FC
FC
FC
FC
FC
FC
FC
FC
FC
FC
FC
FC
FC
FC
FC
FC
FC
FC
FC
FC
FC
FC
FC
FC
FC
FC
FC
FC
FC
FC
FC
FC
FC
FC
FC
FC
FC
FC
FC
FC
FC
FC
FC
FC
FC
FC
FC
FC
FC
FC
FC
FC
FC
FC
FC
FC
FC
FC
FC
FC
FC
FC
FC
FC
FC
FC
FC
FC
FC
FC
FC
ENDCHAR
STARTCHAR braceright
ENCODING 125
SWIDTH 337 0
DWIDTH 27 0
BBX 17 73 5 -7
BITMAP
FE0000
FF8000
FFC000
FFE000
FFF000
FFF000
1FF000
07F800
07F800
03F800
03F800
03F800
03F800
03F800
03F800
03F800
03F800
03F800
03F800
03F800
03F800
03F800
03F800
03F800
03F800
03F800
03F800
03F800
03F800
03F800
03F800
03F800
03F800
03FC00
01FF80
01FF80
00FF80
00FF80
01FF80
01FF80
03FC00
03F800
03F800
03F800
03F800
03F800
03F800
03F800
03F800
03F800
03F800
03F800
03F800
03F800
03F800
03F800
03F800
03F800
03F800
03F800
03F800
03F800
03F800
03F800
03F800
07F800
0FF000
FFF000
FFF000
FFE000
FFC000
FF8000
FE0000
ENDCHAR
STARTCHAR asciitilde
ENCODING 126
SWIDTH 691 0
DWIDTH 55 0
BBX 45 12 5 24
BITMAP
01FF00000000
0FFFF0000008
3FFFFE000018
7FFFFFC00078
FFFFFFF803F8
FFFFFFFFFFF8
FFFFFFFFFFF8
FF00FFFFFFF8
F8000FFFFFF8
E00001FFFFF0
8000003FFFC0
00000007FC00
ENDCHAR
STARTCHAR nonbreakingspace
ENCODING 160
SWIDTH 294 0
DWIDTH 24 0
BBX 1 1 0 0
BITMAP
00
ENDCHAR
STARTCHAR exclamdown
ENCODING 161
SWIDTH 298 0
DWIDTH 24 0
BBX 11 58 7 0
BITMAP
1E00
7F80
FFC0
FFC0
FFC0
FFE0
FFC0
FFC0
FFC0
7F80
1F00
0000
0000
0000
0000
0000
0000
0000
0000
FFC0
FFC0
FFC0
FFC0
FFC0
FFC0
FFC0
FFC0
FFC0
FFC0
FFC0
FFC0
FFC0
FFC0
FFC0
FFC0
FFC0
FFC0
FFC0
FFC0
FFC0
FFC0
FFC0
FFC0
FFC0
FFC0
FFC0
FFC0
FFC0
FFC0
FFC0
FFC0
FFC0
FFC0
FFC0
FFC0
FFC0
FFC0
FFC0
ENDCHAR
STARTCHAR cent
ENCODING 162
SWIDTH 692 0
DWIDTH 55 0
BBX 48 58 3 0
BITMAP
000000078000
000000078000
000000078000
000000078000
000000078000
000000078000
00003FFFFFFF
0003FFFFFFFF
000FFFFFFFFF
003FFFFFFFFF
007FFFFFFFFF
01FFFFFFFFFF
03FFFFFFFFFF
07FFFFFFFFFF
07FFE0078000
0FFF00078000
1FFE00078000
1FF800078000
3FF000078000
3FF000078000
3FE000078000
7FC000078000
7FC000078000
7F8000078000
7F8000078000
FF8000078000
FF8000078000
FF8000078000
FF8000078000
FF8000078000
FF8000078000
FF8000078000
7F8000078000
7F8000078000
7F8000078000
7FC000078000
3FC000078000
3FE000078000
3FF000078000
1FF000078000
1FF800078000
0FFE00078000
0FFF00078000
07FFE0078000
03FFFFFFFFFF
01FFFFFFFFFF
00FFFFFFFFFF
007FFFFFFFFF
001FFFFFFFFF
000FFFFFFFFF
0001FFFFFFFF
00003FFFFFFF
000000078000
000000078000
000000078000
000000078000
000000078000
000000078000
ENDCHAR
STARTCHAR sterling
ENCODING 163
SWIDTH 709 0
DWIDTH 57 0
BBX 52 58 2 0
BITMAP
00000FFFFFE000
00007FFFFFE000
0001FFFFFFE000
0007FFFFFFE000
000FFFFFFFE000
001FFFFFFFE000
003FFFFFFFE000
003FFFFFFFE000
007FFFFFFFE000
007FFFFFFFE000
00FFFF00000000
00FFF800000000
00FFE000000000
00FFC000000000
00FFC000000000
01FF8000000000
01FF8000000000
01FF8000000000
01FF8000000000
01FF8000000000
01FF8000000000
01FF8000000000
01FF8000000000
01FF8000000000
1FFFFFFF800000
1FFFFFFF800000
1FFFFFFF800000
1FFFFFFF800000
1FFFFFFF800000
1FFFFFFF800000
1FFFFFFF800000
1FFFFFFF800000
01FF8000000000
01FF8000000000
01FF8000000000
01FF8000000000
01FF8000000000
01FF8000000000
01FF8000000000
01FF8000000000
01FF8000000000
01FF8000000000
01FF8000000000
01FF8000000000
01FF8000000000
01FF8000000000
01FF8000000000
01FF8000000000
FFFFFFFFFFFFF0
FFFFFFFFFFFFF0
FFFFFFFFFFFFF0
FFFFFFFFFFFFF0
FFFFFFFFFFFFF0
FFFFFFFFFFFFF0
FFFFFFFFFFFFF0
FFFFFFFFFFFFF0
FFFFFFFFFFFFF0
FFFFFFFFFFFFF0
ENDCHAR
STARTCHAR yen
ENCODING 165
SWIDTH 787 0
DWIDTH 63 0
BBX 59 58 2 0
BITMAP
FFF000000001FFE0
7FF800000003FFC0
7FF800000007FF80
3FFC00000007FF80
1FFE0000000FFF00
1FFE0000001FFE00
0FFF0000001FFE00
07FF8000003FFC00
07FF8000003FF800
03FFC000007FF800
01FFE00000FFF000
01FFE00000FFE000
00FFF00001FFE000
007FF00003FFC000
007FF80003FF8000
003FFC0007FF8000
001FFC0007FF0000
001FFE000FFE0000
000FFF001FFE0000
0007FF001FFC0000
0007FF803FF80000
0003FFC07FF80000
0001FFC07FF00000
0001FFE0FFE00000
0000FFF1FFE00000
00007FF1FFC00000
00007FFBFF800000
00003FFFFF800000
00001FFFFF000000
00000FFFFE000000
00000FFFFE000000
00FFFFFFFFFFE000
00FFFFFFFFFFE000
00FFFFFFFFFFE000
00FFFFFFFFFFE000
00FFFFFFFFFFE000
00FFFFFFFFFFE000
00FFFFFFFFFFE000
0000007FC0000000
0000007FC0000000
0000007FC0000000
0000007FC0000000
0000007FC0000000
0000007FC0000000
0000007FC0000000
00FFFFFFFFFFE000
00FFFFFFFFFFE000
00FFFFFFFFFFE000
00FFFFFFFFFFE000
00FFFFFFFFFFE000
00FFFFFFFFFFE000
00FFFFFFFFFFE000
0000007FC0000000
0000007FC0000000
0000007FC0000000
0000007FC0000000
0000007FC0000000
0000007FC0000000
ENDCHAR
STARTCHAR brokenbar
ENCODING 166
SWIDTH 297 0
DWIDTH 24 0
BBX 6 73 9 -7
BITMAP
FC
FC
FC
FC
FC
FC
FC
FC
FC
FC
FC
FC
FC
FC
FC
FC
FC
FC
FC
FC
FC
FC
FC
FC
FC
FC
FC
FC
FC
FC
FC
FC
00
00
00
00
00
00
00
00
00
FC
FC
FC
FC
FC
FC
FC
FC
FC
FC
FC
FC
FC
FC
FC
FC
FC
FC
FC
FC
FC
FC
FC
FC
FC
FC
FC
FC
FC
FC
FC
FC
ENDCHAR
STARTCHAR section
ENCODING 167
SWIDTH 773 0
DWIDTH 62 0
BBX 53 75 4 -17
BITMAP
000FFFFFFFFE00
007FFFFFFFFE00
01FFFFFFFFFE00
07FFFFFFFFFE00
0FFFFFFFFFFE00
1FFFFFFFFFFE00
1FFFFFFFFFFE00
3FFFFFFFFFFE00
7FFFFFFFFFFE00
7FFFFFFFFFFE00
7FFE0000000000
FFF80000000000
FFE00000000000
FFC00000000000
FFC00000000000
FFC00000000000
FFC00000000000
FFC00000000000
FFC00000000000
FFC00000000000
7FC00000000000
7FE00000000000
7FF00000000000
3FF80000000000
1FFFFFFFFF8000
1FFFFFFFFFF000
0FFFFFFFFFFC00
07FFFFFFFFFE00
01FFFFFFFFFF00
03FFFFFFFFFF80
07FFFFFFFFFF80
07FE000003FFC0
0FF8000001FFC0
0FF8000000FFC0
1FF00000007FC0
1FF00000007FC0
1FF00000007FC0
1FF00000007FC0
1FF00000007FC0
1FF00000007FC0
1FF00000007FC0
1FF8000000FF80
1FFC000000FF80
1FFE000003FF00
0FFFFFFFFFFF00
0FFFFFFFFFFE00
07FFFFFFFFFC00
03FFFFFFFFFE00
01FFFFFFFFFF80
007FFFFFFFFFC0
000FFFFFFFFFC0
0000000001FFE0
00000000007FF0
00000000003FF0
00000000001FF0
00000000001FF8
00000000001FF8
00000000001FF8
00000000001FF8
00000000001FF8
00000000001FF8
00000000001FF8
00000000003FF8
0000000000FFF8
0000000003FFF0
03FFFFFFFFFFF0
03FFFFFFFFFFF0
03FFFFFFFFFFE0
03FFFFFFFFFFE0
03FFFFFFFFFFC0
03FFFFFFFFFF80
03FFFFFFFFFF00
03FFFFFFFFFC00
03FFFFFFFFF000
03FFFFFFFFC000
ENDCHAR
STARTCHAR dieresis
ENCODING 168
SWIDTH 393 0
DWIDTH 31 0
BBX 23 7 4 64
BITMAP
3E0078
7F00FE
FF01FE
FF01FE
FF01FE
7F00FE
3E0078
ENDCHAR
STARTCHAR copyright
ENCODING 169
SWIDTH 829 0
DWIDTH 66 0
BBX 60 60 3 -2
BITMAP
0000007FF0000000
000007FFFF000000
00003FFFFFC00000
0000FF000FF00000
0003F80000FC0000
0007C000003E0000
000F8000000F8000
003E00000007C000
007C00000001E000
00F000000000F000
01E0000000007800
01C0000000003C00
03C0000000001C00
0780000000000E00
0700000000000F00
0E00000000000700
1E00003FFF000380
1C0001FFFF000380
1C0007FFFF0001C0
38000FFFFF0001C0
38001FC0000000C0
38003F00000000E0
70007E00000000E0
7000FC0000000060
7000F80000000060
7000F00000000070
6001F00000000070
E001F00000000070
E001E00000000070
E001E00000000070
E001E00000000070
E001E00000000070
E001F00000000070
6000F00000000070
7000F00000000070
7000F80000000060
70007C0000000060
70007E00000000E0
38003F00000000E0
38001FC0000000C0
38000FFFFF0001C0
1C0007FFFF0001C0
1C0001FFFF000380
0E00003FFF000380
0E00000000000700
0700000000000F00
0780000000000E00
03C0000000001C00
01C0000000003C00
00E0000000007800
007800000000F000
003C00000001E000
001E00000007C000
000F8000000F0000
0007E000003E0000
0001F80001FC0000
00007F800FF00000
00001FFFFFC00000
000007FFFE000000
0000003FE0000000
ENDCHAR
STARTCHAR ordfeminine
ENCODING 170
SWIDTH 604 0
DWIDTH 48 0
BBX 42 33 3 24
BITMAP
000004000000
00001E000000
00003F000000
00003F800000
00007F800000
0000FFC00000
0000FFC00000
0001FFE00000
0001FFF00000
0003F7F00000
0007F3F80000
0007E1F80000
000FE1FC0000
000FC0FE0000
001F80FE0000
001F807F0000
003F007F0000
007F003F8000
007E001FC000
00FC001FC000
00FC000FE000
01F83FFFE000
03F87FFFF000
03F07FFFF800
07E0FFFFF800
07E00001FC00
0FC00000FC00
1FC00000FE00
1F8000007F00
3F0000007F00
3F0000003F80
7E0000001F80
FE0000001FC0
ENDCHAR
STARTCHAR guillemotleft
ENCODING 171
SWIDTH 629 0
DWIDTH 50 0
BBX 44 30 3 15
BITMAP
000001000010
000006000030
00000E000070
00003E0001F0
0000FE0007F0
0001FE000FF0
0007F8003FC0
001FF000FF80
003FC001FE00
00FF0007F800
03FC001FE000
07F8007FC000
1FE000FF0000
7F8003FC0000
7E0007F00000
FC0007E00000
7E0003F00000
3F8001FC0000
0FE000FF0000
07F8003FC000
01FC000FE000
007F0007F800
003FC001FE00
000FF0007F80
0003F8003FC0
0001FE000FF0
00007E0003F0
00003E0001F0
00000E000070
000002000010
ENDCHAR
STARTCHAR registered
ENCODING 174
SWIDTH 585 0
DWIDTH 47 0
BBX 37 37 5 21
BITMAP
0003FE0000
001FFFC000
007FFFF000
00FC01F800
03E0007C00
07C0001E00
0F00000F00
0E00000780
1C000003C0
3C000001C0
383FFF00E0
783FFFC0E0
703FFFC070
703801E070
E03800E070
E03800E078
E03800E038
E03800E038
E038FFC038
E038FFC038
E038FF0038
E038078078
E03803C070
703801E070
703800F070
78000008E0
38000000E0
3C000001C0
1E000003C0
0E00000780
0F80000F00
07C0001E00
03F0007C00
00FE03F800
007FFFF000
001FFFC000
0003FC0000
ENDCHAR
STARTCHAR macron
ENCODING 175
SWIDTH 362 0
DWIDTH 29 0
BBX 21 5 4 65
BITMAP
FFFFF8
FFFFF8
FFFFF8
FFFFF8
FFFFF8
ENDCHAR
STARTCHAR degree
ENCODING 176
SWIDTH 361 0
DWIDTH 29 0
BBX 23 23 3 35
BITMAP
01FE00
07FFC0
1FFFE0
1FFFF0
3FFFF8
7F03F8
7E00FC
7C007C
78007C
F8003C
F8003C
F8003E
F8003E
F8003C
78007C
7C007C
7E00FC
7F03F8
3FFFF8
1FFFF0
1FFFE0
07FFC0
01FE00
ENDCHAR
STARTCHAR plusminus
ENCODING 177
SWIDTH 690 0
DWIDTH 55 0
BBX 45 56 5 -4
BITMAP
00001FC00000
00001FC00000
00001FC00000
00001FC00000
00001FC00000
00001FC00000
00001FC00000
00001FC00000
00001FC00000
00001FC00000
00001FC00000
00001FC00000
00001FC00000
00001FC00000
00001FC00000
00001FC00000
00001FC00000
00001FC00000
00001FC00000
FFFFFFFFFFF8
FFFFFFFFFFF8
FFFFFFFFFFF8
FFFFFFFFFFF8
FFFFFFFFFFF8
FFFFFFFFFFF8
FFFFFFFFFFF8
00001FC00000
00001FC00000
00001FC00000
00001FC00000
00001FC00000
00001FC00000
00001FC00000
00001FC00000
00001FC00000
00001FC00000
00001FC00000
00001FC00000
00001FC00000
00001FC00000
00001FC00000
00001FC00000
00001FC00000
00001FC00000
00001FC00000
000000000000
000000000000
000000000000
000000000000
FFFFFFFFFFF8
FFFFFFFFFFF8
FFFFFFFFFFF8
FFFFFFFFFFF8
FFFFFFFFFFF8
FFFFFFFFFFF8
FFFFFFFFFFF8
ENDCHAR
STARTCHAR twosuperior
ENCODING 178
SWIDTH 442 0
DWIDTH 35 0
BBX 28 29 4 30
BITMAP
FFFFFE00
FFFFFF80
FFFFFFC0
FFFFFFE0
FFFFFFE0
000007F0
000003F0
000001F0
000001F0
000001F0
000003F0
000007E0
07FFFFE0
1FFFFFC0
3FFFFF80
7FFFFE00
FC000000
F8000000
F8000000
F8000000
F0000000
F0000000
F0000000
F0000000
FFFFFFF0
FFFFFFF0
FFFFFFF0
FFFFFFF0
FFFFFFF0
ENDCHAR
STARTCHAR threesuperior
ENCODING 179
SWIDTH 443 0
DWIDTH 35 0
BBX 29 29 3 30
BITMAP
FFFFFE00
FFFFFFC0
FFFFFFE0
FFFFFFF0
FFFFFFF0
000003F8
000001F8
000000F8
000000F8
000000F8
000001F0
000003F0
01FFFFE0
01FFFF80
01FFFFE0
01FFFFF0
000003F0
000001F8
000000F8
000000F8
000000F8
000000F8
000001F8
000003F8
FFFFFFF0
FFFFFFF0
FFFFFFE0
FFFFFFC0
FFFFFE00
ENDCHAR
STARTCHAR acute
ENCODING 180
SWIDTH 362 0
DWIDTH 29 0
BBX 21 10 4 62
BITMAP
000038
0001F8
001FF8
00FFF8
07FFF8
7FFFF8
FFFFC0
FFFC00
FF8000
F00000
ENDCHAR
STARTCHAR paragraph
ENCODING 182
SWIDTH 629 0
DWIDTH 50 0
BBX 41 66 4 -8
BITMAP
007FFFFFFF80
03FFFFFFFF80
0FFFFFFFFF80
1FFFFFFFFF80
3FFFFFFFFF80
7FFFFFFFFF80
7FFFFF801F80
FFFFFF801F80
FFFFFF801F80
FFFFFF801F80
FFFFFF801F80
FFFFFF801F80
FFFFFF801F80
FFFFFF801F80
FFFFFF801F80
FFFFFF801F80
FFFFFF801F80
FFFFFF801F80
7FFFFF801F80
7FFFFF801F80
3FFFFF801F80
3FFFFF801F80
1FFFFF801F80
0FFFFF801F80
03FFFF801F80
007FFF801F80
00003F801F80
00003F801F80
00003F801F80
00003F801F80
00003F801F80
00003F801F80
00003F801F80
00003F801F80
00003F801F80
00003F801F80
00003F801F80
00003F801F80
00003F801F80
00003F801F80
00003F801F80
00003F801F80
00003F801F80
00003F801F80
00003F801F80
00003F801F80
00003F801F80
00003F801F80
00003F801F80
00003F801F80
00003F801F80
00003F801F80
00003F801F80
00003F801F80
00003F801F80
00003F801F80
00003F801F80
00003F801F80
00003F801F80
00003F801F80
00003F801F80
00003F801F80
00003F801F80
00003F801F80
00003F801F80
00003F801F80
ENDCHAR
STARTCHAR periodcentered
ENCODING 183
SWIDTH 262 0
DWIDTH 21 0
BBX 11 11 5 23
BITMAP
1F00
3F80
7FC0
FFE0
FFE0
FFE0
FFE0
FFE0
7FC0
3F80
1F00
ENDCHAR
STARTCHAR cedilla
ENCODING 184
SWIDTH 219 0
DWIDTH 18 0
BBX 11 12 3 -16
BITMAP
FFE0
7FC0
3FC0
3FC0
3F80
1F80
1F00
0F00
0E00
0600
0600
0400
ENDCHAR
STARTCHAR onesuperior
ENCODING 185
SWIDTH 222 0
DWIDTH 18 0
BBX 12 29 2 30
BITMAP
FE00
FF80
FFC0
FFE0
FFE0
07E0
03F0
01F0
01F0
01F0
01F0
01F0
01F0
01F0
01F0
01F0
01F0
01F0
01F0
01F0
01F0
01F0
01F0
01F0
01F0
01F0
01F0
01F0
01F0
ENDCHAR
STARTCHAR ordmasculine
ENCODING 186
SWIDTH 592 0
DWIDTH 47 0
BBX 39 32 4 24
BITMAP
000FFFF000
007FFFFE00
01FFFFFF80
07FFFFFFC0
0FFFFFFFE0
0FFFFFFFF0
1FF8001FF8
3FC00007F8
3F800003FC
7F000001FC
7E000000FC
7E0000007E
FC0000007E
FC0000007E
FC0000003E
FC0000003E
FC0000003E
FC0000003E
FC0000007E
7C0000007E
7E0000007E
7E000000FC
3F000001FC
3F800003F8
1FC00007F8
1FF8001FF0
0FFFFFFFF0
07FFFFFFE0
03FFFFFFC0
01FFFFFF00
007FFFFC00
000FFFF000
ENDCHAR
STARTCHAR guillemotright
ENCODING 187
SWIDTH 629 0
DWIDTH 50 0
BBX 44 30 3 15
BITMAP
800004000000
C00006000000
F00007800000
F80007C00000
FE0007F00000
FF8007FC0000
3FE001FE0000
0FF0007F8000
03FC003FE000
01FF000FF000
007F8003FC00
001FE000FF00
0007F8007F80
0003FC001FE0
0000FE0007F0
00003E0001F0
0000FE0007F0
0003FC001FC0
0007F0007F80
001FC000FE00
007F8003F800
01FE000FF000
03F8003FC000
0FF0007F0000
3FC001FE0000
FF0007F80000
FE0007E00000
F80007C00000
E00007000000
C00004000000
ENDCHAR
STARTCHAR onequarter
ENCODING 188
SWIDTH 972 0
DWIDTH 78 0
BBX 71 67 3 -5
BITMAP
0000000000000FF000
0000000000000FE000
0000000000001FC000
01F8000000003F8000
01FE000000007F0000
01FF800000007E0000
01FF80000000FE0000
01FFC0000001FC0000
000FC0000003F80000
0007E0000007F00000
0003E0000007F00000
0003E000000FE00000
0003E000001FC00000
0003E000003F800000
0003E000003F000000
0003E000007F000000
0003E00000FE000000
0003E00001FC000000
0003E00003F8000000
0003E00003F0000000
0003E00007F0000000
0003E0000FE0000000
0003E0001FC0000000
0003E0003F80000000
0003E0003F80000000
0003E0007F00000000
0003E000FE00000000
0003E001FC00000000
0003E001F800000000
0003E003F800000000
0003E007F000000000
0003E00FE000000000
0000001FC000000000
0000001FC000000000
0000003F807C0003E0
0000007F007C0003E0
000000FE007C0003E0
000001FC007C0003E0
000001FC007C0003E0
000003F8007C0003E0
000007F0007C0003E0
00000FE0007C0003E0
00000FC0007C0003E0
00001FC0007C0003E0
00003F80007C0003E0
00007F00007C0003E0
0000FE00007C0003E0
0000FE00007C0003E0
0001FC00007C0003E0
0003F800007E0003E0
0007F000007FFFFFFE
000FE000003FFFFFFE
000FE000001FFFFFFE
001FC000000FFFFFFE
003F80000003FFFFFE
007F000000000003E0
007F000000000003E0
00FE000000000003E0
01FC000000000003E0
03F8000000000003E0
07F0000000000003E0
07F0000000000003E0
0FE0000000000003E0
1FC000000000000000
3F8000000000000000
3F8000000000000000
FF0000000000000000
ENDCHAR
STARTCHAR onehalf
ENCODING 189
SWIDTH 948 0
DWIDTH 76 0
BBX 69 67 3 -5
BITMAP
0000000000000FF000
0000000000000FE000
0000000000001FC000
01F8000000003F8000
01FE000000007F0000
01FF800000007E0000
01FF80000000FE0000
01FFC0000001FC0000
000FC0000003F80000
0007E0000007F00000
0003E0000007F00000
0003E000000FE00000
0003E000001FC00000
0003E000003F800000
0003E000003F000000
0003E000007F000000
0003E00000FE000000
0003E00001FC000000
0003E00003F8000000
0003E00003F0000000
0003E00007F0000000
0003E0000FE0000000
0003E0001FC0000000
0003E0003F80000000
0003E0003F80000000
0003E0007F00000000
0003E000FE00000000
0003E001FC00000000
0003E001F800000000
0003E003F800000000
0003E007F000000000
0003E00FE000000000
0000001FC000000000
0000001FC000000000
0000003F807FFFFF00
0000007F007FFFFFC0
000000FE007FFFFFE0
000001FC007FFFFFF0
000001FC007FFFFFF8
000003F800000001F8
000007F000000000F8
00000FE000000000F8
00000FC000000000F8
00001FC000000000F8
00003F8000000000F8
00007F0000000001F8
0000FE000003FFFFF0
0000FE00000FFFFFE0
0001FC00001FFFFFC0
0003F800003FFFFF00
0007F000003F000000
000FE000007E000000
000FE000007C000000
001FC000007C000000
003F8000007C000000
007F0000007C000000
007F0000007C000000
00FE0000007C000000
01FC0000007FFFFFF8
03F80000007FFFFFF8
07F00000007FFFFFF8
07F00000007FFFFFF8
0FE00000007FFFFFF8
1FC000000000000000
3F8000000000000000
3F8000000000000000
FF0000000000000000
ENDCHAR
STARTCHAR threequarters
ENCODING 190
SWIDTH 1029 0
DWIDTH 82 0
BBX 76 67 3 -5
BITMAP
000000000000007F0000
00000000000000FE0000
00000000000001FC0000
FFFFFF00000001FC0000
FFFFFFC0000003F80000
FFFFFFE0000007F00000
FFFFFFF000000FE00000
FFFFFFF800000FC00000
000003F800001FC00000
000001F800003F800000
000000F800007F000000
000000F80000FE000000
000000F80000FE000000
000001F80001FC000000
000003F00003F8000000
01FFFFE00007F0000000
01FFFF800007E0000000
01FFFFE0000FE0000000
01FFFFF0001FC0000000
000001F8003F80000000
000000F8007F00000000
000000F8007E00000000
000000FC00FE00000000
000000FC01FC00000000
000000FC03F800000000
000001F807F000000000
000003F807F000000000
FFFFFFF80FE000000000
FFFFFFF01FC000000000
FFFFFFE03F8000000000
FFFFFFC03F0000000000
FFFFFF007F0000000000
00000000FE0000000000
00000001FC0000000000
00000003F807C0001F00
00000003F807C0001F00
00000007F007C0001F00
0000000FE007C0001F00
0000001FC007C0001F00
0000003F8007C0001F00
0000003F8007C0001F00
0000007F0007C0001F00
000000FE0007C0001F00
000001FC0007C0001F00
000001F80007C0001F00
000003F80007C0001F00
000007F00007C0001F00
00000FE00007C0001F00
00001FC00007E0001F00
00001FC00003F0001F00
00003F800003FFFFFFF0
00007F000003FFFFFFF0
0000FE000001FFFFFFF0
0001FC000000FFFFFFF0
0001FC0000001FFFFFF0
0003F800000000001F00
0007F000000000001F00
000FE000000000001F00
000FE000000000001F00
001FC000000000001F00
003F8000000000001F00
007F0000000000001F00
00FE0000000000001F00
00FE0000000000000000
01FC0000000000000000
03F80000000000000000
07F00000000000000000
ENDCHAR
STARTCHAR questiondown
ENCODING 191
SWIDTH 776 0
DWIDTH 62 0
BBX 56 58 2 0
BITMAP
00000000000F00
00000000003FC0
00000000007FE0
00000000007FE0
00000000007FE0
00000000007FE0
00000000007FE0
00000000007FE0
00000000007FE0
00000000003FC0
00000000000F00
00000000000000
00000000000000
00000000000000
00000000000000
00000000000000
00000000000000
00000000000000
00000000000000
00000000007FE0
00000000007FE0
00000000007FE0
00000000007FE0
00000000007FE0
00000000007FE0
0000000000FFE0
0007FFFFFFFFE0
003FFFFFFFFFC0
00FFFFFFFFFFC0
03FFFFFFFFFF80
07FFFFFFFFFF80
0FFFFFFFFFFF00
1FFFFFFFFFFE00
1FFFFFFFFFF800
3FFFFFFFFFC000
7FFE0000000000
7FF80000000000
7FF00000000000
7FE00000000000
FFE00000000000
FFE00000000000
FFE00000000000
FFE00000000000
FFE00000000000
FFE00000000000
7FF00000000000
7FF80000000000
7FFE0000000000
7FFFFFFFFFFFFF
3FFFFFFFFFFFFF
3FFFFFFFFFFFFF
1FFFFFFFFFFFFF
0FFFFFFFFFFFFF
07FFFFFFFFFFFF
03FFFFFFFFFFFF
01FFFFFFFFFFFF
003FFFFFFFFFFF
0007FFFFFFFFFF
ENDCHAR
STARTCHAR Agrave
ENCODING 192
SWIDTH 989 0
DWIDTH 79 0
BBX 77 72 1 0
BITMAP
00000038000000000000
0000003F000000000000
0000003FE00000000000
0000003FFE0000000000
0000003FFFC000000000
0000003FFFF800000000
0000000FFFFC00000000
000000007FFC00000000
0000000007FC00000000
00000000003C00000000
00000000000000000000
00000000000000000000
00000000000000000000
000000000F8000000000
000000001FC000000000
000000003FE000000000
000000007FF000000000
000000007FF000000000
00000000FFF800000000
00000000FFF800000000
00000001FFFC00000000
00000003FFFE00000000
00000003FFFE00000000
00000007FFFF00000000
00000007FFFF00000000
0000000FFFFF80000000
0000001FFFFFC0000000
0000001FFFFFC0000000
0000003FF9FFE0000000
0000003FF9FFE0000000
0000007FF0FFF0000000
000000FFF07FF8000000
000000FFE07FF8000000
000001FFC03FFC000000
000001FFC03FFC000000
000003FF801FFE000000
000007FF800FFF000000
000007FF000FFF000000
00000FFF0007FF800000
00000FFE0007FF800000
00001FFC0003FFC00000
00003FFC0001FFE00000
00003FF80001FFE00000
00007FF80000FFF00000
00007FF00000FFF00000
0000FFE000007FF80000
0001FFE000003FFC0000
0001FFC000003FFC0000
0003FFC000001FFE0000
0003FF807FFFFFFE0000
0007FF00FFFFFFFF0000
000FFF00FFFFFFFF8000
000FFE01FFFFFFFF8000
001FFE01FFFFFFFFC000
001FFC03FFFFFFFFC000
003FF807FFFFFFFFE000
007FF80FFFFFFFFFF000
007FF000000000FFF000
00FFF0000000007FF800
00FFE0000000007FF800
01FFE0000000003FFC00
03FFC0000000001FFE00
03FF80000000001FFE00
07FF80000000000FFF00
07FF00000000000FFF00
0FFF000000000007FF80
1FFE000000000007FFC0
1FFC000000000003FFC0
3FFC000000000001FFE0
3FF8000000000001FFE0
7FF8000000000000FFF0
FFF0000000000000FFF8
ENDCHAR
STARTCHAR Aacute
ENCODING 193
SWIDTH 989 0
DWIDTH 79 0
BBX 77 72 1 0
BITMAP
000000000000E0000000
000000000007E0000000
00000000003FE0000000
0000000003FFE0000000
000000001FFFE0000000
00000000FFFFE0000000
00000001FFFF80000000
00000001FFF000000000
00000001FF0000000000
00000001E00000000000
00000000000000000000
00000000000000000000
00000000000000000000
000000000F8000000000
000000001FC000000000
000000003FE000000000
000000007FF000000000
000000007FF000000000
00000000FFF800000000
00000000FFF800000000
00000001FFFC00000000
00000003FFFE00000000
00000003FFFE00000000
00000007FFFF00000000
00000007FFFF00000000
0000000FFFFF80000000
0000001FFFFFC0000000
0000001FFFFFC0000000
0000003FF9FFE0000000
0000003FF9FFE0000000
0000007FF0FFF0000000
000000FFF07FF8000000
000000FFE07FF8000000
000001FFC03FFC000000
000001FFC03FFC000000
000003FF801FFE000000
000007FF800FFF000000
000007FF000FFF000000
00000FFF0007FF800000
00000FFE0007FF800000
00001FFC0003FFC00000
00003FFC0001FFE00000
00003FF80001FFE00000
00007FF80000FFF00000
00007FF00000FFF00000
0000FFE000007FF80000
0001FFE000003FFC0000
0001FFC000003FFC0000
0003FFC000001FFE0000
0003FF807FFFFFFE0000
0007FF00FFFFFFFF0000
000FFF00FFFFFFFF8000
000FFE01FFFFFFFF8000
001FFE01FFFFFFFFC000
001FFC03FFFFFFFFC000
003FF807FFFFFFFFE000
007FF80FFFFFFFFFF000
007FF000000000FFF000
00FFF0000000007FF800
00FFE0000000007FF800
01FFE0000000003FFC00
03FFC0000000001FFE00
03FF80000000001FFE00
07FF80000000000FFF00
07FF00000000000FFF00
0FFF000000000007FF80
1FFE000000000007FFC0
1FFC000000000003FFC0
3FFC000000000001FFE0
3FF8000000000001FFE0
7FF8000000000000FFF0
FFF0000000000000FFF8
ENDCHAR
STARTCHAR Acircumflex
ENCODING 194
SWIDTH 989 0
DWIDTH 79 0
BBX 77 72 1 0
BITMAP
000000001FE000000000
000000003FE000000000
000000007FF000000000
000000007DF800000000
00000000F8F800000000
00000001F87C00000000
00000003F07E00000000
00000003E03E00000000
00000007E01F00000000
0000000FC01F80000000
0000000F800F80000000
00000000000000000000
00000000000000000000
000000000F8000000000
000000001FC000000000
000000003FE000000000
000000007FF000000000
000000007FF000000000
00000000FFF800000000
00000000FFF800000000
00000001FFFC00000000
00000003FFFE00000000
00000003FFFE00000000
00000007FFFF00000000
00000007FFFF00000000
0000000FFFFF80000000
0000001FFFFFC0000000
0000001FFFFFC0000000
0000003FF9FFE0000000
0000003FF9FFE0000000
0000007FF0FFF0000000
000000FFF07FF8000000
000000FFE07FF8000000
000001FFC03FFC000000
000001FFC03FFC000000
000003FF801FFE000000
000007FF800FFF000000
000007FF000FFF000000
00000FFF0007FF800000
00000FFE0007FF800000
00001FFC0003FFC00000
00003FFC0001FFE00000
00003FF80001FFE00000
00007FF80000FFF00000
00007FF00000FFF00000
0000FFE000007FF80000
0001FFE000003FFC0000
0001FFC000003FFC0000
0003FFC000001FFE0000
0003FF807FFFFFFE0000
0007FF00FFFFFFFF0000
000FFF00FFFFFFFF8000
000FFE01FFFFFFFF8000
001FFE01FFFFFFFFC000
001FFC03FFFFFFFFC000
003FF807FFFFFFFFE000
007FF80FFFFFFFFFF000
007FF000000000FFF000
00FFF0000000007FF800
00FFE0000000007FF800
01FFE0000000003FFC00
03FFC0000000001FFE00
03FF80000000001FFE00
07FF80000000000FFF00
07FF00000000000FFF00
0FFF000000000007FF80
1FFE000000000007FFC0
1FFC000000000003FFC0
3FFC000000000001FFE0
3FF8000000000001FFE0
7FF8000000000000FFF0
FFF0000000000000FFF8
ENDCHAR
STARTCHAR Atilde
ENCODING 195
SWIDTH 989 0
DWIDTH 79 0
BBX 77 70 1 0
BITMAP
00000001F00080000000
00000007FC0080000000
0000000FFF8380000000
0000000FFFFF80000000
0000000E0FFF80000000
0000000803FF00000000
00000008007C00000000
00000000000000000000
00000000000000000000
00000000000000000000
00000000000000000000
000000000F8000000000
000000001FC000000000
000000003FE000000000
000000007FF000000000
000000007FF000000000
00000000FFF800000000
00000000FFF800000000
00000001FFFC00000000
00000003FFFE00000000
00000003FFFE00000000
00000007FFFF00000000
00000007FFFF00000000
0000000FFFFF80000000
0000001FFFFFC0000000
0000001FFFFFC0000000
0000003FF9FFE0000000
0000003FF9FFE0000000
0000007FF0FFF0000000
000000FFF07FF8000000
000000FFE07FF8000000
000001FFC03FFC000000
000001FFC03FFC000000
000003FF801FFE000000
000007FF800FFF000000
000007FF000FFF000000
00000FFF0007FF800000
00000FFE0007FF800000
00001FFC0003FFC00000
00003FFC0001FFE00000
00003FF80001FFE00000
00007FF80000FFF00000
00007FF00000FFF00000
0000FFE000007FF80000
0001FFE000003FFC0000
0001FFC000003FFC0000
0003FFC000001FFE0000
0003FF807FFFFFFE0000
0007FF00FFFFFFFF0000
000FFF00FFFFFFFF8000
000FFE01FFFFFFFF8000
001FFE01FFFFFFFFC000
001FFC03FFFFFFFFC000
003FF807FFFFFFFFE000
007FF80FFFFFFFFFF000
007FF000000000FFF000
00FFF0000000007FF800
00FFE0000000007FF800
01FFE0000000003FFC00
03FFC0000000001FFE00
03FF80000000001FFE00
07FF80000000000FFF00
07FF00000000000FFF00
0FFF000000000007FF80
1FFE000000000007FFC0
1FFC000000000003FFC0
3FFC000000000001FFE0
3FF8000000000001FFE0
7FF8000000000000FFF0
FFF0000000000000FFF8
ENDCHAR
STARTCHAR Adieresis
ENCODING 196
SWIDTH 989 0
DWIDTH 79 0
BBX 77 71 1 0
BITMAP
00000007800F00000000
0000000FE03F80000000
0000001FE03FC0000000
0000001FE03FC0000000
0000001FE03FC0000000
0000000FE03F80000000
00000007800F00000000
00000000000000000000
00000000000000000000
00000000000000000000
00000000000000000000
00000000000000000000
000000000F8000000000
000000001FC000000000
000000003FE000000000
000000007FF000000000
000000007FF000000000
00000000FFF800000000
00000000FFF800000000
00000001FFFC00000000
00000003FFFE00000000
00000003FFFE00000000
00000007FFFF00000000
00000007FFFF00000000
0000000FFFFF80000000
0000001FFFFFC0000000
0000001FFFFFC0000000
0000003FF9FFE0000000
0000003FF9FFE0000000
0000007FF0FFF0000000
000000FFF07FF8000000
000000FFE07FF8000000
000001FFC03FFC000000
000001FFC03FFC000000
000003FF801FFE000000
000007FF800FFF000000
000007FF000FFF000000
00000FFF0007FF800000
00000FFE0007FF800000
00001FFC0003FFC00000
00003FFC0001FFE00000
00003FF80001FFE00000
00007FF80000FFF00000
00007FF00000FFF00000
0000FFE000007FF80000
0001FFE000003FFC0000
0001FFC000003FFC0000
0003FFC000001FFE0000
0003FF807FFFFFFE0000
0007FF00FFFFFFFF0000
000FFF00FFFFFFFF8000
000FFE01FFFFFFFF8000
001FFE01FFFFFFFFC000
001FFC03FFFFFFFFC000
003FF807FFFFFFFFE000
007FF80FFFFFFFFFF000
007FF000000000FFF000
00FFF0000000007FF800
00FFE0000000007FF800
01FFE0000000003FFC00
03FFC0000000001FFE00
03FF80000000001FFE00
07FF80000000000FFF00
07FF00000000000FFF00
0FFF000000000007FF80
1FFE000000000007FFC0
1FFC000000000003FFC0
3FFC000000000001FFE0
3FF8000000000001FFE0
7FF8000000000000FFF0
FFF0000000000000FFF8
ENDCHAR
STARTCHAR Aring
ENCODING 197
SWIDTH 989 0
DWIDTH 79 0
BBX 77 78 1 0
BITMAP
000000007FF000000000
00000001FFFC00000000
00000003FFFE00000000
00000007C01F00000000
00000007800F00000000
00000007000700000000
0000000F000380000000
0000000E000380000000
0000000E000380000000
0000000F000380000000
00000007000700000000
00000007800F00000000
00000003C01E00000000
00000003FFFE00000000
00000001FFFC00000000
000000007FE000000000
00000000000000000000
00000000000000000000
00000000000000000000
000000000F8000000000
000000001FC000000000
000000003FE000000000
000000007FF000000000
000000007FF000000000
00000000FFF800000000
00000000FFF800000000
00000001FFFC00000000
00000003FFFE00000000
00000003FFFE00000000
00000007FFFF00000000
00000007FFFF00000000
0000000FFFFF80000000
0000001FFFFFC0000000
0000001FFFFFC0000000
0000003FF9FFE0000000
0000003FF9FFE0000000
0000007FF0FFF0000000
000000FFF07FF8000000
000000FFE07FF8000000
000001FFC03FFC000000
000001FFC03FFC000000
000003FF801FFE000000
000007FF800FFF000000
000007FF000FFF000000
00000FFF0007FF800000
00000FFE0007FF800000
00001FFC0003FFC00000
00003FFC0001FFE00000
00003FF80001FFE00000
00007FF80000FFF00000
00007FF00000FFF00000
0000FFE000007FF80000
0001FFE000003FFC0000
0001FFC000003FFC0000
0003FFC000001FFE0000
0003FF807FFFFFFE0000
0007FF00FFFFFFFF0000
000FFF00FFFFFFFF8000
000FFE01FFFFFFFF8000
001FFE01FFFFFFFFC000
001FFC03FFFFFFFFC000
003FF807FFFFFFFFE000
007FF80FFFFFFFFFF000
007FF000000000FFF000
00FFF0000000007FF800
00FFE0000000007FF800
01FFE0000000003FFC00
03FFC0000000001FFE00
03FF80000000001FFE00
07FF80000000000FFF00
07FF00000000000FFF00
0FFF000000000007FF80
1FFE000000000007FFC0
1FFC000000000003FFC0
3FFC000000000001FFE0
3FF8000000000001FFE0
7FF8000000000000FFF0
FFF0000000000000FFF8
ENDCHAR
STARTCHAR AE
ENCODING 198
SWIDTH 1345 0
DWIDTH 108 0
BBX 103 58 1 0
BITMAP
000000001FFFFFFFFFFFFFFFFE
000000007FFFFFFFFFFFFFFFFE
000000007FFFFFFFFFFFFFFFFE
00000000FFFFFFFFFFFFFFFFFE
00000001FFFFFFFFFFFFFFFFFE
00000001FFFFFFFFFFFFFFFFFE
00000003FFFFFFFFFFFFFFFFFE
00000003FFFFFFFFFFFFFFFFFE
00000007FFFFFFFFFFFFFFFFFE
0000000FFFFFFFFFFFFFFFFFFE
0000000FFE0003FF0000000000
0000001FFC0003FF0000000000
0000001FFC0003FF0000000000
0000003FF80003FF0000000000
0000007FF00003FF0000000000
0000007FF00003FF0000000000
000000FFE00003FF0000000000
000000FFE00003FF0000000000
000001FFC00003FF0000000000
000001FFC00003FF0000000000
000003FF800003FF0000000000
000007FF000003FF0000000000
000007FF000003FF0000000000
00000FFE000003FF0000000000
00000FFE000003FF00FFFFFFF8
00001FFC000003FF00FFFFFFF8
00003FFC000003FF00FFFFFFF8
00003FF8000003FF00FFFFFFF8
00007FF0000003FF00FFFFFFF8
00007FF0000003FF00FFFFFFF8
0000FFE0000003FF00FFFFFFF8
0000FFE0000003FF00FFFFFFF8
0001FFC0000003FF00FFFFFFF8
0003FFC0000003FF0000000000
0003FF80000003FF0000000000
0007FF00000003FF0000000000
0007FF00FFFFFFFF0000000000
000FFE00FFFFFFFF0000000000
001FFE01FFFFFFFF0000000000
001FFC01FFFFFFFF0000000000
003FFC03FFFFFFFF0000000000
003FF807FFFFFFFF0000000000
007FF007FFFFFFFF0000000000
007FF00FFFFFFFFF0000000000
00FFE000000003FF0000000000
01FFE000000003FF0000000000
01FFC000000003FF0000000000
03FFC000000003FF0000000000
03FF8000000003FFFFFFFFFFFE
07FF0000000003FFFFFFFFFFFE
0FFF0000000003FFFFFFFFFFFE
0FFE0000000003FFFFFFFFFFFE
1FFE0000000003FFFFFFFFFFFE
1FFC0000000003FFFFFFFFFFFE
3FFC0000000003FFFFFFFFFFFE
3FF80000000003FFFFFFFFFFFE
7FF00000000003FFFFFFFFFFFE
FFF00000000003FFFFFFFFFFFE
ENDCHAR
STARTCHAR Ccedilla
ENCODING 199
SWIDTH 829 0
DWIDTH 66 0
BBX 60 74 3 -16
BITMAP
000001FFFFFFFFF0
00001FFFFFFFFFF0
0000FFFFFFFFFFF0
0003FFFFFFFFFFF0
000FFFFFFFFFFFF0
001FFFFFFFFFFFF0
003FFFFFFFFFFFF0
007FFFFFFFFFFFF0
00FFFFFFFFFFFFF0
01FFFFFFFFFFFFF0
03FFFF8000000000
07FFF80000000000
07FFE00000000000
0FFFC00000000000
1FFF800000000000
1FFF000000000000
1FFE000000000000
3FFC000000000000
3FF8000000000000
3FF8000000000000
7FF0000000000000
7FF0000000000000
7FE0000000000000
7FE0000000000000
7FE0000000000000
FFE0000000000000
FFE0000000000000
FFE0000000000000
FFE0000000000000
FFE0000000000000
FFE0000000000000
FFE0000000000000
7FE0000000000000
7FE0000000000000
7FE0000000000000
7FF0000000000000
7FF0000000000000
3FF0000000000000
3FF8000000000000
3FF8000000000000
1FFC000000000000
1FFE000000000000
1FFF000000000000
0FFF800000000000
07FFC00000000000
07FFF00000000000
03FFFC0000000000
01FFFF8000000000
01FFFFFFFFFFFFF0
00FFFFFFFFFFFFF0
007FFFFFFFFFFFF0
001FFFFFFFFFFFF0
000FFFFFFFFFFFF0
0007FFFFFFFFFFF0
0001FFFFFFFFFFF0
00007FFFFFFFFFF0
00001FFFFFFFFFF0
000001FFFFFFFFF0
0000000000000000
0000000000000000
0000000000000000
0000000000000000
0000003FF8000000
0000001FF0000000
0000000FF0000000
0000000FF0000000
0000000FE0000000
00000007E0000000
00000007C0000000
00000003C0000000
0000000380000000
0000000180000000
0000000180000000
0000000100000000
ENDCHAR
STARTCHAR Egrave
ENCODING 200
SWIDTH 759 0
DWIDTH 61 0
BBX 52 72 5 0
BITMAP
00060000000000
0007E000000000
0007FC00000000
0007FF80000000
0007FFF8000000
0007FFFF000000
0001FFFF800000
00000FFF800000
000000FF800000
00000007800000
00000000000000
00000000000000
00000000000000
00000000000000
FFFFFFFFFFFFF0
FFFFFFFFFFFFF0
FFFFFFFFFFFFF0
FFFFFFFFFFFFF0
FFFFFFFFFFFFF0
FFFFFFFFFFFFF0
FFFFFFFFFFFFF0
FFFFFFFFFFFFF0
FFFFFFFFFFFFF0
FFFFFFFFFFFFF0
FFC00000000000
FFC00000000000
FFC00000000000
FFC00000000000
FFC00000000000
FFC00000000000
FFC00000000000
FFC00000000000
FFC00000000000
FFC00000000000
FFC00000000000
FFC00000000000
FFC00000000000
FFC00000000000
FFC03FFFFFFFC0
FFC03FFFFFFFC0
FFC03FFFFFFFC0
FFC03FFFFFFFC0
FFC03FFFFFFFC0
FFC03FFFFFFFC0
FFC03FFFFFFFC0
FFC03FFFFFFFC0
FFC03FFFFFFFC0
FFC00000000000
FFC00000000000
FFC00000000000
FFC00000000000
FFC00000000000
FFC00000000000
FFC00000000000
FFC00000000000
FFC00000000000
FFC00000000000
FFC00000000000
FFC00000000000
FFC00000000000
FFC00000000000
FFC00000000000
FFFFFFFFFFFFF0
FFFFFFFFFFFFF0
FFFFFFFFFFFFF0
FFFFFFFFFFFFF0
FFFFFFFFFFFFF0
FFFFFFFFFFFFF0
FFFFFFFFFFFFF0
FFFFFFFFFFFFF0
FFFFFFFFFFFFF0
FFFFFFFFFFFFF0
ENDCHAR
STARTCHAR Eacute
ENCODING 201
SWIDTH 759 0
DWIDTH 61 0
BBX 52 72 5 0
BITMAP
000000001C0000
00000000FC0000
00000007FC0000
0000007FFC0000
000003FFFC0000
00001FFFFC0000
00007FFFF00000
00007FFE000000
00007FC0000000
00007C00000000
00000000000000
00000000000000
00000000000000
00000000000000
FFFFFFFFFFFFF0
FFFFFFFFFFFFF0
FFFFFFFFFFFFF0
FFFFFFFFFFFFF0
FFFFFFFFFFFFF0
FFFFFFFFFFFFF0
FFFFFFFFFFFFF0
FFFFFFFFFFFFF0
FFFFFFFFFFFFF0
FFFFFFFFFFFFF0
FFC00000000000
FFC00000000000
FFC00000000000
FFC00000000000
FFC00000000000
FFC00000000000
FFC00000000000
FFC00000000000
FFC00000000000
FFC00000000000
FFC00000000000
FFC00000000000
FFC00000000000
FFC00000000000
FFC03FFFFFFFC0
FFC03FFFFFFFC0
FFC03FFFFFFFC0
FFC03FFFFFFFC0
FFC03FFFFFFFC0
FFC03FFFFFFFC0
FFC03FFFFFFFC0
FFC03FFFFFFFC0
FFC03FFFFFFFC0
FFC00000000000
FFC00000000000
FFC00000000000
FFC00000000000
FFC00000000000
FFC00000000000
FFC00000000000
FFC00000000000
FFC00000000000
FFC00000000000
FFC00000000000
FFC00000000000
FFC00000000000
FFC00000000000
FFC00000000000
FFFFFFFFFFFFF0
FFFFFFFFFFFFF0
FFFFFFFFFFFFF0
FFFFFFFFFFFFF0
FFFFFFFFFFFFF0
FFFFFFFFFFFFF0
FFFFFFFFFFFFF0
FFFFFFFFFFFFF0
FFFFFFFFFFFFF0
FFFFFFFFFFFFF0
ENDCHAR
STARTCHAR Ecircumflex
ENCODING 202
SWIDTH 759 0
DWIDTH 61 0
BBX 52 72 5 0
BITMAP
000007F8000000
000007FC000000
00000FFE000000
00001FBE000000
00001F1F000000
00003E1F800000
00007E0FC00000
00007C07C00000
0000F807E00000
0001F803F00000
0003F001F00000
00000000000000
00000000000000
00000000000000
FFFFFFFFFFFFF0
FFFFFFFFFFFFF0
FFFFFFFFFFFFF0
FFFFFFFFFFFFF0
FFFFFFFFFFFFF0
FFFFFFFFFFFFF0
FFFFFFFFFFFFF0
FFFFFFFFFFFFF0
FFFFFFFFFFFFF0
FFFFFFFFFFFFF0
FFC00000000000
FFC00000000000
FFC00000000000
FFC00000000000
FFC00000000000
FFC00000000000
FFC00000000000
FFC00000000000
FFC00000000000
FFC00000000000
FFC00000000000
FFC00000000000
FFC00000000000
FFC00000000000
FFC03FFFFFFFC0
FFC03FFFFFFFC0
FFC03FFFFFFFC0
FFC03FFFFFFFC0
FFC03FFFFFFFC0
FFC03FFFFFFFC0
FFC03FFFFFFFC0
FFC03FFFFFFFC0
FFC03FFFFFFFC0
FFC00000000000
FFC00000000000
FFC00000000000
FFC00000000000
FFC00000000000
FFC00000000000
FFC00000000000
FFC00000000000
FFC00000000000
FFC00000000000
FFC00000000000
FFC00000000000
FFC00000000000
FFC00000000000
FFC00000000000
FFFFFFFFFFFFF0
FFFFFFFFFFFFF0
FFFFFFFFFFFFF0
FFFFFFFFFFFFF0
FFFFFFFFFFFFF0
FFFFFFFFFFFFF0
FFFFFFFFFFFFF0
FFFFFFFFFFFFF0
FFFFFFFFFFFFF0
FFFFFFFFFFFFF0
ENDCHAR
STARTCHAR Edieresis
ENCODING 203
SWIDTH 759 0
DWIDTH 61 0
BBX 52 71 5 0
BITMAP
0000F001E00000
0003F807F00000
0003FC07F80000
0003FC07F80000
0003FC07F80000
0003F807F00000
0000F003E00000
00000000000000
00000000000000
00000000000000
00000000000000
00000000000000
00000000000000
FFFFFFFFFFFFF0
FFFFFFFFFFFFF0
FFFFFFFFFFFFF0
FFFFFFFFFFFFF0
FFFFFFFFFFFFF0
FFFFFFFFFFFFF0
FFFFFFFFFFFFF0
FFFFFFFFFFFFF0
FFFFFFFFFFFFF0
FFFFFFFFFFFFF0
FFC00000000000
FFC00000000000
FFC00000000000
FFC00000000000
FFC00000000000
FFC00000000000
FFC00000000000
FFC00000000000
FFC00000000000
FFC00000000000
FFC00000000000
FFC00000000000
FFC00000000000
FFC00000000000
FFC03FFFFFFFC0
FFC03FFFFFFFC0
FFC03FFFFFFFC0
FFC03FFFFFFFC0
FFC03FFFFFFFC0
FFC03FFFFFFFC0
FFC03FFFFFFFC0
FFC03FFFFFFFC0
FFC03FFFFFFFC0
FFC00000000000
FFC00000000000
FFC00000000000
FFC00000000000
FFC00000000000
FFC00000000000
FFC00000000000
FFC00000000000
FFC00000000000
FFC00000000000
FFC00000000000
FFC00000000000
FFC00000000000
FFC00000000000
FFC00000000000
FFFFFFFFFFFFF0
FFFFFFFFFFFFF0
FFFFFFFFFFFFF0
FFFFFFFFFFFFF0
FFFFFFFFFFFFF0
FFFFFFFFFFFFF0
FFFFFFFFFFFFF0
FFFFFFFFFFFFF0
FFFFFFFFFFFFF0
FFFFFFFFFFFFF0
ENDCHAR
STARTCHAR Igrave
ENCODING 204
SWIDTH 267 0
DWIDTH 21 0
BBX 21 72 -2 0
BITMAP
E00000
FC0000
FFC000
FFF800
FFFF00
FFFFF0
3FFFF8
01FFF8
000FF8
0000F8
000000
000000
000000
000000
00FFC0
00FFC0
00FFC0
00FFC0
00FFC0
00FFC0
00FFC0
00FFC0
00FFC0
00FFC0
00FFC0
00FFC0
00FFC0
00FFC0
00FFC0
00FFC0
00FFC0
00FFC0
00FFC0
00FFC0
00FFC0
00FFC0
00FFC0
00FFC0
00FFC0
00FFC0
00FFC0
00FFC0
00FFC0
00FFC0
00FFC0
00FFC0
00FFC0
00FFC0
00FFC0
00FFC0
00FFC0
00FFC0
00FFC0
00FFC0
00FFC0
00FFC0
00FFC0
00FFC0
00FFC0
00FFC0
00FFC0
00FFC0
00FFC0
00FFC0
00FFC0
00FFC0
00FFC0
00FFC0
00FFC0
00FFC0
00FFC0
00FFC0
ENDCHAR
STARTCHAR Iacute
ENCODING 205
SWIDTH 267 0
DWIDTH 21 0
BBX 20 72 3 0
BITMAP
000030
0003F0
001FF0
00FFF0
0FFFF0
7FFFF0
FFFFC0
FFF800
FF8000
F00000
000000
000000
000000
000000
1FF800
1FF800
1FF800
1FF800
1FF800
1FF800
1FF800
1FF800
1FF800
1FF800
1FF800
1FF800
1FF800
1FF800
1FF800
1FF800
1FF800
1FF800
1FF800
1FF800
1FF800
1FF800
1FF800
1FF800
1FF800
1FF800
1FF800
1FF800
1FF800
1FF800
1FF800
1FF800
1FF800
1FF800
1FF800
1FF800
1FF800
1FF800
1FF800
1FF800
1FF800
1FF800
1FF800
1FF800
1FF800
1FF800
1FF800
1FF800
1FF800
1FF800
1FF800
1FF800
1FF800
1FF800
1FF800
1FF800
1FF800
1FF800
ENDCHAR
STARTCHAR Icircumflex
ENCODING 206
SWIDTH 267 0
DWIDTH 21 0
BBX 22 72 0 0
BITMAP
01FE00
03FE00
07FF00
07DF80
0F8FC0
1F87C0
1F07E0
3E03F0
7E01F0
7C01F8
F800FC
000000
000000
000000
03FF00
03FF00
03FF00
03FF00
03FF00
03FF00
03FF00
03FF00
03FF00
03FF00
03FF00
03FF00
03FF00
03FF00
03FF00
03FF00
03FF00
03FF00
03FF00
03FF00
03FF00
03FF00
03FF00
03FF00
03FF00
03FF00
03FF00
03FF00
03FF00
03FF00
03FF00
03FF00
03FF00
03FF00
03FF00
03FF00
03FF00
03FF00
03FF00
03FF00
03FF00
03FF00
03FF00
03FF00
03FF00
03FF00
03FF00
03FF00
03FF00
03FF00
03FF00
03FF00
03FF00
03FF00
03FF00
03FF00
03FF00
03FF00
ENDCHAR
STARTCHAR Idieresis
ENCODING 207
SWIDTH 267 0
DWIDTH 21 0
BBX 23 71 -1 0
BITMAP
3E0078
7F00FE
FF01FE
FF01FE
FF01FE
7F00FE
3E0078
000000
000000
000000
000000
000000
000000
01FF80
01FF80
01FF80
01FF80
01FF80
01FF80
01FF80
01FF80
01FF80
01FF80
01FF80
01FF80
01FF80
01FF80
01FF80
01FF80
01FF80
01FF80
01FF80
01FF80
01FF80
01FF80
01FF80
01FF80
01FF80
01FF80
01FF80
01FF80
01FF80
01FF80
01FF80
01FF80
01FF80
01FF80
01FF80
01FF80
01FF80
01FF80
01FF80
01FF80
01FF80
01FF80
01FF80
01FF80
01FF80
01FF80
01FF80
01FF80
01FF80
01FF80
01FF80
01FF80
01FF80
01FF80
01FF80
01FF80
01FF80
01FF80
ENDCHAR
STARTCHAR Eth
ENCODING 208
SWIDTH 877 0
DWIDTH 70 0
BBX 66 58 1 0
BITMAP
0FFFFFFFFFE0000000
0FFFFFFFFFFE000000
0FFFFFFFFFFFC00000
0FFFFFFFFFFFF00000
0FFFFFFFFFFFFC0000
0FFFFFFFFFFFFE0000
0FFFFFFFFFFFFF0000
0FFFFFFFFFFFFF8000
0FFFFFFFFFFFFFE000
0FFFFFFFFFFFFFE000
0FFC0000007FFFF000
0FFC00000007FFF800
0FFC00000001FFFC00
0FFC00000000FFFC00
0FFC000000003FFE00
0FFC000000001FFE00
0FFC000000000FFF00
0FFC000000000FFF00
0FFC0000000007FF00
0FFC0000000007FF80
0FFC0000000003FF80
0FFC0000000003FF80
0FFC0000000001FF80
0FFC0000000001FFC0
FFFFFFFFF80001FFC0
FFFFFFFFF80001FFC0
FFFFFFFFF80000FFC0
FFFFFFFFF80000FFC0
FFFFFFFFF80000FFC0
FFFFFFFFF80000FFC0
FFFFFFFFF80000FFC0
FFFFFFFFF80000FFC0
FFFFFFFFF80001FFC0
0FFC0000000001FFC0
0FFC0000000001FF80
0FFC0000000001FF80
0FFC0000000003FF80
0FFC0000000003FF80
0FFC0000000007FF00
0FFC0000000007FF00
0FFC000000000FFF00
0FFC000000001FFE00
0FFC000000001FFE00
0FFC000000007FFC00
0FFC00000000FFFC00
0FFC00000001FFF800
0FFC00000007FFF000
0FFC0000007FFFF000
0FFFFFFFFFFFFFE000
0FFFFFFFFFFFFFC000
0FFFFFFFFFFFFF8000
0FFFFFFFFFFFFF0000
0FFFFFFFFFFFFC0000
0FFFFFFFFFFFF80000
0FFFFFFFFFFFE00000
0FFFFFFFFFFF800000
0FFFFFFFFFFE000000
0FFFFFFFFFE0000000
ENDCHAR
STARTCHAR Ntilde
ENCODING 209
SWIDTH 873 0
DWIDTH 70 0
BBX 60 70 5 0
BITMAP
000003F000800000
00000FFC01000000
00000FFF07000000
00000FFFFF000000
00000C1FFF000000
00000803FE000000
00001000FC000000
0000000000000000
0000000000000000
0000000000000000
0000000000000000
0000000000000000
1E00000000003FF0
7F80000000003FF0
7FC0000000003FF0
FFE0000000003FF0
FFF0000000003FF0
FFF8000000003FF0
FFFC000000003FF0
FFFE000000003FF0
FFFF000000003FF0
FFFF800000003FF0
FFFFC00000003FF0
FFFFE00000003FF0
FFFFF00000003FF0
FFFFF80000003FF0
FFFFFC0000003FF0
FFFFFE0000003FF0
FFBFFF0000003FF0
FF9FFF8000003FF0
FF8FFFC000003FF0
FF87FFE000003FF0
FF83FFF000003FF0
FF81FFF800003FF0
FF80FFFC00003FF0
FF807FFE00003FF0
FF803FFF00003FF0
FF801FFF80003FF0
FF800FFFC0003FF0
FF8007FFE0003FF0
FF8003FFF0003FF0
FF8001FFF8003FF0
FF8000FFFC003FF0
FF80007FFE003FF0
FF80003FFF003FF0
FF80001FFF803FF0
FF80000FFFC03FF0
FF800007FFF03FF0
FF800003FFF83FF0
FF800001FFFC3FF0
FF800000FFFE3FF0
FF8000007FFF3FF0
FF8000003FFFBFF0
FF8000000FFFFFF0
FF80000007FFFFF0
FF80000003FFFFF0
FF80000001FFFFF0
FF80000000FFFFF0
FF800000007FFFF0
FF800000003FFFF0
FF800000001FFFF0
FF800000000FFFF0
FF8000000007FFF0
FF8000000003FFF0
FF8000000001FFF0
FF8000000000FFF0
FF80000000007FF0
FF80000000003FE0
FF80000000001FE0
FF80000000000780
ENDCHAR
STARTCHAR Ograve
ENCODING 210
SWIDTH 968 0
DWIDTH 77 0
BBX 71 72 3 0
BITMAP
000001C00000000000
000001F80000000000
000001FF0000000000
000001FFF000000000
000001FFFE00000000
000001FFFFC0000000
0000007FFFF0000000
00000003FFF0000000
000000001FF0000000
0000000001F0000000
000000000000000000
000000000000000000
000000000000000000
000000000000000000
000001FFFFFF800000
00001FFFFFFFF80000
0000FFFFFFFFFE0000
0003FFFFFFFFFF8000
000FFFFFFFFFFFE000
001FFFFFFFFFFFF800
003FFFFFFFFFFFFC00
007FFFFFFFFFFFFE00
00FFFFFFFFFFFFFF00
01FFFFFFFFFFFFFF80
03FFFF800003FFFFC0
07FFF80000003FFFC0
07FFE00000000FFFE0
0FFFC000000003FFF0
1FFF8000000001FFF0
1FFF0000000000FFF8
1FFE00000000007FF8
3FFC00000000003FF8
3FF800000000003FFC
3FF800000000001FFC
7FF000000000001FFC
7FF000000000000FFE
7FE000000000000FFE
7FE000000000000FFE
7FE0000000000007FE
FFE0000000000007FE
FFE0000000000007FE
FFE0000000000007FE
FFE0000000000007FE
FFE0000000000007FE
FFE0000000000007FE
FFE0000000000007FE
7FE0000000000007FE
7FE0000000000007FE
7FE000000000000FFE
7FF000000000000FFC
7FF000000000000FFC
3FF000000000001FFC
3FF800000000001FFC
3FF800000000003FF8
1FFC00000000003FF8
1FFE00000000007FF8
1FFF0000000000FFF0
0FFF8000000001FFF0
07FFC000000003FFE0
07FFF00000000FFFC0
03FFFC0000003FFFC0
01FFFF800001FFFF80
01FFFFFFFFFFFFFF00
00FFFFFFFFFFFFFE00
007FFFFFFFFFFFFC00
001FFFFFFFFFFFF800
000FFFFFFFFFFFF000
0007FFFFFFFFFFC000
0001FFFFFFFFFF8000
00007FFFFFFFFE0000
00001FFFFFFFF00000
000001FFFFFF000000
ENDCHAR
STARTCHAR Oacute
ENCODING 211
SWIDTH 968 0
DWIDTH 77 0
BBX 71 72 3 0
BITMAP
000000000003000000
00000000003F000000
0000000001FF000000
000000000FFF000000
00000000FFFF000000
00000007FFFF000000
0000000FFFFC000000
0000000FFF80000000
0000000FF800000000
0000000F0000000000
000000000000000000
000000000000000000
000000000000000000
000000000000000000
000001FFFFFF800000
00001FFFFFFFF80000
0000FFFFFFFFFE0000
0003FFFFFFFFFF8000
000FFFFFFFFFFFE000
001FFFFFFFFFFFF800
003FFFFFFFFFFFFC00
007FFFFFFFFFFFFE00
00FFFFFFFFFFFFFF00
01FFFFFFFFFFFFFF80
03FFFF800003FFFFC0
07FFF80000003FFFC0
07FFE00000000FFFE0
0FFFC000000003FFF0
1FFF8000000001FFF0
1FFF0000000000FFF8
1FFE00000000007FF8
3FFC00000000003FF8
3FF800000000003FFC
3FF800000000001FFC
7FF000000000001FFC
7FF000000000000FFE
7FE000000000000FFE
7FE000000000000FFE
7FE0000000000007FE
FFE0000000000007FE
FFE0000000000007FE
FFE0000000000007FE
FFE0000000000007FE
FFE0000000000007FE
FFE0000000000007FE
FFE0000000000007FE
7FE0000000000007FE
7FE0000000000007FE
7FE000000000000FFE
7FF000000000000FFC
7FF000000000000FFC
3FF000000000001FFC
3FF800000000001FFC
3FF800000000003FF8
1FFC00000000003FF8
1FFE00000000007FF8
1FFF0000000000FFF0
0FFF8000000001FFF0
07FFC000000003FFE0
07FFF00000000FFFC0
03FFFC0000003FFFC0
01FFFF800001FFFF80
01FFFFFFFFFFFFFF00
00FFFFFFFFFFFFFE00
007FFFFFFFFFFFFC00
001FFFFFFFFFFFF800
000FFFFFFFFFFFF000
0007FFFFFFFFFFC000
0001FFFFFFFFFF8000
00007FFFFFFFFE0000
00001FFFFFFFF00000
000001FFFFFF000000
ENDCHAR
STARTCHAR Ocircumflex
ENCODING 212
SWIDTH 968 0
DWIDTH 77 0
BBX 71 72 3 0
BITMAP
00000000FF00000000
00000001FF00000000
00000003FF80000000
00000003EFC0000000
00000007C7C0000000
0000000FC3E0000000
0000000F83F0000000
0000001F01F8000000
0000003F00F8000000
0000007E00FC000000
0000007C007E000000
000000000000000000
000000000000000000
000000000000000000
000001FFFFFF800000
00001FFFFFFFF80000
0000FFFFFFFFFE0000
0003FFFFFFFFFF8000
000FFFFFFFFFFFE000
001FFFFFFFFFFFF800
003FFFFFFFFFFFFC00
007FFFFFFFFFFFFE00
00FFFFFFFFFFFFFF00
01FFFFFFFFFFFFFF80
03FFFF800003FFFFC0
07FFF80000003FFFC0
07FFE00000000FFFE0
0FFFC000000003FFF0
1FFF8000000001FFF0
1FFF0000000000FFF8
1FFE00000000007FF8
3FFC00000000003FF8
3FF800000000003FFC
3FF800000000001FFC
7FF000000000001FFC
7FF000000000000FFE
7FE000000000000FFE
7FE000000000000FFE
7FE0000000000007FE
FFE0000000000007FE
FFE0000000000007FE
FFE0000000000007FE
FFE0000000000007FE
FFE0000000000007FE
FFE0000000000007FE
FFE0000000000007FE
7FE0000000000007FE
7FE0000000000007FE
7FE000000000000FFE
7FF000000000000FFC
7FF000000000000FFC
3FF000000000001FFC
3FF800000000001FFC
3FF800000000003FF8
1FFC00000000003FF8
1FFE00000000007FF8
1FFF0000000000FFF0
0FFF8000000001FFF0
07FFC000000003FFE0
07FFF00000000FFFC0
03FFFC0000003FFFC0
01FFFF800001FFFF80
01FFFFFFFFFFFFFF00
00FFFFFFFFFFFFFE00
007FFFFFFFFFFFFC00
001FFFFFFFFFFFF800
000FFFFFFFFFFFF000
0007FFFFFFFFFFC000
0001FFFFFFFFFF8000
00007FFFFFFFFE0000
00001FFFFFFFF00000
000001FFFFFF000000
ENDCHAR
STARTCHAR Otilde
ENCODING 213
SWIDTH 968 0
DWIDTH 77 0
BBX 71 70 3 0
BITMAP
0000000F8004000000
0000003FF004000000
0000007FFC1C000000
0000007FFFFC000000
000000707FFC000000
000000600FF8000000
0000004003F0000000
000000000000000000
000000000000000000
000000000000000000
000000000000000000
000000000000000000
000001FFFFFF800000
00001FFFFFFFF80000
0000FFFFFFFFFE0000
0003FFFFFFFFFF8000
000FFFFFFFFFFFE000
001FFFFFFFFFFFF800
003FFFFFFFFFFFFC00
007FFFFFFFFFFFFE00
00FFFFFFFFFFFFFF00
01FFFFFFFFFFFFFF80
03FFFF800003FFFFC0
07FFF80000003FFFC0
07FFE00000000FFFE0
0FFFC000000003FFF0
1FFF8000000001FFF0
1FFF0000000000FFF8
1FFE00000000007FF8
3FFC00000000003FF8
3FF800000000003FFC
3FF800000000001FFC
7FF000000000001FFC
7FF000000000000FFE
7FE000000000000FFE
7FE000000000000FFE
7FE0000000000007FE
FFE0000000000007FE
FFE0000000000007FE
FFE0000000000007FE
FFE0000000000007FE
FFE0000000000007FE
FFE0000000000007FE
FFE0000000000007FE
7FE0000000000007FE
7FE0000000000007FE
7FE000000000000FFE
7FF000000000000FFC
7FF000000000000FFC
3FF000000000001FFC
3FF800000000001FFC
3FF800000000003FF8
1FFC00000000003FF8
1FFE00000000007FF8
1FFF0000000000FFF0
0FFF8000000001FFF0
07FFC000000003FFE0
07FFF00000000FFFC0
03FFFC0000003FFFC0
01FFFF800001FFFF80
01FFFFFFFFFFFFFF00
00FFFFFFFFFFFFFE00
007FFFFFFFFFFFFC00
001FFFFFFFFFFFF800
000FFFFFFFFFFFF000
0007FFFFFFFFFFC000
0001FFFFFFFFFF8000
00007FFFFFFFFE0000
00001FFFFFFFF00000
000001FFFFFF000000
ENDCHAR
STARTCHAR Odieresis
ENCODING 214
SWIDTH 968 0
DWIDTH 77 0
BBX 71 71 3 0
BITMAP
0000003E0078000000
0000007F00FE000000
000000FF01FE000000
000000FF01FE000000
000000FF01FE000000
0000007F00FE000000
0000003E0078000000
000000000000000000
000000000000000000
000000000000000000
000000000000000000
000000000000000000
000000000000000000
000001FFFFFF800000
00001FFFFFFFF80000
0000FFFFFFFFFE0000
0003FFFFFFFFFF8000
000FFFFFFFFFFFE000
001FFFFFFFFFFFF800
003FFFFFFFFFFFFC00
007FFFFFFFFFFFFE00
00FFFFFFFFFFFFFF00
01FFFFFFFFFFFFFF80
03FFFF800003FFFFC0
07FFF80000003FFFC0
07FFE00000000FFFE0
0FFFC000000003FFF0
1FFF8000000001FFF0
1FFF0000000000FFF8
1FFE00000000007FF8
3FFC00000000003FF8
3FF800000000003FFC
3FF800000000001FFC
7FF000000000001FFC
7FF000000000000FFE
7FE000000000000FFE
7FE000000000000FFE
7FE0000000000007FE
FFE0000000000007FE
FFE0000000000007FE
FFE0000000000007FE
FFE0000000000007FE
FFE0000000000007FE
FFE0000000000007FE
FFE0000000000007FE
7FE0000000000007FE
7FE0000000000007FE
7FE000000000000FFE
7FF000000000000FFC
7FF000000000000FFC
3FF000000000001FFC
3FF800000000001FFC
3FF800000000003FF8
1FFC00000000003FF8
1FFE00000000007FF8
1FFF0000000000FFF0
0FFF8000000001FFF0
07FFC000000003FFE0
07FFF00000000FFFC0
03FFFC0000003FFFC0
01FFFF800001FFFF80
01FFFFFFFFFFFFFF00
00FFFFFFFFFFFFFE00
007FFFFFFFFFFFFC00
001FFFFFFFFFFFF800
000FFFFFFFFFFFF000
0007FFFFFFFFFFC000
0001FFFFFFFFFF8000
00007FFFFFFFFE0000
00001FFFFFFFF00000
000001FFFFFF000000
ENDCHAR
STARTCHAR multiply
ENCODING 215
SWIDTH 690 0
DWIDTH 55 0
BBX 37 37 9 11
BITMAP
0800000080
0C00000180
1E000003C0
3F000007E0
FF80000FF8
7FC0001FF0
3FE0003FE0
1FF0007FC0
0FF800FF80
07FC01FF00
03FE03FE00
01FF07FC00
00FF8FF800
007FDFF000
003FFFE000
001FFFC000
000FFF8000
0007FF0000
0003FE0000
0007FF0000
000FFF8000
001FFFC000
003FFFE000
007FDFF000
00FF8FF800
01FF07FC00
03FE03FE00
07FC01FF00
0FF800FF80
1FF0007FC0
3FE0003FE0
7FC0001FF0
FF80000FF8
3F000007F0
1E000003E0
0C000001C0
0400000080
ENDCHAR
STARTCHAR Oslash
ENCODING 216
SWIDTH 968 0
DWIDTH 77 0
BBX 71 66 3 -4
BITMAP
000000000000000400
000000000000000E00
000000000000000F80
000000000000001F00
000001FFFFFF803E00
00001FFFFFFFF87C00
0000FFFFFFFFFEF800
0003FFFFFFFFFFF800
000FFFFFFFFFFFF000
001FFFFFFFFFFFF000
003FFFFFFFFFFFFC00
007FFFFFFFFFFFFE00
00FFFFFFFFFFFFFF00
01FFFFFFFFFFFFFF80
03FFFF800003FFFFC0
07FFF80000007FFFC0
07FFE0000000FFFFE0
0FFFC0000001FFFFE0
1FFF80000003F3FFF0
1FFF00000007E1FFF8
1FFE0000000FC0FFF8
3FFC0000001F807FF8
3FF80000001F003FFC
3FF80000003E001FFC
7FF00000007E001FFC
7FF0000000FC000FFE
7FE0000001F8000FFE
7FE0000003F0000FFE
7FE0000007E00007FE
FFE0000007C00007FE
FFE000000F800007FE
FFE000001F800007FE
FFE000003F000007FE
FFE000007E000007FE
FFE00000FC000007FE
FFE00000F8000007FE
7FE00001F0000007FE
7FE00003E0000007FE
7FE00007C000000FFE
7FE0000FC000000FFC
7FF0001F8000000FFC
3FF0003F0000001FFC
3FF8003E0000001FFC
3FF8007C0000003FF8
1FFC00F80000003FF8
1FFE01F00000007FF8
1FFF03F0000000FFF0
0FFF87E0000001FFF0
07FFCFC0000003FFE0
07FFEF8000000FFFC0
03FFFF0000003FFFC0
01FFFF800001FFFF80
01FFFFFFFFFFFFFF00
00FFFFFFFFFFFFFE00
007FFFFFFFFFFFFC00
003FFFFFFFFFFFF800
000FFFFFFFFFFFF000
0007FFFFFFFFFFC000
000FFFFFFFFFFF8000
001F7FFFFFFFFE0000
003F1FFFFFFFF00000
007E01FFFFFF000000
007C00000000000000
00F800000000000000
007000000000000000
002000000000000000
ENDCHAR
STARTCHAR Ugrave
ENCODING 217
SWIDTH 889 0
DWIDTH 71 0
BBX 63 73 4 -1
BITMAP
00001C0000000000
00001F8000000000
00001FF000000000
00001FFF00000000
00001FFFE0000000
00001FFFFC000000
000007FFFE000000
0000003FFE000000
00000003FE000000
000000001E000000
0000000000000000
0000000000000000
0000000000000000
0000000000000000
FFE00000000007FE
FFE00000000007FE
FFE00000000007FE
FFE00000000007FE
FFE00000000007FE
FFE00000000007FE
FFE00000000007FE
FFE00000000007FE
FFE00000000007FE
FFE00000000007FE
FFE00000000007FE
FFE00000000007FE
FFE00000000007FE
FFE00000000007FE
FFE00000000007FE
FFE00000000007FE
FFE00000000007FE
FFE00000000007FE
FFE00000000007FE
FFE00000000007FE
FFE00000000007FE
FFE00000000007FE
FFE00000000007FE
FFE00000000007FE
FFE00000000007FE
FFE00000000007FE
FFE00000000007FE
FFE00000000007FE
FFE00000000007FE
FFE00000000007FE
FFE00000000007FE
FFE00000000007FE
FFE00000000007FE
FFE00000000007FE
FFE00000000007FE
FFE00000000007FE
FFE00000000007FE
FFE00000000007FE
7FE0000000000FFE
7FF0000000000FFC
7FF0000000000FFC
7FF0000000001FFC
7FF8000000001FFC
3FFC000000003FF8
3FFE000000007FF8
3FFF00000000FFF8
1FFFC0000003FFF0
1FFFF000000FFFF0
0FFFFF8001FFFFE0
07FFFFFFFFFFFFC0
07FFFFFFFFFFFFC0
03FFFFFFFFFFFF80
01FFFFFFFFFFFF00
007FFFFFFFFFFC00
003FFFFFFFFFF800
000FFFFFFFFFE000
0003FFFFFFFF8000
00003FFFFFFC0000
000001FFFF000000
ENDCHAR
STARTCHAR Uacute
ENCODING 218
SWIDTH 889 0
DWIDTH 71 0
BBX 63 73 4 -1
BITMAP
0000000000700000
0000000003F00000
000000001FF00000
00000001FFF00000
0000000FFFF00000
0000007FFFF00000
000000FFFFC00000
000000FFF8000000
000000FF80000000
000000F000000000
0000000000000000
0000000000000000
0000000000000000
0000000000000000
FFE00000000007FE
FFE00000000007FE
FFE00000000007FE
FFE00000000007FE
FFE00000000007FE
FFE00000000007FE
FFE00000000007FE
FFE00000000007FE
FFE00000000007FE
FFE00000000007FE
FFE00000000007FE
FFE00000000007FE
FFE00000000007FE
FFE00000000007FE
FFE00000000007FE
FFE00000000007FE
FFE00000000007FE
FFE00000000007FE
FFE00000000007FE
FFE00000000007FE
FFE00000000007FE
FFE00000000007FE
FFE00000000007FE
FFE00000000007FE
FFE00000000007FE
FFE00000000007FE
FFE00000000007FE
FFE00000000007FE
FFE00000000007FE
FFE00000000007FE
FFE00000000007FE
FFE00000000007FE
FFE00000000007FE
FFE00000000007FE
FFE00000000007FE
FFE00000000007FE
FFE00000000007FE
FFE00000000007FE
7FE0000000000FFE
7FF0000000000FFC
7FF0000000000FFC
7FF0000000001FFC
7FF8000000001FFC
3FFC000000003FF8
3FFE000000007FF8
3FFF00000000FFF8
1FFFC0000003FFF0
1FFFF000000FFFF0
0FFFFF8001FFFFE0
07FFFFFFFFFFFFC0
07FFFFFFFFFFFFC0
03FFFFFFFFFFFF80
01FFFFFFFFFFFF00
007FFFFFFFFFFC00
003FFFFFFFFFF800
000FFFFFFFFFE000
0003FFFFFFFF8000
00003FFFFFFC0000
000001FFFF000000
ENDCHAR
STARTCHAR Ucircumflex
ENCODING 219
SWIDTH 889 0
DWIDTH 71 0
BBX 63 73 4 -1
BITMAP
0000000FF0000000
0000001FF0000000
0000003FF8000000
0000003EFC000000
0000007C7C000000
000000FC3E000000
000001F83F000000
000001F01F000000
000003F00F800000
000007E00FC00000
000007C007C00000
0000000000000000
0000000000000000
0000000000000000
FFE00000000007FE
FFE00000000007FE
FFE00000000007FE
FFE00000000007FE
FFE00000000007FE
FFE00000000007FE
FFE00000000007FE
FFE00000000007FE
FFE00000000007FE
FFE00000000007FE
FFE00000000007FE
FFE00000000007FE
FFE00000000007FE
FFE00000000007FE
FFE00000000007FE
FFE00000000007FE
FFE00000000007FE
FFE00000000007FE
FFE00000000007FE
FFE00000000007FE
FFE00000000007FE
FFE00000000007FE
FFE00000000007FE
FFE00000000007FE
FFE00000000007FE
FFE00000000007FE
FFE00000000007FE
FFE00000000007FE
FFE00000000007FE
FFE00000000007FE
FFE00000000007FE
FFE00000000007FE
FFE00000000007FE
FFE00000000007FE
FFE00000000007FE
FFE00000000007FE
FFE00000000007FE
FFE00000000007FE
7FE0000000000FFE
7FF0000000000FFC
7FF0000000000FFC
7FF0000000001FFC
7FF8000000001FFC
3FFC000000003FF8
3FFE000000007FF8
3FFF00000000FFF8
1FFFC0000003FFF0
1FFFF000000FFFF0
0FFFFF8001FFFFE0
07FFFFFFFFFFFFC0
07FFFFFFFFFFFFC0
03FFFFFFFFFFFF80
01FFFFFFFFFFFF00
007FFFFFFFFFFC00
003FFFFFFFFFF800
000FFFFFFFFFE000
0003FFFFFFFF8000
00003FFFFFFC0000
000001FFFF000000
ENDCHAR
STARTCHAR Udieresis
ENCODING 220
SWIDTH 889 0
DWIDTH 71 0
BBX 63 72 4 -1
BITMAP
000003C007800000
000007F01FC00000
00000FF01FE00000
00000FF01FE00000
00000FF01FE00000
000007F01FC00000
000003C007800000
0000000000000000
0000000000000000
0000000000000000
0000000000000000
0000000000000000
0000000000000000
FFE00000000007FE
FFE00000000007FE
FFE00000000007FE
FFE00000000007FE
FFE00000000007FE
FFE00000000007FE
FFE00000000007FE
FFE00000000007FE
FFE00000000007FE
FFE00000000007FE
FFE00000000007FE
FFE00000000007FE
FFE00000000007FE
FFE00000000007FE
FFE00000000007FE
FFE00000000007FE
FFE00000000007FE
FFE00000000007FE
FFE00000000007FE
FFE00000000007FE
FFE00000000007FE
FFE00000000007FE
FFE00000000007FE
FFE00000000007FE
FFE00000000007FE
FFE00000000007FE
FFE00000000007FE
FFE00000000007FE
FFE00000000007FE
FFE00000000007FE
FFE00000000007FE
FFE00000000007FE
FFE00000000007FE
FFE00000000007FE
FFE00000000007FE
FFE00000000007FE
FFE00000000007FE
FFE00000000007FE
7FE0000000000FFE
7FF0000000000FFC
7FF0000000000FFC
7FF0000000001FFC
7FF8000000001FFC
3FFC000000003FF8
3FFE000000007FF8
3FFF00000000FFF8
1FFFC0000003FFF0
1FFFF000000FFFF0
0FFFFF8001FFFFE0
07FFFFFFFFFFFFC0
07FFFFFFFFFFFFC0
03FFFFFFFFFFFF80
01FFFFFFFFFFFF00
007FFFFFFFFFFC00
003FFFFFFFFFF800
000FFFFFFFFFE000
0003FFFFFFFF8000
00003FFFFFFC0000
000001FFFF000000
ENDCHAR
STARTCHAR Yacute
ENCODING 221
SWIDTH 926 0
DWIDTH 74 0
BBX 72 72 1 0
BITMAP
000000000003800000
00000000001F800000
0000000000FF800000
000000000FFF800000
000000007FFF800000
00000003FFFF800000
00000007FFFE000000
00000007FFC0000000
00000007F800000000
000000078000000000
000000000000000000
000000000000000000
000000000000000000
000000000000000000
FFFC00000000001FFF
7FFE00000000003FFE
3FFF00000000007FFC
1FFF8000000000FFF8
0FFF8000000001FFF0
07FFC000000003FFE0
03FFE000000003FFE0
03FFF000000007FFC0
01FFF80000000FFF80
00FFFC0000001FFF00
007FFC0000003FFE00
003FFE0000007FFC00
001FFF0000007FF800
000FFF800000FFF800
000FFFC00001FFF000
0007FFE00003FFE000
0003FFE00007FFC000
0001FFF0000FFF8000
0000FFF8000FFF0000
00007FFC001FFE0000
00007FFE003FFE0000
00003FFF007FFC0000
00001FFF00FFF80000
00000FFF81FFF00000
000007FFC1FFE00000
000003FFE3FFC00000
000001FFF7FF800000
000001FFFFFF800000
000000FFFFFF000000
0000007FFFFE000000
0000003FFFFC000000
0000001FFFF8000000
0000000FFFF0000000
00000007FFE0000000
00000007FFE0000000
00000003FFC0000000
00000001FF80000000
00000001FF80000000
00000001FF80000000
00000001FF80000000
00000001FF80000000
00000001FF80000000
00000001FF80000000
00000001FF80000000
00000001FF80000000
00000001FF80000000
00000001FF80000000
00000001FF80000000
00000001FF80000000
00000001FF80000000
00000001FF80000000
00000001FF80000000
00000001FF80000000
00000001FF80000000
00000001FF80000000
00000001FF80000000
00000001FF80000000
00000001FF80000000
ENDCHAR
STARTCHAR Thorn
ENCODING 222
SWIDTH 843 0
DWIDTH 67 0
BBX 60 58 5 0
BITMAP
FFC0000000000000
FFC0000000000000
FFC0000000000000
FFC0000000000000
FFC0000000000000
FFC0000000000000
FFC0000000000000
FFC0000000000000
FFFFFFFFFFF00000
FFFFFFFFFFFF0000
FFFFFFFFFFFFC000
FFFFFFFFFFFFF000
FFFFFFFFFFFFF800
FFFFFFFFFFFFFC00
FFFFFFFFFFFFFE00
FFFFFFFFFFFFFF00
FFFFFFFFFFFFFF80
FFFFFFFFFFFFFF80
FFC00000003FFFC0
FFC000000007FFC0
FFC000000003FFE0
FFC000000001FFE0
FFC000000000FFE0
FFC0000000007FF0
FFC0000000007FF0
FFC0000000003FF0
FFC0000000003FF0
FFC0000000003FF0
FFC0000000003FF0
FFC0000000003FF0
FFC0000000003FF0
FFC0000000003FF0
FFC0000000003FF0
FFC0000000003FF0
FFC0000000007FF0
FFC0000000007FE0
FFC000000000FFE0
FFC000000001FFE0
FFC000000003FFE0
FFC000000007FFC0
FFC00000003FFFC0
FFC03FFFFFFFFF80
FFC03FFFFFFFFF00
FFC03FFFFFFFFF00
FFC03FFFFFFFFE00
FFC03FFFFFFFFC00
FFC03FFFFFFFF800
FFC03FFFFFFFE000
FFC03FFFFFFFC000
FFC03FFFFFFE0000
FFC03FFFFFF00000
FFC0000000000000
FFC0000000000000
FFC0000000000000
FFC0000000000000
FFC0000000000000
FFC0000000000000
FFC0000000000000
ENDCHAR
STARTCHAR germandbls
ENCODING 223
SWIDTH 1760 0
DWIDTH 141 0
BBX 133 58 4 0
BITMAP
0007FFFFFFFFFFF000001FFFFFFFFFFFC0
003FFFFFFFFFFFF00000FFFFFFFFFFFFC0
00FFFFFFFFFFFFF00003FFFFFFFFFFFFC0
03FFFFFFFFFFFFF00007FFFFFFFFFFFFC0
07FFFFFFFFFFFFF0001FFFFFFFFFFFFFC0
0FFFFFFFFFFFFFF0003FFFFFFFFFFFFFC0
1FFFFFFFFFFFFFF0003FFFFFFFFFFFFFC0
3FFFFFFFFFFFFFF0007FFFFFFFFFFFFFC0
3FFFFFFFFFFFFFF000FFFFFFFFFFFFFFC0
7FFFFFFFFFFFFFF000FFFFFFFFFFFFFFC0
7FFF00000000000001FFFC000000000000
7FF800000000000001FFF0000000000000
7FF000000000000001FFE0000000000000
FFE000000000000001FFC0000000000000
FFE000000000000001FF80000000000000
FFE000000000000001FF80000000000000
FFE000000000000001FF80000000000000
FFE000000000000001FF80000000000000
FFE000000000000001FF80000000000000
FFE000000000000001FF80000000000000
7FE000000000000001FFC0000000000000
7FF000000000000001FFC0000000000000
7FF800000000000000FFE0000000000000
3FFE00000000000000FFF8000000000000
3FFFFFFFFFFFC00000FFFFFFFFFFFF8000
1FFFFFFFFFFFFC00007FFFFFFFFFFFF000
1FFFFFFFFFFFFF00003FFFFFFFFFFFFC00
0FFFFFFFFFFFFF80001FFFFFFFFFFFFF00
07FFFFFFFFFFFFC0000FFFFFFFFFFFFF80
03FFFFFFFFFFFFE00007FFFFFFFFFFFFC0
00FFFFFFFFFFFFF00003FFFFFFFFFFFFC0
003FFFFFFFFFFFF80000FFFFFFFFFFFFE0
0007FFFFFFFFFFF800001FFFFFFFFFFFF0
000000000000FFFC00000000000001FFF0
0000000000003FFC000000000000007FF0
0000000000000FFC000000000000003FF8
0000000000000FFC000000000000001FF8
00000000000007FE000000000000001FF8
00000000000007FE000000000000001FF8
00000000000007FE000000000000001FF8
00000000000007FE000000000000000FF8
00000000000007FE000000000000001FF8
00000000000007FE000000000000001FF8
00000000000007FE000000000000001FF8
0000000000000FFC000000000000003FF8
0000000000001FFC000000000000003FF8
0000000000003FFC00000000000000FFF0
000000000000FFFC00000000000003FFF0
7FFFFFFFFFFFFFF801FFFFFFFFFFFFFFF0
7FFFFFFFFFFFFFF801FFFFFFFFFFFFFFE0
7FFFFFFFFFFFFFF001FFFFFFFFFFFFFFE0
7FFFFFFFFFFFFFF001FFFFFFFFFFFFFFC0
7FFFFFFFFFFFFFE001FFFFFFFFFFFFFF80
7FFFFFFFFFFFFFC001FFFFFFFFFFFFFF00
7FFFFFFFFFFFFF8001FFFFFFFFFFFFFE00
7FFFFFFFFFFFFE0001FFFFFFFFFFFFFC00
7FFFFFFFFFFFF80001FFFFFFFFFFFFF000
7FFFFFFFFFFFC00001FFFFFFFFFFFF0000
ENDCHAR
STARTCHAR agrave
ENCODING 224
SWIDTH 989 0
DWIDTH 79 0
BBX 77 72 1 0
BITMAP
00000038000000000000
0000003F000000000000
0000003FE00000000000
0000003FFE0000000000
0000003FFFC000000000
0000003FFFF800000000
0000000FFFFC00000000
000000007FFC00000000
0000000007FC00000000
00000000003C00000000
00000000000000000000
00000000000000000000
00000000000000000000
000000000F8000000000
000000001FC000000000
000000003FE000000000
000000007FF000000000
000000007FF000000000
00000000FFF800000000
00000000FFF800000000
00000001FFFC00000000
00000003FFFE00000000
00000003FFFE00000000
00000007FFFF00000000
00000007FFFF00000000
0000000FFFFF80000000
0000001FFFFFC0000000
0000001FFFFFC0000000
0000003FF9FFE0000000
0000003FF9FFE0000000
0000007FF0FFF0000000
000000FFF07FF8000000
000000FFE07FF8000000
000001FFC03FFC000000
000001FFC03FFC000000
000003FF801FFE000000
000007FF800FFF000000
000007FF000FFF000000
00000FFF0007FF800000
00000FFE0007FF800000
00001FFC0003FFC00000
00003FFC0001FFE00000
00003FF80001FFE00000
00007FF80000FFF00000
00007FF00000FFF00000
0000FFE000007FF80000
0001FFE000003FFC0000
0001FFC000003FFC0000
0003FFC000001FFE0000
0003FF807FFFFFFE0000
0007FF00FFFFFFFF0000
000FFF00FFFFFFFF8000
000FFE01FFFFFFFF8000
001FFE01FFFFFFFFC000
001FFC03FFFFFFFFC000
003FF807FFFFFFFFE000
007FF80FFFFFFFFFF000
007FF000000000FFF000
00FFF0000000007FF800
00FFE0000000007FF800
01FFE0000000003FFC00
03FFC0000000001FFE00
03FF80000000001FFE00
07FF80000000000FFF00
07FF00000000000FFF00
0FFF000000000007FF80
1FFE000000000007FFC0
1FFC000000000003FFC0
3FFC000000000001FFE0
3FF8000000000001FFE0
7FF8000000000000FFF0
FFF0000000000000FFF8
ENDCHAR
STARTCHAR aacute
ENCODING 225
SWIDTH 989 0
DWIDTH 79 0
BBX 77 72 1 0
BITMAP
000000000000E0000000
000000000007E0000000
00000000003FE0000000
0000000003FFE0000000
000000001FFFE0000000
00000000FFFFE0000000
00000001FFFF80000000
00000001FFF000000000
00000001FF0000000000
00000001E00000000000
00000000000000000000
00000000000000000000
00000000000000000000
000000000F8000000000
000000001FC000000000
000000003FE000000000
000000007FF000000000
000000007FF000000000
00000000FFF800000000
00000000FFF800000000
00000001FFFC00000000
00000003FFFE00000000
00000003FFFE00000000
00000007FFFF00000000
00000007FFFF00000000
0000000FFFFF80000000
0000001FFFFFC0000000
0000001FFFFFC0000000
0000003FF9FFE0000000
0000003FF9FFE0000000
0000007FF0FFF0000000
000000FFF07FF8000000
000000FFE07FF8000000
000001FFC03FFC000000
000001FFC03FFC000000
000003FF801FFE000000
000007FF800FFF000000
000007FF000FFF000000
00000FFF0007FF800000
00000FFE0007FF800000
00001FFC0003FFC00000
00003FFC0001FFE00000
00003FF80001FFE00000
00007FF80000FFF00000
00007FF00000FFF00000
0000FFE000007FF80000
0001FFE000003FFC0000
0001FFC000003FFC0000
0003FFC000001FFE0000
0003FF807FFFFFFE0000
0007FF00FFFFFFFF0000
000FFF00FFFFFFFF8000
000FFE01FFFFFFFF8000
001FFE01FFFFFFFFC000
001FFC03FFFFFFFFC000
003FF807FFFFFFFFE000
007FF80FFFFFFFFFF000
007FF000000000FFF000
00FFF0000000007FF800
00FFE0000000007FF800
01FFE0000000003FFC00
03FFC0000000001FFE00
03FF80000000001FFE00
07FF80000000000FFF00
07FF00000000000FFF00
0FFF000000000007FF80
1FFE000000000007FFC0
1FFC000000000003FFC0
3FFC000000000001FFE0
3FF8000000000001FFE0
7FF8000000000000FFF0
FFF0000000000000FFF8
ENDCHAR
STARTCHAR acircumflex
ENCODING 226
SWIDTH 989 0
DWIDTH 79 0
BBX 77 72 1 0
BITMAP
000000001FE000000000
000000003FE000000000
000000007FF000000000
000000007DF800000000
00000000F8F800000000
00000001F87C00000000
00000003F07E00000000
00000003E03E00000000
00000007E01F00000000
0000000FC01F80000000
0000000F800F80000000
00000000000000000000
00000000000000000000
000000000F8000000000
000000001FC000000000
000000003FE000000000
000000007FF000000000
000000007FF000000000
00000000FFF800000000
00000000FFF800000000
00000001FFFC00000000
00000003FFFE00000000
00000003FFFE00000000
00000007FFFF00000000
00000007FFFF00000000
0000000FFFFF80000000
0000001FFFFFC0000000
0000001FFFFFC0000000
0000003FF9FFE0000000
0000003FF9FFE0000000
0000007FF0FFF0000000
000000FFF07FF8000000
000000FFE07FF8000000
000001FFC03FFC000000
000001FFC03FFC000000
000003FF801FFE000000
000007FF800FFF000000
000007FF000FFF000000
00000FFF0007FF800000
00000FFE0007FF800000
00001FFC0003FFC00000
00003FFC0001FFE00000
00003FF80001FFE00000
00007FF80000FFF00000
00007FF00000FFF00000
0000FFE000007FF80000
0001FFE000003FFC0000
0001FFC000003FFC0000
0003FFC000001FFE0000
0003FF807FFFFFFE0000
0007FF00FFFFFFFF0000
000FFF00FFFFFFFF8000
000FFE01FFFFFFFF8000
001FFE01FFFFFFFFC000
001FFC03FFFFFFFFC000
003FF807FFFFFFFFE000
007FF80FFFFFFFFFF000
007FF000000000FFF000
00FFF0000000007FF800
00FFE0000000007FF800
01FFE0000000003FFC00
03FFC0000000001FFE00
03FF80000000001FFE00
07FF80000000000FFF00
07FF00000000000FFF00
0FFF000000000007FF80
1FFE000000000007FFC0
1FFC000000000003FFC0
3FFC000000000001FFE0
3FF8000000000001FFE0
7FF8000000000000FFF0
FFF0000000000000FFF8
ENDCHAR
STARTCHAR atilde
ENCODING 227
SWIDTH 989 0
DWIDTH 79 0
BBX 77 70 1 0
BITMAP
00000001F00080000000
00000007FC0080000000
0000000FFF8380000000
0000000FFFFF80000000
0000000E0FFF80000000
0000000803FF00000000
00000008007C00000000
00000000000000000000
00000000000000000000
00000000000000000000
00000000000000000000
000000000F8000000000
000000001FC000000000
000000003FE000000000
000000007FF000000000
000000007FF000000000
00000000FFF800000000
00000000FFF800000000
00000001FFFC00000000
00000003FFFE00000000
00000003FFFE00000000
00000007FFFF00000000
00000007FFFF00000000
0000000FFFFF80000000
0000001FFFFFC0000000
0000001FFFFFC0000000
0000003FF9FFE0000000
0000003FF9FFE0000000
0000007FF0FFF0000000
000000FFF07FF8000000
000000FFE07FF8000000
000001FFC03FFC000000
000001FFC03FFC000000
000003FF801FFE000000
000007FF800FFF000000
000007FF000FFF000000
00000FFF0007FF800000
00000FFE0007FF800000
00001FFC0003FFC00000
00003FFC0001FFE00000
00003FF80001FFE00000
00007FF80000FFF00000
00007FF00000FFF00000
0000FFE000007FF80000
0001FFE000003FFC0000
0001FFC000003FFC0000
0003FFC000001FFE0000
0003FF807FFFFFFE0000
0007FF00FFFFFFFF0000
000FFF00FFFFFFFF8000
000FFE01FFFFFFFF8000
001FFE01FFFFFFFFC000
001FFC03FFFFFFFFC000
003FF807FFFFFFFFE000
007FF80FFFFFFFFFF000
007FF000000000FFF000
00FFF0000000007FF800
00FFE0000000007FF800
01FFE0000000003FFC00
03FFC0000000001FFE00
03FF80000000001FFE00
07FF80000000000FFF00
07FF00000000000FFF00
0FFF000000000007FF80
1FFE000000000007FFC0
1FFC000000000003FFC0
3FFC000000000001FFE0
3FF8000000000001FFE0
7FF8000000000000FFF0
FFF0000000000000FFF8
ENDCHAR
STARTCHAR adieresis
ENCODING 228
SWIDTH 989 0
DWIDTH 79 0
BBX 77 71 1 0
BITMAP
00000007800F00000000
0000000FE03F80000000
0000001FE03FC0000000
0000001FE03FC0000000
0000001FE03FC0000000
0000000FE03F80000000
00000007800F00000000
00000000000000000000
00000000000000000000
00000000000000000000
00000000000000000000
00000000000000000000
000000000F8000000000
000000001FC000000000
000000003FE000000000
000000007FF000000000
000000007FF000000000
00000000FFF800000000
00000000FFF800000000
00000001FFFC00000000
00000003FFFE00000000
00000003FFFE00000000
00000007FFFF00000000
00000007FFFF00000000
0000000FFFFF80000000
0000001FFFFFC0000000
0000001FFFFFC0000000
0000003FF9FFE0000000
0000003FF9FFE0000000
0000007FF0FFF0000000
000000FFF07FF8000000
000000FFE07FF8000000
000001FFC03FFC000000
000001FFC03FFC000000
000003FF801FFE000000
000007FF800FFF000000
000007FF000FFF000000
00000FFF0007FF800000
00000FFE0007FF800000
00001FFC0003FFC00000
00003FFC0001FFE00000
00003FF80001FFE00000
00007FF80000FFF00000
00007FF00000FFF00000
0000FFE000007FF80000
0001FFE000003FFC0000
0001FFC000003FFC0000
0003FFC000001FFE0000
0003FF807FFFFFFE0000
0007FF00FFFFFFFF0000
000FFF00FFFFFFFF8000
000FFE01FFFFFFFF8000
001FFE01FFFFFFFFC000
001FFC03FFFFFFFFC000
003FF807FFFFFFFFE000
007FF80FFFFFFFFFF000
007FF000000000FFF000
00FFF0000000007FF800
00FFE0000000007FF800
01FFE0000000003FFC00
03FFC0000000001FFE00
03FF80000000001FFE00
07FF80000000000FFF00
07FF00000000000FFF00
0FFF000000000007FF80
1FFE000000000007FFC0
1FFC000000000003FFC0
3FFC000000000001FFE0
3FF8000000000001FFE0
7FF8000000000000FFF0
FFF0000000000000FFF8
ENDCHAR
STARTCHAR aring
ENCODING 229
SWIDTH 989 0
DWIDTH 79 0
BBX 77 78 1 0
BITMAP
000000007FF000000000
00000001FFFC00000000
00000003FFFE00000000
00000007C01F00000000
00000007800F00000000
00000007000700000000
0000000F000380000000
0000000E000380000000
0000000E000380000000
0000000F000380000000
00000007000700000000
00000007800F00000000
00000003C01E00000000
00000003FFFE00000000
00000001FFFC00000000
000000007FE000000000
00000000000000000000
00000000000000000000
00000000000000000000
000000000F8000000000
000000001FC000000000
000000003FE000000000
000000007FF000000000
000000007FF000000000
00000000FFF800000000
00000000FFF800000000
00000001FFFC00000000
00000003FFFE00000000
00000003FFFE00000000
00000007FFFF00000000
00000007FFFF00000000
0000000FFFFF80000000
0000001FFFFFC0000000
0000001FFFFFC0000000
0000003FF9FFE0000000
0000003FF9FFE0000000
0000007FF0FFF0000000
000000FFF07FF8000000
000000FFE07FF8000000
000001FFC03FFC000000
000001FFC03FFC000000
000003FF801FFE000000
000007FF800FFF000000
000007FF000FFF000000
00000FFF0007FF800000
00000FFE0007FF800000
00001FFC0003FFC00000
00003FFC0001FFE00000
00003FF80001FFE00000
00007FF80000FFF00000
00007FF00000FFF00000
0000FFE000007FF80000
0001FFE000003FFC0000
0001FFC000003FFC0000
0003FFC000001FFE0000
0003FF807FFFFFFE0000
0007FF00FFFFFFFF0000
000FFF00FFFFFFFF8000
000FFE01FFFFFFFF8000
001FFE01FFFFFFFFC000
001FFC03FFFFFFFFC000
003FF807FFFFFFFFE000
007FF80FFFFFFFFFF000
007FF000000000FFF000
00FFF0000000007FF800
00FFE0000000007FF800
01FFE0000000003FFC00
03FFC0000000001FFE00
03FF80000000001FFE00
07FF80000000000FFF00
07FF00000000000FFF00
0FFF000000000007FF80
1FFE000000000007FFC0
1FFC000000000003FFC0
3FFC000000000001FFE0
3FF8000000000001FFE0
7FF8000000000000FFF0
FFF0000000000000FFF8
ENDCHAR
STARTCHAR ae
ENCODING 230
SWIDTH 1345 0
DWIDTH 108 0
BBX 103 58 1 0
BITMAP
000000001FFFFFFFFFFFFFFFFE
000000007FFFFFFFFFFFFFFFFE
000000007FFFFFFFFFFFFFFFFE
00000000FFFFFFFFFFFFFFFFFE
00000001FFFFFFFFFFFFFFFFFE
00000001FFFFFFFFFFFFFFFFFE
00000003FFFFFFFFFFFFFFFFFE
00000003FFFFFFFFFFFFFFFFFE
00000007FFFFFFFFFFFFFFFFFE
0000000FFFFFFFFFFFFFFFFFFE
0000000FFE0003FF0000000000
0000001FFC0003FF0000000000
0000001FFC0003FF0000000000
0000003FF80003FF0000000000
0000007FF00003FF0000000000
0000007FF00003FF0000000000
000000FFE00003FF0000000000
000000FFE00003FF0000000000
000001FFC00003FF0000000000
000001FFC00003FF0000000000
000003FF800003FF0000000000
000007FF000003FF0000000000
000007FF000003FF0000000000
00000FFE000003FF0000000000
00000FFE000003FF00FFFFFFF8
00001FFC000003FF00FFFFFFF8
00003FFC000003FF00FFFFFFF8
00003FF8000003FF00FFFFFFF8
00007FF0000003FF00FFFFFFF8
00007FF0000003FF00FFFFFFF8
0000FFE0000003FF00FFFFFFF8
0000FFE0000003FF00FFFFFFF8
0001FFC0000003FF00FFFFFFF8
0003FFC0000003FF0000000000
0003FF80000003FF0000000000
0007FF00000003FF0000000000
0007FF00FFFFFFFF0000000000
000FFE00FFFFFFFF0000000000
001FFE01FFFFFFFF0000000000
001FFC01FFFFFFFF0000000000
003FFC03FFFFFFFF0000000000
003FF807FFFFFFFF0000000000
007FF007FFFFFFFF0000000000
007FF00FFFFFFFFF0000000000
00FFE000000003FF0000000000
01FFE000000003FF0000000000
01FFC000000003FF0000000000
03FFC000000003FF0000000000
03FF8000000003FFFFFFFFFFFE
07FF0000000003FFFFFFFFFFFE
0FFF0000000003FFFFFFFFFFFE
0FFE0000000003FFFFFFFFFFFE
1FFE0000000003FFFFFFFFFFFE
1FFC0000000003FFFFFFFFFFFE
3FFC0000000003FFFFFFFFFFFE
3FF80000000003FFFFFFFFFFFE
7FF00000000003FFFFFFFFFFFE
FFF00000000003FFFFFFFFFFFE
ENDCHAR
STARTCHAR ccedilla
ENCODING 231
SWIDTH 829 0
DWIDTH 66 0
BBX 60 74 3 -16
BITMAP
000001FFFFFFFFF0
00001FFFFFFFFFF0
0000FFFFFFFFFFF0
0003FFFFFFFFFFF0
000FFFFFFFFFFFF0
001FFFFFFFFFFFF0
003FFFFFFFFFFFF0
007FFFFFFFFFFFF0
00FFFFFFFFFFFFF0
01FFFFFFFFFFFFF0
03FFFF8000000000
07FFF80000000000
07FFE00000000000
0FFFC00000000000
1FFF800000000000
1FFF000000000000
1FFE000000000000
3FFC000000000000
3FF8000000000000
3FF8000000000000
7FF0000000000000
7FF0000000000000
7FE0000000000000
7FE0000000000000
7FE0000000000000
FFE0000000000000
FFE0000000000000
FFE0000000000000
FFE0000000000000
FFE0000000000000
FFE0000000000000
FFE0000000000000
7FE0000000000000
7FE0000000000000
7FE0000000000000
7FF0000000000000
7FF0000000000000
3FF0000000000000
3FF8000000000000
3FF8000000000000
1FFC000000000000
1FFE000000000000
1FFF000000000000
0FFF800000000000
07FFC00000000000
07FFF00000000000
03FFFC0000000000
01FFFF8000000000
01FFFFFFFFFFFFF0
00FFFFFFFFFFFFF0
007FFFFFFFFFFFF0
001FFFFFFFFFFFF0
000FFFFFFFFFFFF0
0007FFFFFFFFFFF0
0001FFFFFFFFFFF0
00007FFFFFFFFFF0
00001FFFFFFFFFF0
000001FFFFFFFFF0
0000000000000000
0000000000000000
0000000000000000
0000000000000000
0000003FF8000000
0000001FF0000000
0000000FF0000000
0000000FF0000000
0000000FE0000000
00000007E0000000
00000007C0000000
00000003C0000000
0000000380000000
0000000180000000
0000000180000000
0000000100000000
ENDCHAR
STARTCHAR egrave
ENCODING 232
SWIDTH 759 0
DWIDTH 61 0
BBX 52 72 5 0
BITMAP
00060000000000
0007E000000000
0007FC00000000
0007FF80000000
0007FFF8000000
0007FFFF000000
0001FFFF800000
00000FFF800000
000000FF800000
00000007800000
00000000000000
00000000000000
00000000000000
00000000000000
FFFFFFFFFFFFF0
FFFFFFFFFFFFF0
FFFFFFFFFFFFF0
FFFFFFFFFFFFF0
FFFFFFFFFFFFF0
FFFFFFFFFFFFF0
FFFFFFFFFFFFF0
FFFFFFFFFFFFF0
FFFFFFFFFFFFF0
FFFFFFFFFFFFF0
FFC00000000000
FFC00000000000
FFC00000000000
FFC00000000000
FFC00000000000
FFC00000000000
FFC00000000000
FFC00000000000
FFC00000000000
FFC00000000000
FFC00000000000
FFC00000000000
FFC00000000000
FFC00000000000
FFC03FFFFFFFC0
FFC03FFFFFFFC0
FFC03FFFFFFFC0
FFC03FFFFFFFC0
FFC03FFFFFFFC0
FFC03FFFFFFFC0
FFC03FFFFFFFC0
FFC03FFFFFFFC0
FFC03FFFFFFFC0
FFC00000000000
FFC00000000000
FFC00000000000
FFC00000000000
FFC00000000000
FFC00000000000
FFC00000000000
FFC00000000000
FFC00000000000
FFC00000000000
FFC00000000000
FFC00000000000
FFC00000000000
FFC00000000000
FFC00000000000
FFFFFFFFFFFFF0
FFFFFFFFFFFFF0
FFFFFFFFFFFFF0
FFFFFFFFFFFFF0
FFFFFFFFFFFFF0
FFFFFFFFFFFFF0
FFFFFFFFFFFFF0
FFFFFFFFFFFFF0
FFFFFFFFFFFFF0
FFFFFFFFFFFFF0
ENDCHAR
STARTCHAR eacute
ENCODING 233
SWIDTH 759 0
DWIDTH 61 0
BBX 52 72 5 0
BITMAP
000000001C0000
00000000FC0000
00000007FC0000
0000007FFC0000
000003FFFC0000
00001FFFFC0000
00007FFFF00000
00007FFE000000
00007FC0000000
00007C00000000
00000000000000
00000000000000
00000000000000
00000000000000
FFFFFFFFFFFFF0
FFFFFFFFFFFFF0
FFFFFFFFFFFFF0
FFFFFFFFFFFFF0
FFFFFFFFFFFFF0
FFFFFFFFFFFFF0
FFFFFFFFFFFFF0
FFFFFFFFFFFFF0
FFFFFFFFFFFFF0
FFFFFFFFFFFFF0
FFC00000000000
FFC00000000000
FFC00000000000
FFC00000000000
FFC00000000000
FFC00000000000
FFC00000000000
FFC00000000000
FFC00000000000
FFC00000000000
FFC00000000000
FFC00000000000
FFC00000000000
FFC00000000000
FFC03FFFFFFFC0
FFC03FFFFFFFC0
FFC03FFFFFFFC0
FFC03FFFFFFFC0
FFC03FFFFFFFC0
FFC03FFFFFFFC0
FFC03FFFFFFFC0
FFC03FFFFFFFC0
FFC03FFFFFFFC0
FFC00000000000
FFC00000000000
FFC00000000000
FFC00000000000
FFC00000000000
FFC00000000000
FFC00000000000
FFC00000000000
FFC00000000000
FFC00000000000
FFC00000000000
FFC00000000000
FFC00000000000
FFC00000000000
FFC00000000000
FFFFFFFFFFFFF0
FFFFFFFFFFFFF0
FFFFFFFFFFFFF0
FFFFFFFFFFFFF0
FFFFFFFFFFFFF0
FFFFFFFFFFFFF0
FFFFFFFFFFFFF0
FFFFFFFFFFFFF0
FFFFFFFFFFFFF0
FFFFFFFFFFFFF0
ENDCHAR
STARTCHAR ecircumflex
ENCODING 234
SWIDTH 759 0
DWIDTH 61 0
BBX 52 72 5 0
BITMAP
000007F8000000
000007FC000000
00000FFE000000
00001FBE000000
00001F1F000000
00003E1F800000
00007E0FC00000
00007C07C00000
0000F807E00000
0001F803F00000
0003F001F00000
00000000000000
00000000000000
00000000000000
FFFFFFFFFFFFF0
FFFFFFFFFFFFF0
FFFFFFFFFFFFF0
FFFFFFFFFFFFF0
FFFFFFFFFFFFF0
FFFFFFFFFFFFF0
FFFFFFFFFFFFF0
FFFFFFFFFFFFF0
FFFFFFFFFFFFF0
FFFFFFFFFFFFF0
FFC00000000000
FFC00000000000
FFC00000000000
FFC00000000000
FFC00000000000
FFC00000000000
FFC00000000000
FFC00000000000
FFC00000000000
FFC00000000000
FFC00000000000
FFC00000000000
FFC00000000000
FFC00000000000
FFC03FFFFFFFC0
FFC03FFFFFFFC0
FFC03FFFFFFFC0
FFC03FFFFFFFC0
FFC03FFFFFFFC0
FFC03FFFFFFFC0
FFC03FFFFFFFC0
FFC03FFFFFFFC0
FFC03FFFFFFFC0
FFC00000000000
FFC00000000000
FFC00000000000
FFC00000000000
FFC00000000000
FFC00000000000
FFC00000000000
FFC00000000000
FFC00000000000
FFC00000000000
FFC00000000000
FFC00000000000
FFC00000000000
FFC00000000000
FFC00000000000
FFFFFFFFFFFFF0
FFFFFFFFFFFFF0
FFFFFFFFFFFFF0
FFFFFFFFFFFFF0
FFFFFFFFFFFFF0
FFFFFFFFFFFFF0
FFFFFFFFFFFFF0
FFFFFFFFFFFFF0
FFFFFFFFFFFFF0
FFFFFFFFFFFFF0
ENDCHAR
STARTCHAR edieresis
ENCODING 235
SWIDTH 759 0
DWIDTH 61 0
BBX 52 71 5 0
BITMAP
0000F001E00000
0003F807F00000
0003FC07F80000
0003FC07F80000
0003FC07F80000
0003F807F00000
0000F003E00000
00000000000000
00000000000000
00000000000000
00000000000000
00000000000000
00000000000000
FFFFFFFFFFFFF0
FFFFFFFFFFFFF0
FFFFFFFFFFFFF0
FFFFFFFFFFFFF0
FFFFFFFFFFFFF0
FFFFFFFFFFFFF0
FFFFFFFFFFFFF0
FFFFFFFFFFFFF0
FFFFFFFFFFFFF0
FFFFFFFFFFFFF0
FFC00000000000
FFC00000000000
FFC00000000000
FFC00000000000
FFC00000000000
FFC00000000000
FFC00000000000
FFC00000000000
FFC00000000000
FFC00000000000
FFC00000000000
FFC00000000000
FFC00000000000
FFC00000000000
FFC03FFFFFFFC0
FFC03FFFFFFFC0
FFC03FFFFFFFC0
FFC03FFFFFFFC0
FFC03FFFFFFFC0
FFC03FFFFFFFC0
FFC03FFFFFFFC0
FFC03FFFFFFFC0
FFC03FFFFFFFC0
FFC00000000000
FFC00000000000
FFC00000000000
FFC00000000000
FFC00000000000
FFC00000000000
FFC00000000000
FFC00000000000
FFC00000000000
FFC00000000000
FFC00000000000
FFC00000000000
FFC00000000000
FFC00000000000
FFC00000000000
FFFFFFFFFFFFF0
FFFFFFFFFFFFF0
FFFFFFFFFFFFF0
FFFFFFFFFFFFF0
FFFFFFFFFFFFF0
FFFFFFFFFFFFF0
FFFFFFFFFFFFF0
FFFFFFFFFFFFF0
FFFFFFFFFFFFF0
FFFFFFFFFFFFF0
ENDCHAR
STARTCHAR igrave
ENCODING 236
SWIDTH 267 0
DWIDTH 21 0
BBX 21 72 -2 0
BITMAP
E00000
FC0000
FFC000
FFF800
FFFF00
FFFFF0
3FFFF8
01FFF8
000FF8
0000F8
000000
000000
000000
000000
00FFC0
00FFC0
00FFC0
00FFC0
00FFC0
00FFC0
00FFC0
00FFC0
00FFC0
00FFC0
00FFC0
00FFC0
00FFC0
00FFC0
00FFC0
00FFC0
00FFC0
00FFC0
00FFC0
00FFC0
00FFC0
00FFC0
00FFC0
00FFC0
00FFC0
00FFC0
00FFC0
00FFC0
00FFC0
00FFC0
00FFC0
00FFC0
00FFC0
00FFC0
00FFC0
00FFC0
00FFC0
00FFC0
00FFC0
00FFC0
00FFC0
00FFC0
00FFC0
00FFC0
00FFC0
00FFC0
00FFC0
00FFC0
00FFC0
00FFC0
00FFC0
00FFC0
00FFC0
00FFC0
00FFC0
00FFC0
00FFC0
00FFC0
ENDCHAR
STARTCHAR iacute
ENCODING 237
SWIDTH 267 0
DWIDTH 21 0
BBX 20 72 3 0
BITMAP
000030
0003F0
001FF0
00FFF0
0FFFF0
7FFFF0
FFFFC0
FFF800
FF8000
F00000
000000
000000
000000
000000
1FF800
1FF800
1FF800
1FF800
1FF800
1FF800
1FF800
1FF800
1FF800
1FF800
1FF800
1FF800
1FF800
1FF800
1FF800
1FF800
1FF800
1FF800
1FF800
1FF800
1FF800
1FF800
1FF800
1FF800
1FF800
1FF800
1FF800
1FF800
1FF800
1FF800
1FF800
1FF800
1FF800
1FF800
1FF800
1FF800
1FF800
1FF800
1FF800
1FF800
1FF800
1FF800
1FF800
1FF800
1FF800
1FF800
1FF800
1FF800
1FF800
1FF800
1FF800
1FF800
1FF800
1FF800
1FF800
1FF800
1FF800
1FF800
ENDCHAR
STARTCHAR icircumflex
ENCODING 238
SWIDTH 267 0
DWIDTH 21 0
BBX 22 72 0 0
BITMAP
01FE00
03FE00
07FF00
07DF80
0F8FC0
1F87C0
1F07E0
3E03F0
7E01F0
7C01F8
F800FC
000000
000000
000000
03FF00
03FF00
03FF00
03FF00
03FF00
03FF00
03FF00
03FF00
03FF00
03FF00
03FF00
03FF00
03FF00
03FF00
03FF00
03FF00
03FF00
03FF00
03FF00
03FF00
03FF00
03FF00
03FF00
03FF00
03FF00
03FF00
03FF00
03FF00
03FF00
03FF00
03FF00
03FF00
03FF00
03FF00
03FF00
03FF00
03FF00
03FF00
03FF00
03FF00
03FF00
03FF00
03FF00
03FF00
03FF00
03FF00
03FF00
03FF00
03FF00
03FF00
03FF00
03FF00
03FF00
03FF00
03FF00
03FF00
03FF00
03FF00
ENDCHAR
STARTCHAR idieresis
ENCODING 239
SWIDTH 267 0
DWIDTH 21 0
BBX 23 71 -1 0
BITMAP
3E0078
7F00FE
FF01FE
FF01FE
FF01FE
7F00FE
3E0078
000000
000000
000000
000000
000000
000000
01FF80
01FF80
01FF80
01FF80
01FF80
01FF80
01FF80
01FF80
01FF80
01FF80
01FF80
01FF80
01FF80
01FF80
01FF80
01FF80
01FF80
01FF80
01FF80
01FF80
01FF80
01FF80
01FF80
01FF80
01FF80
01FF80
01FF80
01FF80
01FF80
01FF80
01FF80
01FF80
01FF80
01FF80
01FF80
01FF80
01FF80
01FF80
01FF80
01FF80
01FF80
01FF80
01FF80
01FF80
01FF80
01FF80
01FF80
01FF80
01FF80
01FF80
01FF80
01FF80
01FF80
01FF80
01FF80
01FF80
01FF80
01FF80
ENDCHAR
STARTCHAR eth
ENCODING 240
SWIDTH 877 0
DWIDTH 70 0
BBX 66 58 1 0
BITMAP
0FFFFFFFFFE0000000
0FFFFFFFFFFE000000
0FFFFFFFFFFFC00000
0FFFFFFFFFFFF00000
0FFFFFFFFFFFFC0000
0FFFFFFFFFFFFE0000
0FFFFFFFFFFFFF0000
0FFFFFFFFFFFFF8000
0FFFFFFFFFFFFFE000
0FFFFFFFFFFFFFE000
0FFC0000007FFFF000
0FFC00000007FFF800
0FFC00000001FFFC00
0FFC00000000FFFC00
0FFC000000003FFE00
0FFC000000001FFE00
0FFC000000000FFF00
0FFC000000000FFF00
0FFC0000000007FF00
0FFC0000000007FF80
0FFC0000000003FF80
0FFC0000000003FF80
0FFC0000000001FF80
0FFC0000000001FFC0
FFFFFFFFF80001FFC0
FFFFFFFFF80001FFC0
FFFFFFFFF80000FFC0
FFFFFFFFF80000FFC0
FFFFFFFFF80000FFC0
FFFFFFFFF80000FFC0
FFFFFFFFF80000FFC0
FFFFFFFFF80000FFC0
FFFFFFFFF80001FFC0
0FFC0000000001FFC0
0FFC0000000001FF80
0FFC0000000001FF80
0FFC0000000003FF80
0FFC0000000003FF80
0FFC0000000007FF00
0FFC0000000007FF00
0FFC000000000FFF00
0FFC000000001FFE00
0FFC000000001FFE00
0FFC000000007FFC00
0FFC00000000FFFC00
0FFC00000001FFF800
0FFC00000007FFF000
0FFC0000007FFFF000
0FFFFFFFFFFFFFE000
0FFFFFFFFFFFFFC000
0FFFFFFFFFFFFF8000
0FFFFFFFFFFFFF0000
0FFFFFFFFFFFFC0000
0FFFFFFFFFFFF80000
0FFFFFFFFFFFE00000
0FFFFFFFFFFF800000
0FFFFFFFFFFE000000
0FFFFFFFFFE0000000
ENDCHAR
STARTCHAR ntilde
ENCODING 241
SWIDTH 873 0
DWIDTH 70 0
BBX 60 70 5 0
BITMAP
000003F000800000
00000FFC01000000
00000FFF07000000
00000FFFFF000000
00000C1FFF000000
00000803FE000000
00001000FC000000
0000000000000000
0000000000000000
0000000000000000
0000000000000000
0000000000000000
1E00000000003FF0
7F80000000003FF0
7FC0000000003FF0
FFE0000000003FF0
FFF0000000003FF0
FFF8000000003FF0
FFFC000000003FF0
FFFE000000003FF0
FFFF000000003FF0
FFFF800000003FF0
FFFFC00000003FF0
FFFFE00000003FF0
FFFFF00000003FF0
FFFFF80000003FF0
FFFFFC0000003FF0
FFFFFE0000003FF0
FFBFFF0000003FF0
FF9FFF8000003FF0
FF8FFFC000003FF0
FF87FFE000003FF0
FF83FFF000003FF0
FF81FFF800003FF0
FF80FFFC00003FF0
FF807FFE00003FF0
FF803FFF00003FF0
FF801FFF80003FF0
FF800FFFC0003FF0
FF8007FFE0003FF0
FF8003FFF0003FF0
FF8001FFF8003FF0
FF8000FFFC003FF0
FF80007FFE003FF0
FF80003FFF003FF0
FF80001FFF803FF0
FF80000FFFC03FF0
FF800007FFF03FF0
FF800003FFF83FF0
FF800001FFFC3FF0
FF800000FFFE3FF0
FF8000007FFF3FF0
FF8000003FFFBFF0
FF8000000FFFFFF0
FF80000007FFFFF0
FF80000003FFFFF0
FF80000001FFFFF0
FF80000000FFFFF0
FF800000007FFFF0
FF800000003FFFF0
FF800000001FFFF0
FF800000000FFFF0
FF8000000007FFF0
FF8000000003FFF0
FF8000000001FFF0
FF8000000000FFF0
FF80000000007FF0
FF80000000003FE0
FF80000000001FE0
FF80000000000780
ENDCHAR
STARTCHAR ograve
ENCODING 242
SWIDTH 968 0
DWIDTH 77 0
BBX 71 72 3 0
BITMAP
000001C00000000000
000001F80000000000
000001FF0000000000
000001FFF000000000
000001FFFE00000000
000001FFFFC0000000
0000007FFFF0000000
00000003FFF0000000
000000001FF0000000
0000000001F0000000
000000000000000000
000000000000000000
000000000000000000
000000000000000000
000001FFFFFF800000
00001FFFFFFFF80000
0000FFFFFFFFFE0000
0003FFFFFFFFFF8000
000FFFFFFFFFFFE000
001FFFFFFFFFFFF800
003FFFFFFFFFFFFC00
007FFFFFFFFFFFFE00
00FFFFFFFFFFFFFF00
01FFFFFFFFFFFFFF80
03FFFF800003FFFFC0
07FFF80000003FFFC0
07FFE00000000FFFE0
0FFFC000000003FFF0
1FFF8000000001FFF0
1FFF0000000000FFF8
1FFE00000000007FF8
3FFC00000000003FF8
3FF800000000003FFC
3FF800000000001FFC
7FF000000000001FFC
7FF000000000000FFE
7FE000000000000FFE
7FE000000000000FFE
7FE0000000000007FE
FFE0000000000007FE
FFE0000000000007FE
FFE0000000000007FE
FFE0000000000007FE
FFE0000000000007FE
FFE0000000000007FE
FFE0000000000007FE
7FE0000000000007FE
7FE0000000000007FE
7FE000000000000FFE
7FF000000000000FFC
7FF000000000000FFC
3FF000000000001FFC
3FF800000000001FFC
3FF800000000003FF8
1FFC00000000003FF8
1FFE00000000007FF8
1FFF0000000000FFF0
0FFF8000000001FFF0
07FFC000000003FFE0
07FFF00000000FFFC0
03FFFC0000003FFFC0
01FFFF800001FFFF80
01FFFFFFFFFFFFFF00
00FFFFFFFFFFFFFE00
007FFFFFFFFFFFFC00
001FFFFFFFFFFFF800
000FFFFFFFFFFFF000
0007FFFFFFFFFFC000
0001FFFFFFFFFF8000
00007FFFFFFFFE0000
00001FFFFFFFF00000
000001FFFFFF000000
ENDCHAR
STARTCHAR oacute
ENCODING 243
SWIDTH 968 0
DWIDTH 77 0
BBX 71 72 3 0
BITMAP
000000000003000000
00000000003F000000
0000000001FF000000
000000000FFF000000
00000000FFFF000000
00000007FFFF000000
0000000FFFFC000000
0000000FFF80000000
0000000FF800000000
0000000F0000000000
000000000000000000
000000000000000000
000000000000000000
000000000000000000
000001FFFFFF800000
00001FFFFFFFF80000
0000FFFFFFFFFE0000
0003FFFFFFFFFF8000
000FFFFFFFFFFFE000
001FFFFFFFFFFFF800
003FFFFFFFFFFFFC00
007FFFFFFFFFFFFE00
00FFFFFFFFFFFFFF00
01FFFFFFFFFFFFFF80
03FFFF800003FFFFC0
07FFF80000003FFFC0
07FFE00000000FFFE0
0FFFC000000003FFF0
1FFF8000000001FFF0
1FFF0000000000FFF8
1FFE00000000007FF8
3FFC00000000003FF8
3FF800000000003FFC
3FF800000000001FFC
7FF000000000001FFC
7FF000000000000FFE
7FE000000000000FFE
7FE000000000000FFE
7FE0000000000007FE
FFE0000000000007FE
FFE0000000000007FE
FFE0000000000007FE
FFE0000000000007FE
FFE0000000000007FE
FFE0000000000007FE
FFE0000000000007FE
7FE0000000000007FE
7FE0000000000007FE
7FE000000000000FFE
7FF000000000000FFC
7FF000000000000FFC
3FF000000000001FFC
3FF800000000001FFC
3FF800000000003FF8
1FFC00000000003FF8
1FFE00000000007FF8
1FFF0000000000FFF0
0FFF8000000001FFF0
07FFC000000003FFE0
07FFF00000000FFFC0
03FFFC0000003FFFC0
01FFFF800001FFFF80
01FFFFFFFFFFFFFF00
00FFFFFFFFFFFFFE00
007FFFFFFFFFFFFC00
001FFFFFFFFFFFF800
000FFFFFFFFFFFF000
0007FFFFFFFFFFC000
0001FFFFFFFFFF8000
00007FFFFFFFFE0000
00001FFFFFFFF00000
000001FFFFFF000000
ENDCHAR
STARTCHAR ocircumflex
ENCODING 244
SWIDTH 968 0
DWIDTH 77 0
BBX 71 72 3 0
BITMAP
00000000FF00000000
00000001FF00000000
00000003FF80000000
00000003EFC0000000
00000007C7C0000000
0000000FC3E0000000
0000000F83F0000000
0000001F01F8000000
0000003F00F8000000
0000007E00FC000000
0000007C007E000000
000000000000000000
000000000000000000
000000000000000000
000001FFFFFF800000
00001FFFFFFFF80000
0000FFFFFFFFFE0000
0003FFFFFFFFFF8000
000FFFFFFFFFFFE000
001FFFFFFFFFFFF800
003FFFFFFFFFFFFC00
007FFFFFFFFFFFFE00
00FFFFFFFFFFFFFF00
01FFFFFFFFFFFFFF80
03FFFF800003FFFFC0
07FFF80000003FFFC0
07FFE00000000FFFE0
0FFFC000000003FFF0
1FFF8000000001FFF0
1FFF0000000000FFF8
1FFE00000000007FF8
3FFC00000000003FF8
3FF800000000003FFC
3FF800000000001FFC
7FF000000000001FFC
7FF000000000000FFE
7FE000000000000FFE
7FE000000000000FFE
7FE0000000000007FE
FFE0000000000007FE
FFE0000000000007FE
FFE0000000000007FE
FFE0000000000007FE
FFE0000000000007FE
FFE0000000000007FE
FFE0000000000007FE
7FE0000000000007FE
7FE0000000000007FE
7FE000000000000FFE
7FF000000000000FFC
7FF000000000000FFC
3FF000000000001FFC
3FF800000000001FFC
3FF800000000003FF8
1FFC00000000003FF8
1FFE00000000007FF8
1FFF0000000000FFF0
0FFF8000000001FFF0
07FFC000000003FFE0
07FFF00000000FFFC0
03FFFC0000003FFFC0
01FFFF800001FFFF80
01FFFFFFFFFFFFFF00
00FFFFFFFFFFFFFE00
007FFFFFFFFFFFFC00
001FFFFFFFFFFFF800
000FFFFFFFFFFFF000
0007FFFFFFFFFFC000
0001FFFFFFFFFF8000
00007FFFFFFFFE0000
00001FFFFFFFF00000
000001FFFFFF000000
ENDCHAR
STARTCHAR otilde
ENCODING 245
SWIDTH 968 0
DWIDTH 77 0
BBX 71 70 3 0
BITMAP
0000000F8004000000
0000003FF004000000
0000007FFC1C000000
0000007FFFFC000000
000000707FFC000000
000000600FF8000000
0000004003F0000000
000000000000000000
000000000000000000
000000000000000000
000000000000000000
000000000000000000
000001FFFFFF800000
00001FFFFFFFF80000
0000FFFFFFFFFE0000
0003FFFFFFFFFF8000
000FFFFFFFFFFFE000
001FFFFFFFFFFFF800
003FFFFFFFFFFFFC00
007FFFFFFFFFFFFE00
00FFFFFFFFFFFFFF00
01FFFFFFFFFFFFFF80
03FFFF800003FFFFC0
07FFF80000003FFFC0
07FFE00000000FFFE0
0FFFC000000003FFF0
1FFF8000000001FFF0
1FFF0000000000FFF8
1FFE00000000007FF8
3FFC00000000003FF8
3FF800000000003FFC
3FF800000000001FFC
7FF000000000001FFC
7FF000000000000FFE
7FE000000000000FFE
7FE000000000000FFE
7FE0000000000007FE
FFE0000000000007FE
FFE0000000000007FE
FFE0000000000007FE
FFE0000000000007FE
FFE0000000000007FE
FFE0000000000007FE
FFE0000000000007FE
7FE0000000000007FE
7FE0000000000007FE
7FE000000000000FFE
7FF000000000000FFC
7FF000000000000FFC
3FF000000000001FFC
3FF800000000001FFC
3FF800000000003FF8
1FFC00000000003FF8
1FFE00000000007FF8
1FFF0000000000FFF0
0FFF8000000001FFF0
07FFC000000003FFE0
07FFF00000000FFFC0
03FFFC0000003FFFC0
01FFFF800001FFFF80
01FFFFFFFFFFFFFF00
00FFFFFFFFFFFFFE00
007FFFFFFFFFFFFC00
001FFFFFFFFFFFF800
000FFFFFFFFFFFF000
0007FFFFFFFFFFC000
0001FFFFFFFFFF8000
00007FFFFFFFFE0000
00001FFFFFFFF00000
000001FFFFFF000000
ENDCHAR
STARTCHAR odieresis
ENCODING 246
SWIDTH 968 0
DWIDTH 77 0
BBX 71 71 3 0
BITMAP
0000003E0078000000
0000007F00FE000000
000000FF01FE000000
000000FF01FE000000
000000FF01FE000000
0000007F00FE000000
0000003E0078000000
000000000000000000
000000000000000000
000000000000000000
000000000000000000
000000000000000000
000000000000000000
000001FFFFFF800000
00001FFFFFFFF80000
0000FFFFFFFFFE0000
0003FFFFFFFFFF8000
000FFFFFFFFFFFE000
001FFFFFFFFFFFF800
003FFFFFFFFFFFFC00
007FFFFFFFFFFFFE00
00FFFFFFFFFFFFFF00
01FFFFFFFFFFFFFF80
03FFFF800003FFFFC0
07FFF80000003FFFC0
07FFE00000000FFFE0
0FFFC000000003FFF0
1FFF8000000001FFF0
1FFF0000000000FFF8
1FFE00000000007FF8
3FFC00000000003FF8
3FF800000000003FFC
3FF800000000001FFC
7FF000000000001FFC
7FF000000000000FFE
7FE000000000000FFE
7FE000000000000FFE
7FE0000000000007FE
FFE0000000000007FE
FFE0000000000007FE
FFE0000000000007FE
FFE0000000000007FE
FFE0000000000007FE
FFE0000000000007FE
FFE0000000000007FE
7FE0000000000007FE
7FE0000000000007FE
7FE000000000000FFE
7FF000000000000FFC
7FF000000000000FFC
3FF000000000001FFC
3FF800000000001FFC
3FF800000000003FF8
1FFC00000000003FF8
1FFE00000000007FF8
1FFF0000000000FFF0
0FFF8000000001FFF0
07FFC000000003FFE0
07FFF00000000FFFC0
03FFFC0000003FFFC0
01FFFF800001FFFF80
01FFFFFFFFFFFFFF00
00FFFFFFFFFFFFFE00
007FFFFFFFFFFFFC00
001FFFFFFFFFFFF800
000FFFFFFFFFFFF000
0007FFFFFFFFFFC000
0001FFFFFFFFFF8000
00007FFFFFFFFE0000
00001FFFFFFFF00000
000001FFFFFF000000
ENDCHAR
STARTCHAR divide
ENCODING 247
SWIDTH 690 0
DWIDTH 55 0
BBX 45 54 5 3
BITMAP
00000F800000
00001FC00000
00003FE00000
00007FF00000
00007FF00000
00007FF00000
00007FF00000
00007FF00000
00003FE00000
00001FC00000
00000F800000
000000000000
000000000000
000000000000
000000000000
000000000000
000000000000
000000000000
000000000000
000000000000
000000000000
000000000000
000000000000
000000000000
FFFFFFFFFFF8
FFFFFFFFFFF8
FFFFFFFFFFF8
FFFFFFFFFFF8
FFFFFFFFFFF8
FFFFFFFFFFF8
FFFFFFFFFFF8
000000000000
000000000000
000000000000
000000000000
000000000000
000000000000
000000000000
000000000000
000000000000
000000000000
000000000000
000000000000
00000F800000
00001FC00000
00003FE00000
00007FF00000
00007FF00000
00007FF00000
00007FF00000
00007FF00000
00003FE00000
00001FC00000
00000F800000
ENDCHAR
STARTCHAR oslash
ENCODING 248
SWIDTH 968 0
DWIDTH 77 0
BBX 71 66 3 -4
BITMAP
000000000000000400
000000000000000E00
000000000000000F80
000000000000001F00
000001FFFFFF803E00
00001FFFFFFFF87C00
0000FFFFFFFFFEF800
0003FFFFFFFFFFF800
000FFFFFFFFFFFF000
001FFFFFFFFFFFF000
003FFFFFFFFFFFFC00
007FFFFFFFFFFFFE00
00FFFFFFFFFFFFFF00
01FFFFFFFFFFFFFF80
03FFFF800003FFFFC0
07FFF80000007FFFC0
07FFE0000000FFFFE0
0FFFC0000001FFFFE0
1FFF80000003F3FFF0
1FFF00000007E1FFF8
1FFE0000000FC0FFF8
3FFC0000001F807FF8
3FF80000001F003FFC
3FF80000003E001FFC
7FF00000007E001FFC
7FF0000000FC000FFE
7FE0000001F8000FFE
7FE0000003F0000FFE
7FE0000007E00007FE
FFE0000007C00007FE
FFE000000F800007FE
FFE000001F800007FE
FFE000003F000007FE
FFE000007E000007FE
FFE00000FC000007FE
FFE00000F8000007FE
7FE00001F0000007FE
7FE00003E0000007FE
7FE00007C000000FFE
7FE0000FC000000FFC
7FF0001F8000000FFC
3FF0003F0000001FFC
3FF8003E0000001FFC
3FF8007C0000003FF8
1FFC00F80000003FF8
1FFE01F00000007FF8
1FFF03F0000000FFF0
0FFF87E0000001FFF0
07FFCFC0000003FFE0
07FFEF8000000FFFC0
03FFFF0000003FFFC0
01FFFF800001FFFF80
01FFFFFFFFFFFFFF00
00FFFFFFFFFFFFFE00
007FFFFFFFFFFFFC00
003FFFFFFFFFFFF800
000FFFFFFFFFFFF000
0007FFFFFFFFFFC000
000FFFFFFFFFFF8000
001F7FFFFFFFFE0000
003F1FFFFFFFF00000
007E01FFFFFF000000
007C00000000000000
00F800000000000000
007000000000000000
002000000000000000
ENDCHAR
STARTCHAR ugrave
ENCODING 249
SWIDTH 889 0
DWIDTH 71 0
BBX 63 73 4 -1
BITMAP
00001C0000000000
00001F8000000000
00001FF000000000
00001FFF00000000
00001FFFE0000000
00001FFFFC000000
000007FFFE000000
0000003FFE000000
00000003FE000000
000000001E000000
0000000000000000
0000000000000000
0000000000000000
0000000000000000
FFE00000000007FE
FFE00000000007FE
FFE00000000007FE
FFE00000000007FE
FFE00000000007FE
FFE00000000007FE
FFE00000000007FE
FFE00000000007FE
FFE00000000007FE
FFE00000000007FE
FFE00000000007FE
FFE00000000007FE
FFE00000000007FE
FFE00000000007FE
FFE00000000007FE
FFE00000000007FE
FFE00000000007FE
FFE00000000007FE
FFE00000000007FE
FFE00000000007FE
FFE00000000007FE
FFE00000000007FE
FFE00000000007FE
FFE00000000007FE
FFE00000000007FE
FFE00000000007FE
FFE00000000007FE
FFE00000000007FE
FFE00000000007FE
FFE00000000007FE
FFE00000000007FE
FFE00000000007FE
FFE00000000007FE
FFE00000000007FE
FFE00000000007FE
FFE00000000007FE
FFE00000000007FE
FFE00000000007FE
7FE0000000000FFE
7FF0000000000FFC
7FF0000000000FFC
7FF0000000001FFC
7FF8000000001FFC
3FFC000000003FF8
3FFE000000007FF8
3FFF00000000FFF8
1FFFC0000003FFF0
1FFFF000000FFFF0
0FFFFF8001FFFFE0
07FFFFFFFFFFFFC0
07FFFFFFFFFFFFC0
03FFFFFFFFFFFF80
01FFFFFFFFFFFF00
007FFFFFFFFFFC00
003FFFFFFFFFF800
000FFFFFFFFFE000
0003FFFFFFFF8000
00003FFFFFFC0000
000001FFFF000000
ENDCHAR
STARTCHAR uacute
ENCODING 250
SWIDTH 889 0
DWIDTH 71 0
BBX 63 73 4 -1
BITMAP
0000000000700000
0000000003F00000
000000001FF00000
00000001FFF00000
0000000FFFF00000
0000007FFFF00000
000000FFFFC00000
000000FFF8000000
000000FF80000000
000000F000000000
0000000000000000
0000000000000000
0000000000000000
0000000000000000
FFE00000000007FE
FFE00000000007FE
FFE00000000007FE
FFE00000000007FE
FFE00000000007FE
FFE00000000007FE
FFE00000000007FE
FFE00000000007FE
FFE00000000007FE
FFE00000000007FE
FFE00000000007FE
FFE00000000007FE
FFE00000000007FE
FFE00000000007FE
FFE00000000007FE
FFE00000000007FE
FFE00000000007FE
FFE00000000007FE
FFE00000000007FE
FFE00000000007FE
FFE00000000007FE
FFE00000000007FE
FFE00000000007FE
FFE00000000007FE
FFE00000000007FE
FFE00000000007FE
FFE00000000007FE
FFE00000000007FE
FFE00000000007FE
FFE00000000007FE
FFE00000000007FE
FFE00000000007FE
FFE00000000007FE
FFE00000000007FE
FFE00000000007FE
FFE00000000007FE
FFE00000000007FE
FFE00000000007FE
7FE0000000000FFE
7FF0000000000FFC
7FF0000000000FFC
7FF0000000001FFC
7FF8000000001FFC
3FFC000000003FF8
3FFE000000007FF8
3FFF00000000FFF8
1FFFC0000003FFF0
1FFFF000000FFFF0
0FFFFF8001FFFFE0
07FFFFFFFFFFFFC0
07FFFFFFFFFFFFC0
03FFFFFFFFFFFF80
01FFFFFFFFFFFF00
007FFFFFFFFFFC00
003FFFFFFFFFF800
000FFFFFFFFFE000
0003FFFFFFFF8000
00003FFFFFFC0000
000001FFFF000000
ENDCHAR
STARTCHAR ucircumflex
ENCODING 251
SWIDTH 889 0
DWIDTH 71 0
BBX 63 73 4 -1
BITMAP
0000000FF0000000
0000001FF0000000
0000003FF8000000
0000003EFC000000
0000007C7C000000
000000FC3E000000
000001F83F000000
000001F01F000000
000003F00F800000
000007E00FC00000
000007C007C00000
0000000000000000
0000000000000000
0000000000000000
FFE00000000007FE
FFE00000000007FE
FFE00000000007FE
FFE00000000007FE
FFE00000000007FE
FFE00000000007FE
FFE00000000007FE
FFE00000000007FE
FFE00000000007FE
FFE00000000007FE
FFE00000000007FE
FFE00000000007FE
FFE00000000007FE
FFE00000000007FE
FFE00000000007FE
FFE00000000007FE
FFE00000000007FE
FFE00000000007FE
FFE00000000007FE
FFE00000000007FE
FFE00000000007FE
FFE00000000007FE
FFE00000000007FE
FFE00000000007FE
FFE00000000007FE
FFE00000000007FE
FFE00000000007FE
FFE00000000007FE
FFE00000000007FE
FFE00000000007FE
FFE00000000007FE
FFE00000000007FE
FFE00000000007FE
FFE00000000007FE
FFE00000000007FE
FFE00000000007FE
FFE00000000007FE
FFE00000000007FE
7FE0000000000FFE
7FF0000000000FFC
7FF0000000000FFC
7FF0000000001FFC
7FF8000000001FFC
3FFC000000003FF8
3FFE000000007FF8
3FFF00000000FFF8
1FFFC0000003FFF0
1FFFF000000FFFF0
0FFFFF8001FFFFE0
07FFFFFFFFFFFFC0
07FFFFFFFFFFFFC0
03FFFFFFFFFFFF80
01FFFFFFFFFFFF00
007FFFFFFFFFFC00
003FFFFFFFFFF800
000FFFFFFFFFE000
0003FFFFFFFF8000
00003FFFFFFC0000
000001FFFF000000
ENDCHAR
STARTCHAR udieresis
ENCODING 252
SWIDTH 889 0
DWIDTH 71 0
BBX 63 72 4 -1
BITMAP
000003C007800000
000007F01FC00000
00000FF01FE00000
00000FF01FE00000
00000FF01FE00000
000007F01FC00000
000003C007800000
0000000000000000
0000000000000000
0000000000000000
0000000000000000
0000000000000000
0000000000000000
FFE00000000007FE
FFE00000000007FE
FFE00000000007FE
FFE00000000007FE
FFE00000000007FE
FFE00000000007FE
FFE00000000007FE
FFE00000000007FE
FFE00000000007FE
FFE00000000007FE
FFE00000000007FE
FFE00000000007FE
FFE00000000007FE
FFE00000000007FE
FFE00000000007FE
FFE00000000007FE
FFE00000000007FE
FFE00000000007FE
FFE00000000007FE
FFE00000000007FE
FFE00000000007FE
FFE00000000007FE
FFE00000000007FE
FFE00000000007FE
FFE00000000007FE
FFE00000000007FE
FFE00000000007FE
FFE00000000007FE
FFE00000000007FE
FFE00000000007FE
FFE00000000007FE
FFE00000000007FE
FFE00000000007FE
FFE00000000007FE
FFE00000000007FE
FFE00000000007FE
FFE00000000007FE
FFE00000000007FE
7FE0000000000FFE
7FF0000000000FFC
7FF0000000000FFC
7FF0000000001FFC
7FF8000000001FFC
3FFC000000003FF8
3FFE000000007FF8
3FFF00000000FFF8
1FFFC0000003FFF0
1FFFF000000FFFF0
0FFFFF8001FFFFE0
07FFFFFFFFFFFFC0
07FFFFFFFFFFFFC0
03FFFFFFFFFFFF80
01FFFFFFFFFFFF00
007FFFFFFFFFFC00
003FFFFFFFFFF800
000FFFFFFFFFE000
0003FFFFFFFF8000
00003FFFFFFC0000
000001FFFF000000
ENDCHAR
STARTCHAR yacute
ENCODING 253
SWIDTH 926 0
DWIDTH 74 0
BBX 72 72 1 0
BITMAP
000000000003800000
00000000001F800000
0000000000FF800000
000000000FFF800000
000000007FFF800000
00000003FFFF800000
00000007FFFE000000
00000007FFC0000000
00000007F800000000
000000078000000000
000000000000000000
000000000000000000
000000000000000000
000000000000000000
FFFC00000000001FFF
7FFE00000000003FFE
3FFF00000000007FFC
1FFF8000000000FFF8
0FFF8000000001FFF0
07FFC000000003FFE0
03FFE000000003FFE0
03FFF000000007FFC0
01FFF80000000FFF80
00FFFC0000001FFF00
007FFC0000003FFE00
003FFE0000007FFC00
001FFF0000007FF800
000FFF800000FFF800
000FFFC00001FFF000
0007FFE00003FFE000
0003FFE00007FFC000
0001FFF0000FFF8000
0000FFF8000FFF0000
00007FFC001FFE0000
00007FFE003FFE0000
00003FFF007FFC0000
00001FFF00FFF80000
00000FFF81FFF00000
000007FFC1FFE00000
000003FFE3FFC00000
000001FFF7FF800000
000001FFFFFF800000
000000FFFFFF000000
0000007FFFFE000000
0000003FFFFC000000
0000001FFFF8000000
0000000FFFF0000000
00000007FFE0000000
00000007FFE0000000
00000003FFC0000000
00000001FF80000000
00000001FF80000000
00000001FF80000000
00000001FF80000000
00000001FF80000000
00000001FF80000000
00000001FF80000000
00000001FF80000000
00000001FF80000000
00000001FF80000000
00000001FF80000000
00000001FF80000000
00000001FF80000000
00000001FF80000000
00000001FF80000000
00000001FF80000000
00000001FF80000000
00000001FF80000000
00000001FF80000000
00000001FF80000000
00000001FF80000000
00000001FF80000000
ENDCHAR
STARTCHAR thorn
ENCODING 254
SWIDTH 843 0
DWIDTH 67 0
BBX 60 58 5 0
BITMAP
FFC0000000000000
FFC0000000000000
FFC0000000000000
FFC0000000000000
FFC0000000000000
FFC0000000000000
FFC0000000000000
FFC0000000000000
FFFFFFFFFFF00000
FFFFFFFFFFFF0000
FFFFFFFFFFFFC000
FFFFFFFFFFFFF000
FFFFFFFFFFFFF800
FFFFFFFFFFFFFC00
FFFFFFFFFFFFFE00
FFFFFFFFFFFFFF00
FFFFFFFFFFFFFF80
FFFFFFFFFFFFFF80
FFC00000003FFFC0
FFC000000007FFC0
FFC000000003FFE0
FFC000000001FFE0
FFC000000000FFE0
FFC0000000007FF0
FFC0000000007FF0
FFC0000000003FF0
FFC0000000003FF0
FFC0000000003FF0
FFC0000000003FF0
FFC0000000003FF0
FFC0000000003FF0
FFC0000000003FF0
FFC0000000003FF0
FFC0000000003FF0
FFC0000000007FF0
FFC0000000007FE0
FFC000000000FFE0
FFC000000001FFE0
FFC000000003FFE0
FFC000000007FFC0
FFC00000003FFFC0
FFC03FFFFFFFFF80
FFC03FFFFFFFFF00
FFC03FFFFFFFFF00
FFC03FFFFFFFFE00
FFC03FFFFFFFFC00
FFC03FFFFFFFF800
FFC03FFFFFFFE000
FFC03FFFFFFFC000
FFC03FFFFFFE0000
FFC03FFFFFF00000
FFC0000000000000
FFC0000000000000
FFC0000000000000
FFC0000000000000
FFC0000000000000
FFC0000000000000
FFC0000000000000
ENDCHAR
STARTCHAR ydieresis
ENCODING 255
SWIDTH 926 0
DWIDTH 74 0
BBX 72 71 1 0
BITMAP
0000001E007C000000
0000007F00FE000000
0000007F80FF000000
0000007F80FF000000
0000007F80FF000000
0000007F00FE000000
0000001E007C000000
000000000000000000
000000000000000000
000000000000000000
000000000000000000
000000000000000000
000000000000000000
FFFC00000000001FFF
7FFE00000000003FFE
3FFF00000000007FFC
1FFF8000000000FFF8
0FFF8000000001FFF0
07FFC000000003FFE0
03FFE000000003FFE0
03FFF000000007FFC0
01FFF80000000FFF80
00FFFC0000001FFF00
007FFC0000003FFE00
003FFE0000007FFC00
001FFF0000007FF800
000FFF800000FFF800
000FFFC00001FFF000
0007FFE00003FFE000
0003FFE00007FFC000
0001FFF0000FFF8000
0000FFF8000FFF0000
00007FFC001FFE0000
00007FFE003FFE0000
00003FFF007FFC0000
00001FFF00FFF80000
00000FFF81FFF00000
000007FFC1FFE00000
000003FFE3FFC00000
000001FFF7FF800000
000001FFFFFF800000
000000FFFFFF000000
0000007FFFFE000000
0000003FFFFC000000
0000001FFFF8000000
0000000FFFF0000000
00000007FFE0000000
00000007FFE0000000
00000003FFC0000000
00000001FF80000000
00000001FF80000000
00000001FF80000000
00000001FF80000000
00000001FF80000000
00000001FF80000000
00000001FF80000000
00000001FF80000000
00000001FF80000000
00000001FF80000000
00000001FF80000000
00000001FF80000000
00000001FF80000000
00000001FF80000000
00000001FF80000000
00000001FF80000000
00000001FF80000000
00000001FF80000000
00000001FF80000000
00000001FF80000000
00000001FF80000000
00000001FF80000000
ENDCHAR
STARTCHAR Amacron
ENCODING 256
SWIDTH 989 0
DWIDTH 79 0
BBX 77 70 1 0
BITMAP
0000000FFFFF80000000
0000000FFFFF80000000
0000000FFFFF80000000
0000000FFFFF80000000
0000000FFFFF80000000
00000000000000000000
00000000000000000000
00000000000000000000
00000000000000000000
00000000000000000000
00000000000000000000
000000000F8000000000
000000001FC000000000
000000003FE000000000
000000007FF000000000
000000007FF000000000
00000000FFF800000000
00000000FFF800000000
00000001FFFC00000000
00000003FFFE00000000
00000003FFFE00000000
00000007FFFF00000000
00000007FFFF00000000
0000000FFFFF80000000
0000001FFFFFC0000000
0000001FFFFFC0000000
0000003FF9FFE0000000
0000003FF9FFE0000000
0000007FF0FFF0000000
000000FFF07FF8000000
000000FFE07FF8000000
000001FFC03FFC000000
000001FFC03FFC000000
000003FF801FFE000000
000007FF800FFF000000
000007FF000FFF000000
00000FFF0007FF800000
00000FFE0007FF800000
00001FFC0003FFC00000
00003FFC0001FFE00000
00003FF80001FFE00000
00007FF80000FFF00000
00007FF00000FFF00000
0000FFE000007FF80000
0001FFE000003FFC0000
0001FFC000003FFC0000
0003FFC000001FFE0000
0003FF807FFFFFFE0000
0007FF00FFFFFFFF0000
000FFF00FFFFFFFF8000
000FFE01FFFFFFFF8000
001FFE01FFFFFFFFC000
001FFC03FFFFFFFFC000
003FF807FFFFFFFFE000
007FF80FFFFFFFFFF000
007FF000000000FFF000
00FFF0000000007FF800
00FFE0000000007FF800
01FFE0000000003FFC00
03FFC0000000001FFE00
03FF80000000001FFE00
07FF80000000000FFF00
07FF00000000000FFF00
0FFF000000000007FF80
1FFE000000000007FFC0
1FFC000000000003FFC0
3FFC000000000001FFE0
3FF8000000000001FFE0
7FF8000000000000FFF0
FFF0000000000000FFF8
ENDCHAR
STARTCHAR amacron
ENCODING 257
SWIDTH 989 0
DWIDTH 79 0
BBX 77 70 1 0
BITMAP
0000000FFFFF80000000
0000000FFFFF80000000
0000000FFFFF80000000
0000000FFFFF80000000
0000000FFFFF80000000
00000000000000000000
00000000000000000000
00000000000000000000
00000000000000000000
00000000000000000000
00000000000000000000
000000000F8000000000
000000001FC000000000
000000003FE000000000
000000007FF000000000
000000007FF000000000
00000000FFF800000000
00000000FFF800000000
00000001FFFC00000000
00000003FFFE00000000
00000003FFFE00000000
00000007FFFF00000000
00000007FFFF00000000
0000000FFFFF80000000
0000001FFFFFC0000000
0000001FFFFFC0000000
0000003FF9FFE0000000
0000003FF9FFE0000000
0000007FF0FFF0000000
000000FFF07FF8000000
000000FFE07FF8000000
000001FFC03FFC000000
000001FFC03FFC000000
000003FF801FFE000000
000007FF800FFF000000
000007FF000FFF000000
00000FFF0007FF800000
00000FFE0007FF800000
00001FFC0003FFC00000
00003FFC0001FFE00000
00003FF80001FFE00000
00007FF80000FFF00000
00007FF00000FFF00000
0000FFE000007FF80000
0001FFE000003FFC0000
0001FFC000003FFC0000
0003FFC000001FFE0000
0003FF807FFFFFFE0000
0007FF00FFFFFFFF0000
000FFF00FFFFFFFF8000
000FFE01FFFFFFFF8000
001FFE01FFFFFFFFC000
001FFC03FFFFFFFFC000
003FF807FFFFFFFFE000
007FF80FFFFFFFFFF000
007FF000000000FFF000
00FFF0000000007FF800
00FFE0000000007FF800
01FFE0000000003FFC00
03FFC0000000001FFE00
03FF80000000001FFE00
07FF80000000000FFF00
07FF00000000000FFF00
0FFF000000000007FF80
1FFE000000000007FFC0
1FFC000000000003FFC0
3FFC000000000001FFE0
3FF8000000000001FFE0
7FF8000000000000FFF0
FFF0000000000000FFF8
ENDCHAR
STARTCHAR Abreve
ENCODING 258
SWIDTH 989 0
DWIDTH 79 0
BBX 77 73 1 0
BITMAP
0000001F800FC0000000
0000000F800F80000000
0000000F800F80000000
0000000F800F80000000
0000000FC01F80000000
00000007C01F00000000
00000007E03F00000000
00000003F07E00000000
00000001FFFE00000000
00000000FFF800000000
000000007FF000000000
00000000000000000000
00000000000000000000
00000000000000000000
000000000F8000000000
000000001FC000000000
000000003FE000000000
000000007FF000000000
000000007FF000000000
00000000FFF800000000
00000000FFF800000000
00000001FFFC00000000
00000003FFFE00000000
00000003FFFE00000000
00000007FFFF00000000
00000007FFFF00000000
0000000FFFFF80000000
0000001FFFFFC0000000
0000001FFFFFC0000000
0000003FF9FFE0000000
0000003FF9FFE0000000
0000007FF0FFF0000000
000000FFF07FF8000000
000000FFE07FF8000000
000001FFC03FFC000000
000001FFC03FFC000000
000003FF801FFE000000
000007FF800FFF000000
000007FF000FFF000000
00000FFF0007FF800000
00000FFE0007FF800000
00001FFC0003FFC00000
00003FFC0001FFE00000
00003FF80001FFE00000
00007FF80000FFF00000
00007FF00000FFF00000
0000FFE000007FF80000
0001FFE000003FFC0000
0001FFC000003FFC0000
0003FFC000001FFE0000
0003FF807FFFFFFE0000
0007FF00FFFFFFFF0000
000FFF00FFFFFFFF8000
000FFE01FFFFFFFF8000
001FFE01FFFFFFFFC000
001FFC03FFFFFFFFC000
003FF807FFFFFFFFE000
007FF80FFFFFFFFFF000
007FF000000000FFF000
00FFF0000000007FF800
00FFE0000000007FF800
01FFE0000000003FFC00
03FFC0000000001FFE00
03FF80000000001FFE00
07FF80000000000FFF00
07FF00000000000FFF00
0FFF000000000007FF80
1FFE000000000007FFC0
1FFC000000000003FFC0
3FFC000000000001FFE0
3FF8000000000001FFE0
7FF8000000000000FFF0
FFF0000000000000FFF8
ENDCHAR
STARTCHAR abreve
ENCODING 259
SWIDTH 989 0
DWIDTH 79 0
BBX 77 73 1 0
BITMAP
0000001F800FC0000000
0000000F800F80000000
0000000F800F80000000
0000000F800F80000000
0000000FC01F80000000
00000007C01F00000000
00000007E03F00000000
00000003F07E00000000
00000001FFFE00000000
00000000FFF800000000
000000007FF000000000
00000000000000000000
00000000000000000000
00000000000000000000
000000000F8000000000
000000001FC000000000
000000003FE000000000
000000007FF000000000
000000007FF000000000
00000000FFF800000000
00000000FFF800000000
00000001FFFC00000000
00000003FFFE00000000
00000003FFFE00000000
00000007FFFF00000000
00000007FFFF00000000
0000000FFFFF80000000
0000001FFFFFC0000000
0000001FFFFFC0000000
0000003FF9FFE0000000
0000003FF9FFE0000000
0000007FF0FFF0000000
000000FFF07FF8000000
000000FFE07FF8000000
000001FFC03FFC000000
000001FFC03FFC000000
000003FF801FFE000000
000007FF800FFF000000
000007FF000FFF000000
00000FFF0007FF800000
00000FFE0007FF800000
00001FFC0003FFC00000
00003FFC0001FFE00000
00003FF80001FFE00000
00007FF80000FFF00000
00007FF00000FFF00000
0000FFE000007FF80000
0001FFE000003FFC0000
0001FFC000003FFC0000
0003FFC000001FFE0000
0003FF807FFFFFFE0000
0007FF00FFFFFFFF0000
000FFF00FFFFFFFF8000
000FFE01FFFFFFFF8000
001FFE01FFFFFFFFC000
001FFC03FFFFFFFFC000
003FF807FFFFFFFFE000
007FF80FFFFFFFFFF000
007FF000000000FFF000
00FFF0000000007FF800
00FFE0000000007FF800
01FFE0000000003FFC00
03FFC0000000001FFE00
03FF80000000001FFE00
07FF80000000000FFF00
07FF00000000000FFF00
0FFF000000000007FF80
1FFE000000000007FFC0
1FFC000000000003FFC0
3FFC000000000001FFE0
3FF8000000000001FFE0
7FF8000000000000FFF0
FFF0000000000000FFF8
ENDCHAR
STARTCHAR Aogonek
ENCODING 260
SWIDTH 989 0
DWIDTH 79 0
BBX 77 75 1 -16
BITMAP
000000000F8000000000
000000001FC000000000
000000003FE000000000
000000007FF000000000
000000007FF000000000
00000000FFF800000000
00000000FFF800000000
00000001FFFC00000000
00000003FFFE00000000
00000003FFFE00000000
00000007FFFF00000000
00000007FFFF00000000
0000000FFFFF80000000
0000001FFFFFC0000000
0000001FFFFFC0000000
0000003FF9FFE0000000
0000003FF9FFE0000000
0000007FF0FFF0000000
000000FFF07FF8000000
000000FFE07FF8000000
000001FFC03FFC000000
000001FFC03FFC000000
000003FF801FFE000000
000007FF800FFF000000
000007FF000FFF000000
00000FFF0007FF800000
00000FFE0007FF800000
00001FFC0003FFC00000
00003FFC0001FFE00000
00003FF80001FFE00000
00007FF80000FFF00000
00007FF00000FFF00000
0000FFE000007FF80000
0001FFE000003FFC0000
0001FFC000003FFC0000
0003FFC000001FFE0000
0003FF807FFFFFFE0000
0007FF00FFFFFFFF0000
000FFF00FFFFFFFF8000
000FFE01FFFFFFFF8000
001FFE01FFFFFFFFC000
001FFC03FFFFFFFFC000
003FF807FFFFFFFFE000
007FF80FFFFFFFFFF000
007FF000000000FFF000
00FFF0000000007FF800
00FFE0000000007FF800
01FFE0000000003FFC00
03FFC0000000001FFE00
03FF80000000001FFE00
07FF80000000000FFF00
07FF00000000000FFF00
0FFF000000000007FF80
1FFE000000000007FFC0
1FFC000000000003FFC0
3FFC000000000001FFE0
3FF8000000000001FFE0
7FF8000000000000FFF0
FFF0000000000000FFF8
000000000000000001F0
000000000000000003E0
00000000000000000F80
00000000000000001E00
00000000000000007C00
0000000000000000F800
0000000000000001F000
0000000000000003F000
0000000000000003F000
0000000000000003FFF8
0000000000000003FFF8
0000000000000003FFF8
0000000000000003FFF8
0000000000000001FFF8
0000000000000000FFF8
00000000000000003FF8
ENDCHAR
STARTCHAR aogonek
ENCODING 261
SWIDTH 989 0
DWIDTH 79 0
BBX 77 75 1 -16
BITMAP
000000000F8000000000
000000001FC000000000
000000003FE000000000
000000007FF000000000
000000007FF000000000
00000000FFF800000000
00000000FFF800000000
00000001FFFC00000000
00000003FFFE00000000
00000003FFFE00000000
00000007FFFF00000000
00000007FFFF00000000
0000000FFFFF80000000
0000001FFFFFC0000000
0000001FFFFFC0000000
0000003FF9FFE0000000
0000003FF9FFE0000000
0000007FF0FFF0000000
000000FFF07FF8000000
000000FFE07FF8000000
000001FFC03FFC000000
000001FFC03FFC000000
000003FF801FFE000000
000007FF800FFF000000
000007FF000FFF000000
00000FFF0007FF800000
00000FFE0007FF800000
00001FFC0003FFC00000
00003FFC0001FFE00000
00003FF80001FFE00000
00007FF80000FFF00000
00007FF00000FFF00000
0000FFE000007FF80000
0001FFE000003FFC0000
0001FFC000003FFC0000
0003FFC000001FFE0000
0003FF807FFFFFFE0000
0007FF00FFFFFFFF0000
000FFF00FFFFFFFF8000
000FFE01FFFFFFFF8000
001FFE01FFFFFFFFC000
001FFC03FFFFFFFFC000
003FF807FFFFFFFFE000
007FF80FFFFFFFFFF000
007FF000000000FFF000
00FFF0000000007FF800
00FFE0000000007FF800
01FFE0000000003FFC00
03FFC0000000001FFE00
03FF80000000001FFE00
07FF80000000000FFF00
07FF00000000000FFF00
0FFF000000000007FF80
1FFE000000000007FFC0
1FFC000000000003FFC0
3FFC000000000001FFE0
3FF8000000000001FFE0
7FF8000000000000FFF0
FFF0000000000000FFF8
000000000000000001F0
000000000000000003E0
00000000000000000F80
00000000000000001E00
00000000000000007C00
0000000000000000F800
0000000000000001F000
0000000000000003F000
0000000000000003F000
0000000000000003FFF8
0000000000000003FFF8
0000000000000003FFF8
0000000000000003FFF8
0000000000000001FFF8
0000000000000000FFF8
00000000000000003FF8
ENDCHAR
STARTCHAR Cacute
ENCODING 262
SWIDTH 829 0
DWIDTH 66 0
BBX 60 72 3 0
BITMAP
00000000000E0000
00000000007E0000
0000000007FE0000
000000003FFE0000
00000001FFFE0000
0000001FFFFE0000
0000003FFFF00000
0000003FFF000000
0000003FE0000000
0000003C00000000
0000000000000000
0000000000000000
0000000000000000
0000000000000000
000001FFFFFFFFF0
00001FFFFFFFFFF0
0000FFFFFFFFFFF0
0003FFFFFFFFFFF0
000FFFFFFFFFFFF0
001FFFFFFFFFFFF0
003FFFFFFFFFFFF0
007FFFFFFFFFFFF0
00FFFFFFFFFFFFF0
01FFFFFFFFFFFFF0
03FFFF8000000000
07FFF80000000000
07FFE00000000000
0FFFC00000000000
1FFF800000000000
1FFF000000000000
1FFE000000000000
3FFC000000000000
3FF8000000000000
3FF8000000000000
7FF0000000000000
7FF0000000000000
7FE0000000000000
7FE0000000000000
7FE0000000000000
FFE0000000000000
FFE0000000000000
FFE0000000000000
FFE0000000000000
FFE0000000000000
FFE0000000000000
FFE0000000000000
7FE0000000000000
7FE0000000000000
7FE0000000000000
7FF0000000000000
7FF0000000000000
3FF0000000000000
3FF8000000000000
3FF8000000000000
1FFC000000000000
1FFE000000000000
1FFF000000000000
0FFF800000000000
07FFC00000000000
07FFF00000000000
03FFFC0000000000
01FFFF8000000000
01FFFFFFFFFFFFF0
00FFFFFFFFFFFFF0
007FFFFFFFFFFFF0
001FFFFFFFFFFFF0
000FFFFFFFFFFFF0
0007FFFFFFFFFFF0
0001FFFFFFFFFFF0
00007FFFFFFFFFF0
00001FFFFFFFFFF0
000001FFFFFFFFF0
ENDCHAR
STARTCHAR cacute
ENCODING 263
SWIDTH 829 0
DWIDTH 66 0
BBX 60 72 3 0
BITMAP
00000000000E0000
00000000007E0000
0000000007FE0000
000000003FFE0000
00000001FFFE0000
0000001FFFFE0000
0000003FFFF00000
0000003FFF000000
0000003FE0000000
0000003C00000000
0000000000000000
0000000000000000
0000000000000000
0000000000000000
000001FFFFFFFFF0
00001FFFFFFFFFF0
0000FFFFFFFFFFF0
0003FFFFFFFFFFF0
000FFFFFFFFFFFF0
001FFFFFFFFFFFF0
003FFFFFFFFFFFF0
007FFFFFFFFFFFF0
00FFFFFFFFFFFFF0
01FFFFFFFFFFFFF0
03FFFF8000000000
07FFF80000000000
07FFE00000000000
0FFFC00000000000
1FFF800000000000
1FFF000000000000
1FFE000000000000
3FFC000000000000
3FF8000000000000
3FF8000000000000
7FF0000000000000
7FF0000000000000
7FE0000000000000
7FE0000000000000
7FE0000000000000
FFE0000000000000
FFE0000000000000
FFE0000000000000
FFE0000000000000
FFE0000000000000
FFE0000000000000
FFE0000000000000
7FE0000000000000
7FE0000000000000
7FE0000000000000
7FF0000000000000
7FF0000000000000
3FF0000000000000
3FF8000000000000
3FF8000000000000
1FFC000000000000
1FFE000000000000
1FFF000000000000
0FFF800000000000
07FFC00000000000
07FFF00000000000
03FFFC0000000000
01FFFF8000000000
01FFFFFFFFFFFFF0
00FFFFFFFFFFFFF0
007FFFFFFFFFFFF0
001FFFFFFFFFFFF0
000FFFFFFFFFFFF0
0007FFFFFFFFFFF0
0001FFFFFFFFFFF0
00007FFFFFFFFFF0
00001FFFFFFFFFF0
000001FFFFFFFFF0
ENDCHAR
STARTCHAR Cdotaccent
ENCODING 266
SWIDTH 829 0
DWIDTH 66 0
BBX 60 71 3 0
BITMAP
0000000078000000
00000001FC000000
00000001FE000000
00000001FE000000
00000001FE000000
00000001FC000000
0000000078000000
0000000000000000
0000000000000000
0000000000000000
0000000000000000
0000000000000000
0000000000000000
000001FFFFFFFFF0
00001FFFFFFFFFF0
0000FFFFFFFFFFF0
0003FFFFFFFFFFF0
000FFFFFFFFFFFF0
001FFFFFFFFFFFF0
003FFFFFFFFFFFF0
007FFFFFFFFFFFF0
00FFFFFFFFFFFFF0
01FFFFFFFFFFFFF0
03FFFF8000000000
07FFF80000000000
07FFE00000000000
0FFFC00000000000
1FFF800000000000
1FFF000000000000
1FFE000000000000
3FFC000000000000
3FF8000000000000
3FF8000000000000
7FF0000000000000
7FF0000000000000
7FE0000000000000
7FE0000000000000
7FE0000000000000
FFE0000000000000
FFE0000000000000
FFE0000000000000
FFE0000000000000
FFE0000000000000
FFE0000000000000
FFE0000000000000
7FE0000000000000
7FE0000000000000
7FE0000000000000
7FF0000000000000
7FF0000000000000
3FF0000000000000
3FF8000000000000
3FF8000000000000
1FFC000000000000
1FFE000000000000
1FFF000000000000
0FFF800000000000
07FFC00000000000
07FFF00000000000
03FFFC0000000000
01FFFF8000000000
01FFFFFFFFFFFFF0
00FFFFFFFFFFFFF0
007FFFFFFFFFFFF0
001FFFFFFFFFFFF0
000FFFFFFFFFFFF0
0007FFFFFFFFFFF0
0001FFFFFFFFFFF0
00007FFFFFFFFFF0
00001FFFFFFFFFF0
000001FFFFFFFFF0
ENDCHAR
STARTCHAR cdotaccent
ENCODING 267
SWIDTH 829 0
DWIDTH 66 0
BBX 60 71 3 0
BITMAP
0000000078000000
00000001FC000000
00000001FE000000
00000001FE000000
00000001FE000000
00000001FC000000
0000000078000000
0000000000000000
0000000000000000
0000000000000000
0000000000000000
0000000000000000
0000000000000000
000001FFFFFFFFF0
00001FFFFFFFFFF0
0000FFFFFFFFFFF0
0003FFFFFFFFFFF0
000FFFFFFFFFFFF0
001FFFFFFFFFFFF0
003FFFFFFFFFFFF0
007FFFFFFFFFFFF0
00FFFFFFFFFFFFF0
01FFFFFFFFFFFFF0
03FFFF8000000000
07FFF80000000000
07FFE00000000000
0FFFC00000000000
1FFF800000000000
1FFF000000000000
1FFE000000000000
3FFC000000000000
3FF8000000000000
3FF8000000000000
7FF0000000000000
7FF0000000000000
7FE0000000000000
7FE0000000000000
7FE0000000000000
FFE0000000000000
FFE0000000000000
FFE0000000000000
FFE0000000000000
FFE0000000000000
FFE0000000000000
FFE0000000000000
7FE0000000000000
7FE0000000000000
7FE0000000000000
7FF0000000000000
7FF0000000000000
3FF0000000000000
3FF8000000000000
3FF8000000000000
1FFC000000000000
1FFE000000000000
1FFF000000000000
0FFF800000000000
07FFC00000000000
07FFF00000000000
03FFFC0000000000
01FFFF8000000000
01FFFFFFFFFFFFF0
00FFFFFFFFFFFFF0
007FFFFFFFFFFFF0
001FFFFFFFFFFFF0
000FFFFFFFFFFFF0
0007FFFFFFFFFFF0
0001FFFFFFFFFFF0
00007FFFFFFFFFF0
00001FFFFFFFFFF0
000001FFFFFFFFF0
ENDCHAR
ENDFONT
